<svg id="Layer_1" data-name="Layer 1" xmlns="http://www.w3.org/2000/svg" viewBox="0 0 1075.94 1050"><defs><style>.cls-1{fill:#ffb81c;}</style></defs><title>Owl-icons-primary-RGB-SC_Icon_Profile_Gold_RGB</title><path class="cls-1" d="M740.14,551.75a283.26,283.26,0,0,0,78.55-195.9c0-156.77-127.55-284.32-284.32-284.32S250.05,199.08,250.05,355.85a283.21,283.21,0,0,0,78.63,196c-152.22,75.86-257,233.12-257,414.44v12.2H96v-12.2c0-174.89,103-326.16,251.43-396.44a284.33,284.33,0,0,0,100.25,56.79C296.22,665.29,183.87,802.9,183.87,966.27v12.2h24.4v-12.2c0-179.81,146.29-326.1,326.1-326.1s326.1,146.29,326.1,326.1v12.2H997.11v-12.2A462,462,0,0,0,740.14,551.75ZM274.46,355.85c0-143.32,116.59-259.91,259.91-259.91S794.28,212.53,794.28,355.85a259.14,259.14,0,0,1-77.55,185l-2.24-1-11.23-4.75-.07.15A457.64,457.64,0,0,0,611,509.85a172.24,172.24,0,0,0,95.42-154c0-94.88-77.19-172.07-172.07-172.07S362.3,261,362.3,355.85a172.22,172.22,0,0,0,95.51,154A458.55,458.55,0,0,0,352.13,541,259.07,259.07,0,0,1,274.46,355.85ZM534.37,503.52c-81.43,0-147.67-66.24-147.67-147.67s66.24-147.67,147.67-147.67S682,274.42,682,355.85,615.79,503.52,534.37,503.52ZM372.44,558.94a439.08,439.08,0,0,1,324-.08,259.11,259.11,0,0,1-324,.08ZM884.66,954.06c-5.43-158-115.93-289.74-263.63-327.44a284.16,284.16,0,0,0,100.36-56.89A437.62,437.62,0,0,1,972.54,954.06Z"/></svg>