<svg id="Layer_1" data-name="Layer 1" xmlns="http://www.w3.org/2000/svg" viewBox="0 0 1075.94 1050"><defs><style>.cls-1{fill:#002554;}</style></defs><title>Owl-icons-primary-RGB-SC_Icon_Profile_Navy_RGB</title><path class="cls-1" d="M754.12,551.75a283.22,283.22,0,0,0,78.55-195.9c0-156.77-127.54-284.32-284.32-284.32S264,199.08,264,355.85a283.21,283.21,0,0,0,78.63,196C190.45,627.69,85.61,785,85.61,966.27v12.2H110v-12.2c0-174.89,103-326.16,251.43-396.44a284.2,284.2,0,0,0,100.24,56.79C310.2,665.29,197.86,802.9,197.86,966.27v12.2h24.4v-12.2c0-179.81,146.28-326.1,326.09-326.1s326.1,146.29,326.1,326.1v12.2H1011.1v-12.2A462,462,0,0,0,754.12,551.75ZM288.44,355.85c0-143.32,116.6-259.91,259.91-259.91S808.27,212.53,808.27,355.85a259.1,259.1,0,0,1-77.56,185l-2.23-1-11.24-4.75-.06.15A457.73,457.73,0,0,0,625,509.85c56.51-28.24,95.43-86.65,95.43-154,0-94.88-77.19-172.07-172.08-172.07S376.28,261,376.28,355.85c0,67.39,39,125.82,95.51,154A458.62,458.62,0,0,0,366.12,541,259.08,259.08,0,0,1,288.44,355.85ZM548.35,503.52c-81.42,0-147.66-66.24-147.66-147.67s66.24-147.67,147.66-147.67S696,274.42,696,355.85,629.78,503.52,548.35,503.52ZM386.42,558.94a439.08,439.08,0,0,1,324-.08,259.11,259.11,0,0,1-324,.08ZM898.64,954.06c-5.42-158-115.92-289.74-263.62-327.44a284.2,284.2,0,0,0,100.35-56.89A437.61,437.61,0,0,1,986.53,954.06Z"/></svg>