<svg id="Layer_1" data-name="Layer 1" xmlns="http://www.w3.org/2000/svg" viewBox="0 0 1075.94 1050"><defs><style>.cls-1{fill:#fff;}</style></defs><title>Owl-icons-primary-RGB-SC_Icon_Profile_White_RGB</title><path class="cls-1" d="M724.11,551.75a283.26,283.26,0,0,0,78.55-195.9c0-156.77-127.55-284.32-284.32-284.32S234,199.08,234,355.85a283.21,283.21,0,0,0,78.63,196C160.43,627.69,55.6,785,55.6,966.27v12.2H80v-12.2c0-174.89,103-326.16,251.44-396.44a284.2,284.2,0,0,0,100.24,56.79C280.19,665.29,167.84,802.9,167.84,966.27v12.2h24.41v-12.2c0-179.81,146.28-326.1,326.09-326.1s326.1,146.29,326.1,326.1v12.2H981.09v-12.2A462,462,0,0,0,724.11,551.75ZM258.43,355.85C258.43,212.53,375,95.94,518.34,95.94S778.26,212.53,778.26,355.85a259.1,259.1,0,0,1-77.56,185l-2.24-1-11.23-4.75-.07.15A457.64,457.64,0,0,0,595,509.85c56.51-28.24,95.43-86.65,95.43-154,0-94.88-77.2-172.07-172.08-172.07S346.27,261,346.27,355.85a172.22,172.22,0,0,0,95.51,154A458.55,458.55,0,0,0,336.1,541,259.11,259.11,0,0,1,258.43,355.85ZM518.34,503.52c-81.43,0-147.67-66.24-147.67-147.67s66.24-147.67,147.67-147.67S666,274.42,666,355.85,599.77,503.52,518.34,503.52ZM356.41,558.94a439.08,439.08,0,0,1,324-.08,259.11,259.11,0,0,1-324,.08ZM868.63,954.06C863.2,796.08,752.7,664.32,605,626.62a284.16,284.16,0,0,0,100.36-56.89A437.6,437.6,0,0,1,956.51,954.06Z"/></svg>