<svg id="Layer_1" data-name="Layer 1" xmlns="http://www.w3.org/2000/svg" viewBox="0 0 1075.94 1050"><defs><style>.cls-1{fill:#ffb81c;}.cls-2{fill:none;}.cls-3{fill:#002554;}</style></defs><title>Owl-icons-secondary-RGB-Artboard 33</title><path class="cls-1" d="M850.11,786.47C814.79,788.24,807.72,760,806,752.92V659.31l-8.83-3.53c-5.3-1.76-118.33-45.92-98.9-213.7,37.08-1.76,68.87,15.9,72.41,17.67l7.06,3.53,17.66-10.6C823.62,435,832.45,396.17,813,366.14L710.59,242.51l-5.3-5.29h-8.83c-5.3,0-12.36,0-14.13-1.77s-1.76-7.06,1.77-17.66l7.06-17.66H671.73c-5.29,0-114.79,1.76-181.9,143.05h-3.54c7.07-12.36,12.37-28.26,12.37-42.38a86.54,86.54,0,1,0-173.08,0c0,15.89,3.53,30,12.36,42.38H311.45c-21.19,0-37.09,17.66-37.09,37.09s17.66,37.09,37.09,37.09h28.26c6.88,72.22,8.72,201.38-35.21,289.64H272.6v60A53,53,0,0,0,232,818.26c0,30,23,53,53,53H864.24V786.47Z"/><path class="cls-2" d="M549.87,767.05a53,53,0,0,1,40.62,51.21c0,10.6-1.76,19.43-7.06,26.5H836V813c-31.79-5.3-47.68-28.26-54.75-45.92H673.5V738.79h106V675.21C749.44,661.08,655.84,601,670,445.62c-12.36,5.29-24.73,12.36-35.32,23l-19.43-17.67c49.45-53,121.86-37.08,158.95-19.42h5.3c15.89-10.6,21.19-31.79,10.59-47.69L692.93,265.47c-8.83,0-21.2-1.76-30-12.36-5.29-7.06-7.06-15.89-7.06-24.72-28.26,5.29-90.07,28.25-134.22,114.79,17.66,3.53,30,19.43,30,37.09,0,19.43-15.9,37.09-37.09,37.09H486.29c-6.87,72.22-8.72,201.38,35.21,289.64h28.37ZM728.25,343.18l-23,14.13c-12.36-21.19-30-19.43-30-19.43l-3.54-26.49C673.5,311.39,705.29,307.86,728.25,343.18Z"/><rect class="cls-2" x="300.85" y="733.49" width="222.53" height="31.79"/><path class="cls-2" d="M458,417.36H366.2C373.26,484.47,375,618.69,334.41,707H489.83C449.21,618.69,451,484.47,458,417.36Z"/><path class="cls-2" d="M371.5,341.42h81.24A56.45,56.45,0,0,0,472.17,299a60,60,0,0,0-120.1,0A56.41,56.41,0,0,0,371.5,341.42Z"/><path class="cls-2" d="M537.51,791.77H285c-14.13,0-26.49,12.37-26.49,26.49s12.36,26.5,26.49,26.5H535.74c15.9,0,28.26-12.37,28.26-26.5S551.64,791.77,537.51,791.77Z"/><path class="cls-2" d="M512.79,369.67H311.45c-5.3,0-10.6,5.3-10.6,10.6s5.3,10.6,10.6,10.6H512.79c5.29,0,10.59-5.3,10.59-10.6S518.08,369.67,512.79,369.67Z"/><polygon class="cls-3" points="489.83 707 489.83 707 334.41 707 334.41 707 489.83 707"/><path class="cls-3" d="M850.11,786.47C814.79,788.24,807.72,760,806,752.92V659.31l-8.83-3.53c-5.3-1.76-118.33-45.92-98.9-213.7,37.08-1.76,68.87,15.9,72.41,17.67l7.06,3.53,17.66-10.6C823.62,435,832.45,396.17,813,366.14L710.59,242.51l-5.3-5.29h-8.83c-5.3,0-12.36,0-14.13-1.77s-1.76-7.06,1.77-17.66l7.06-17.66H671.73c-5.29,0-114.79,1.76-181.9,143.05h-3.54c7.07-12.36,12.37-28.26,12.37-42.38a86.54,86.54,0,1,0-173.08,0c0,15.89,3.53,30,12.36,42.38H311.45c-21.19,0-37.09,17.66-37.09,37.09s17.66,37.09,37.09,37.09h28.26c6.88,72.22,8.72,201.38-35.21,289.64h29.91C375,618.69,373.26,484.47,366.2,417.36H458C451,484.47,449.21,618.69,489.83,707H521.5c-43.93-88.26-42.08-217.42-35.21-289.64h28.26c21.19,0,37.09-17.66,37.09-37.09,0-17.66-12.36-33.56-30-37.09,44.15-86.54,106-109.5,134.22-114.79,0,8.83,1.77,17.66,7.06,24.72,8.83,10.6,21.2,12.36,30,12.36L790.06,383.8c10.6,15.9,5.3,37.09-10.59,47.69h-5.3c-37.09-17.66-109.5-33.56-158.95,19.42l19.43,17.67c10.59-10.6,23-17.67,35.32-23C655.84,601,749.44,661.08,779.47,675.21v63.58h-106v28.26H781.23c7.07,17.66,23,40.62,54.75,45.92v31.79H583.43c5.3-7.07,7.06-15.9,7.06-26.5a53,53,0,0,0-40.62-51.21V707H521.5c1.18,2.38,2.39,4.74,3.65,7.06l10.59,19.43H523.38v31.79H300.85V733.49H290.26l10.59-19.43c1.26-2.32,2.47-4.68,3.65-7.06H272.6v60A53,53,0,0,0,232,818.26c0,30,23,53,53,53H864.24V786.47ZM412.12,239a59.56,59.56,0,0,1,60.05,60,56.45,56.45,0,0,1-19.43,42.39H371.5A56.41,56.41,0,0,1,352.07,299,59.55,59.55,0,0,1,412.12,239ZM523.38,380.27c0,5.3-5.3,10.6-10.59,10.6H311.45c-5.3,0-10.6-5.3-10.6-10.6s5.3-10.6,10.6-10.6H512.79C518.08,369.67,523.38,375,523.38,380.27Zm12.36,464.49H285c-14.13,0-26.49-12.37-26.49-26.5s12.36-26.49,26.49-26.49H537.51c14.13,0,26.49,12.37,26.49,26.49S551.64,844.76,535.74,844.76Z"/><path class="cls-3" d="M290.26,733.49H535.74l-10.59-19.43c-1.26-2.32-2.47-4.68-3.65-7.06h-217c-1.18,2.38-2.39,4.74-3.65,7.06Z"/><path class="cls-3" d="M705.29,357.31l23-14.13c-23-35.32-54.75-31.79-56.52-31.79l3.54,26.49S692.93,336.12,705.29,357.31Z"/></svg>