<svg id="Layer_1" data-name="Layer 1" xmlns="http://www.w3.org/2000/svg" viewBox="0 0 1075.94 1050"><defs><style>.cls-1{fill:#002554;}</style></defs><title>Owl-icons-primary-RGB-SC_Icon_Research_Navy_RGB</title><path class="cls-1" d="M789.42,643.26A385.71,385.71,0,0,0,836.1,547a349.46,349.46,0,0,0,17.16-109.56q0-77.18-30-145.3T741.78,173.55q-51.43-50.51-120.52-80T474.05,64q-78.12,0-147.21,29.54t-120.52,80Q154.89,224,124.86,292.17t-30,145.3q0,77.17,30,145.3t81.46,118.62q51.44,50.51,120.52,80T474.05,811V786.18q-73.35,0-137.68-27.62t-112.43-74.8q-48.12-47.16-76.22-110.52T119.61,437.47q0-72.42,28.11-135.77t76.22-110.52q48.12-47.18,112.43-74.8T474.05,88.75q72.41,0,137.2,27.63t112.91,74.8q48.12,47.16,76.22,110.52t28.11,135.77a326.31,326.31,0,0,1-15.26,100A374.8,374.8,0,0,1,798,576.91a.53.53,0,0,0,.1.06,361.35,361.35,0,0,1-26.77,49.15L692,546.31c-5,10.83-13.84,24.41-13.84,24.41a238,238,0,0,1-81.94,77.81l-3,1.73q-10,5.58-20.13,10.18l-1,.46c-6.77,3-13.62,5.67-20.53,8-1.1.37-2.19.74-3.29,1.09-2.43.78-4.87,1.51-7.31,2.21q-3.37,1-6.78,1.81c-1.44.37-2.89.73-4.34,1.07-2,.47-4.06.93-6.1,1.34-.94.2-1.89.37-2.84.55-3.61.69-7.26,1.3-10.92,1.83-1.41.2-2.81.41-4.22.59q-2.61.33-5.25.6-3.59.38-7.16.64c-1.27.09-2.53.19-3.8.26q-4.36.27-8.73.37c-1.27,0-2.54.05-3.82.07-2,0-4,0-6,0s-4-.08-6-.15c-2.71-.1-5.41-.23-8.1-.42l-2.05-.15A244.43,244.43,0,0,1,366,656.14l-1.27-.66q-4.25-2.13-8.42-4.42c-1.59-.88-3.15-1.8-4.72-2.72s-3.31-1.9-4.95-2.9q-3.92-2.41-7.71-5c-.5-.33-1-.64-1.5-1a244.09,244.09,0,0,1-65-64.83c-.46-.68-.91-1.35-1.36-2-1.43-2.14-2.82-4.33-4.18-6.52-1.11-1.79-2.19-3.6-3.26-5.42-.84-1.44-1.68-2.88-2.5-4.34-1.24-2.22-2.42-4.44-3.59-6.67-.73-1.41-1.47-2.81-2.18-4.24-1.08-2.16-2.1-4.34-3.11-6.52-.69-1.49-1.38-3-2-4.47-1-2.35-2-4.71-3-7.08-.53-1.3-1.06-2.6-1.56-3.91-1-2.5-1.84-5-2.71-7.53-.46-1.33-.93-2.66-1.36-4-.73-2.23-1.38-4.48-2-6.73-.5-1.76-1-3.51-1.49-5.28s-.89-3.55-1.31-5.33c-.55-2.28-1.09-4.55-1.57-6.85-.28-1.38-.53-2.77-.79-4.15-.49-2.62-1-5.24-1.37-7.88-.22-1.39-.39-2.79-.58-4.18-.34-2.52-.67-5.05-.93-7.59-.17-1.66-.31-3.32-.44-5-.2-2.36-.38-4.71-.52-7.09-.09-1.65-.15-3.29-.21-4.94-.08-2.44-.15-4.89-.17-7.35,0-1.76,0-3.51,0-5.26,0-2,.08-4,.15-6.06.1-2.68.23-5.35.42-8,0-.72.1-1.43.15-2.14a244.27,244.27,0,0,1,24.45-88.68c.23-.46.47-.91.7-1.36q2.1-4.2,4.37-8.33c.91-1.64,1.86-3.25,2.8-4.86s1.85-3.21,2.81-4.8q2.44-4,5-7.85c.3-.46.59-.92.9-1.37a243.92,243.92,0,0,1,64.86-65l2-1.36c2.14-1.42,4.31-2.8,6.49-4.16q2.75-1.68,5.53-3.32c1.39-.81,2.78-1.62,4.19-2.41,2.29-1.28,4.58-2.5,6.88-3.7,1.33-.69,2.66-1.39,4-2.06,2.25-1.12,4.52-2.19,6.78-3.24,1.41-.65,2.81-1.3,4.24-1.93,2.41-1.06,4.83-2.06,7.26-3,1.25-.5,2.5-1,3.76-1.5,2.53-1,5.07-1.86,7.62-2.74,1.31-.45,2.61-.91,3.93-1.33,2.24-.73,4.5-1.39,6.77-2,1.75-.51,3.49-1,5.26-1.49s3.54-.88,5.31-1.31c2.29-.55,4.58-1.09,6.89-1.57,1.35-.28,2.71-.52,4.07-.78,2.65-.5,5.31-1,8-1.39,1.33-.21,2.66-.37,4-.55,2.6-.36,5.21-.69,7.83-1,1.55-.16,3.09-.29,4.63-.42,2.49-.21,5-.4,7.5-.54,1.5-.08,3-.13,4.49-.19,2.59-.1,5.2-.17,7.82-.18,1.61,0,3.22,0,4.82,0q3.24,0,6.46.15c2.56.1,5.13.22,7.69.4l2.45.18a243.86,243.86,0,0,1,88.66,24.49l.75.39q4.51,2.25,8.93,4.69c1.48.82,2.94,1.68,4.4,2.52,1.74,1,3.49,2,5.22,3.07q3.93,2.41,7.75,5c.47.31,1,.6,1.41.92a244,244,0,0,1,65.22,65.12l.93,1.39c1.56,2.34,3.08,4.73,4.56,7.13q1.5,2.43,2.95,4.9a256.81,256.81,0,0,1,14.6,28.71Q718,387,718,437.47h24.77q0-55.26-21-104.33a282.1,282.1,0,0,0-14.24-28.6h0q-3.33-5.86-6.93-11.52l-.32-.5q-3.15-4.93-6.51-9.73c-.62-.88-1.24-1.76-1.87-2.63-1.62-2.26-3.29-4.5-5-6.7q-2-2.67-4.12-5.26-1.42-1.76-2.88-3.49c-2.14-2.56-4.32-5.09-6.54-7.56-.28-.3-.56-.6-.83-.91q-8.41-9.26-17.67-17.65l-.47-.42c-2.82-2.53-5.67-5-8.61-7.44-1.26-1.05-2.55-2.05-3.83-3.07-1.43-1.13-2.81-2.31-4.26-3.41-.41-.31-.82-.58-1.22-.89-2.49-1.88-5-3.69-7.59-5.49-.84-.59-1.68-1.21-2.53-1.79-2.6-1.79-5.26-3.5-7.93-5.2-1.13-.72-2.24-1.46-3.38-2.15-2-1.21-4-2.37-6-3.53s-4-2.34-6-3.45c-1.17-.64-2.37-1.25-3.56-1.87-2.79-1.48-5.59-2.94-8.42-4.31-.94-.46-1.89-.88-2.83-1.32-2.82-1.33-5.65-2.64-8.52-3.87-.46-.2-.9-.43-1.36-.63-1.69-.71-3.4-1.33-5.09-2-1.52-.6-3-1.23-4.56-1.81-3.55-1.35-7.12-2.6-10.72-3.79l-.61-.21q-11.82-3.89-24-6.6l-1.3-.3c-3.23-.71-6.47-1.34-9.73-1.93-1.5-.27-3-.54-4.51-.79q-3.29-.53-6.6-1c-2.73-.38-5.48-.72-8.22-1-1.11-.12-2.22-.23-3.34-.33q-5.7-.54-11.45-.84l-.88,0q-6.53-.32-13.08-.31h-.44c-4,0-7.93.1-11.91.28l-3.27.14c-2.61.15-5.23.35-7.86.57-2.41.19-4.82.4-7.22.66-.48.05-.95.07-1.43.13-.79.09-1.57.23-2.35.33q-5.37.65-10.66,1.49l-.45.08a252.78,252.78,0,0,0-59.45,17.27,276.52,276.52,0,0,0-50.64,28.47c-.69.48-1.36,1-2,1.45-2,1.42-3.91,2.86-5.83,4.33A254.22,254.22,0,0,0,260.41,274a275,275,0,0,0-33.84,58.55c-.08.19-.17.36-.25.55-.35.83-.65,1.68-1,2.52-1,2.5-2,5-3,7.53-1.24,3.28-2.39,6.6-3.5,9.92-.12.37-.26.75-.38,1.12q-3.87,11.81-6.57,24c-.1.4-.19.79-.28,1.19-.71,3.25-1.35,6.52-1.94,9.81-.27,1.48-.53,3-.78,4.45-.35,2.19-.68,4.4-1,6.61q-.57,4.14-1,8.29c-.11,1.07-.22,2.14-.32,3.21q-.56,5.82-.85,11.67l0,.61q-.31,6.69-.32,13.42v0q0,6.13.29,12.32c0,.95.08,1.91.13,2.85.15,2.76.36,5.53.59,8.3.19,2.28.39,4.56.63,6.82.05.53.08,1.06.14,1.58.1.86.25,1.71.36,2.57.43,3.48.9,6.95,1.46,10.38,0,.21.07.41.1.61a253.38,253.38,0,0,0,17.25,59.35A276.42,276.42,0,0,0,254.88,593c.41.59.84,1.18,1.26,1.77,1.47,2,3,4.05,4.49,6.05a254.37,254.37,0,0,0,50,50.26c7.53,5.68,15.26,10.89,23.16,15.7,1.57,1,3.18,1.86,4.76,2.79,1.92,1.11,3.82,2.25,5.75,3.31,3.38,1.87,6.82,3.66,10.29,5.4l.28.14c4.72,2.35,9.49,4.63,14.39,6.74a254,254,0,0,0,68.41,18.58c2.46.34,4.92.63,7.38.9l2.35.24a275.88,275.88,0,0,0,58.15-.32,249,249,0,0,0,33.58-6.14c1.6-.39,3.21-.76,4.8-1.18l1.51-.43c6.45-1.74,12.83-3.69,19.13-5.93A262.15,262.15,0,0,0,641.75,648l-.26-.26a252.36,252.36,0,0,0,56.25-60.92L757,646.13a384.13,384.13,0,0,1-76.22,74.31L947.34,986l92.42-92.42ZM718,722.35a277.67,277.67,0,0,0,29.53-28.11q13.35-14.76,26.69-31L1004.5,893.61l-57.16,57.16Z"/></svg>