<svg id="Layer_1" data-name="Layer 1" xmlns="http://www.w3.org/2000/svg" viewBox="0 0 1075.94 1050"><defs><style>.cls-1{fill:#ffb81c;}</style></defs><title>Owl-icons-primary-RGB-SC_Icon_Research_Gold_RGB</title><path class="cls-1" d="M760.09,643.26A385.71,385.71,0,0,0,806.77,547a349.46,349.46,0,0,0,17.16-109.56q0-77.18-30-145.3T712.45,173.55Q661,123,591.93,93.51T444.72,64Q366.6,64,297.51,93.51T177,173.55Q125.54,224,95.52,292.17t-30,145.3q0,77.17,30,145.3T177,701.39q51.44,50.51,120.52,80T444.72,811V786.18q-73.35,0-137.68-27.62t-112.43-74.8q-48.12-47.16-76.22-110.52T90.28,437.47q0-72.42,28.11-135.77t76.22-110.52Q242.73,144,307,116.38T444.72,88.75q72.4,0,137.19,27.63t112.92,74.8A354.07,354.07,0,0,1,771,301.7q28.11,63.36,28.12,135.77a326.31,326.31,0,0,1-15.26,100,372.67,372.67,0,0,1-15.26,39.4l.11.06A361.35,361.35,0,0,1,742,626.12l-79.32-79.81c-5,10.83-13.85,24.41-13.85,24.41a237.93,237.93,0,0,1-81.93,77.81c-1,.58-2,1.16-3,1.73q-10,5.58-20.12,10.18l-1,.46c-6.77,3-13.62,5.67-20.54,8-1.09.37-2.18.74-3.28,1.09-2.43.78-4.87,1.51-7.31,2.21q-3.37,1-6.78,1.81c-1.45.37-2.89.73-4.34,1.07-2,.47-4.06.93-6.1,1.34-.94.2-1.89.37-2.84.55q-5.43,1-10.92,1.83c-1.41.2-2.81.41-4.22.59q-2.62.33-5.25.6c-2.4.25-4.78.46-7.17.64-1.26.09-2.52.19-3.79.26-2.92.18-5.82.3-8.73.37-1.27,0-2.55.05-3.82.07-2,0-4,0-6.05,0s-4-.08-6-.15c-2.7-.1-5.4-.23-8.09-.42l-2.06-.15a244.45,244.45,0,0,1-88.73-24.45l-1.27-.66q-4.25-2.13-8.43-4.42c-1.59-.88-3.14-1.8-4.71-2.72s-3.31-1.9-4.95-2.9q-3.92-2.41-7.72-5c-.49-.33-1-.64-1.49-1a244.09,244.09,0,0,1-65-64.83c-.46-.68-.92-1.35-1.37-2-1.43-2.14-2.81-4.33-4.17-6.52-1.11-1.79-2.19-3.6-3.26-5.42-.85-1.44-1.68-2.88-2.5-4.34-1.24-2.22-2.43-4.44-3.59-6.67-.73-1.41-1.47-2.81-2.18-4.24-1.08-2.16-2.1-4.34-3.11-6.52-.69-1.49-1.38-3-2-4.47-1-2.35-2-4.71-3-7.08-.53-1.3-1.06-2.6-1.57-3.91-1-2.5-1.84-5-2.7-7.53-.46-1.33-.93-2.66-1.36-4-.73-2.23-1.38-4.48-2-6.73-.51-1.76-1-3.51-1.49-5.28s-.89-3.55-1.31-5.33c-.55-2.28-1.09-4.55-1.57-6.85-.28-1.38-.53-2.77-.79-4.15-.5-2.62-1-5.24-1.38-7.88-.21-1.39-.39-2.79-.57-4.18-.35-2.52-.67-5.05-.93-7.59-.17-1.66-.31-3.32-.44-5-.2-2.36-.39-4.71-.52-7.09-.09-1.65-.15-3.29-.21-4.94q-.14-3.66-.17-7.35c0-1.76,0-3.51,0-5.26,0-2,.07-4,.15-6.06.1-2.68.22-5.35.41-8,.05-.72.1-1.43.16-2.14a244.27,244.27,0,0,1,24.45-88.68c.22-.46.46-.91.69-1.36,1.41-2.8,2.86-5.58,4.38-8.33.91-1.64,1.85-3.25,2.8-4.86s1.84-3.21,2.81-4.8q2.45-4,5-7.85c.3-.46.59-.92.9-1.37a243.92,243.92,0,0,1,64.86-65l2-1.36c2.14-1.42,4.31-2.8,6.49-4.16q2.74-1.68,5.53-3.32c1.39-.81,2.78-1.62,4.19-2.41,2.28-1.28,4.58-2.5,6.88-3.7,1.33-.69,2.65-1.39,4-2.06,2.25-1.12,4.51-2.19,6.78-3.24,1.41-.65,2.81-1.3,4.23-1.93,2.42-1.06,4.84-2.06,7.27-3,1.25-.5,2.5-1,3.75-1.5,2.54-1,5.08-1.86,7.63-2.74,1.31-.45,2.61-.91,3.92-1.33,2.25-.73,4.51-1.39,6.77-2,1.75-.51,3.5-1,5.26-1.49s3.54-.88,5.32-1.31c2.29-.55,4.58-1.09,6.89-1.57,1.35-.28,2.71-.52,4.07-.78,2.65-.5,5.31-1,8-1.39,1.33-.21,2.66-.37,4-.55,2.6-.36,5.2-.69,7.83-1,1.54-.16,3.08-.29,4.62-.42,2.5-.21,5-.4,7.51-.54,1.5-.08,3-.13,4.49-.19,2.59-.1,5.2-.17,7.81-.18,1.62,0,3.22,0,4.83,0q3.24,0,6.45.15c2.57.1,5.14.22,7.7.4l2.45.18a243.86,243.86,0,0,1,88.66,24.49l.75.39q4.51,2.25,8.93,4.69c1.48.82,2.94,1.68,4.4,2.52,1.74,1,3.49,2,5.22,3.07q3.93,2.41,7.75,5c.47.31.94.6,1.41.92a244,244,0,0,1,65.22,65.12l.93,1.39c1.56,2.34,3.07,4.73,4.56,7.13q1.5,2.43,3,4.9a256.81,256.81,0,0,1,14.6,28.71q19.06,44.31,19,94.81H713.4q0-55.26-20.95-104.33a284.2,284.2,0,0,0-14.24-28.6h0q-3.35-5.86-6.93-11.52l-.32-.5q-3.15-4.93-6.51-9.73c-.62-.88-1.24-1.76-1.87-2.63-1.63-2.26-3.29-4.5-5-6.7q-2-2.67-4.12-5.26c-1-1.17-1.92-2.33-2.88-3.49-2.14-2.56-4.32-5.09-6.54-7.56-.28-.3-.56-.6-.83-.91q-8.41-9.26-17.67-17.65c-.16-.14-.32-.27-.47-.42-2.82-2.53-5.68-5-8.61-7.44-1.26-1.05-2.55-2.05-3.83-3.07s-2.81-2.31-4.27-3.41c-.4-.31-.81-.58-1.21-.89-2.49-1.88-5-3.69-7.59-5.49-.84-.59-1.68-1.21-2.54-1.79-2.6-1.79-5.25-3.5-7.92-5.2-1.13-.72-2.25-1.46-3.38-2.15-2-1.21-4-2.37-6-3.53s-4-2.34-6-3.45c-1.18-.64-2.37-1.25-3.56-1.87-2.79-1.48-5.59-2.94-8.43-4.31-.93-.46-1.88-.88-2.82-1.32-2.82-1.33-5.65-2.64-8.52-3.87-.46-.2-.9-.43-1.37-.63-1.68-.71-3.39-1.33-5.08-2-1.52-.6-3-1.23-4.56-1.81-3.55-1.35-7.13-2.6-10.72-3.79l-.61-.21q-11.83-3.89-24-6.6l-1.31-.3c-3.22-.71-6.46-1.34-9.72-1.93-1.5-.27-3-.54-4.51-.79q-3.28-.53-6.6-1-4.11-.57-8.22-1l-3.34-.33q-5.72-.54-11.45-.84l-.89,0q-6.51-.32-13.07-.31h-.44q-5.94,0-11.91.28l-3.27.14c-2.61.15-5.23.35-7.86.57-2.42.19-4.83.4-7.22.66-.48.05-.95.07-1.43.13-.79.09-1.57.23-2.35.33q-5.37.65-10.66,1.49l-.45.08a252.78,252.78,0,0,0-59.45,17.27,276.52,276.52,0,0,0-50.64,28.47c-.69.48-1.36,1-2,1.45-2,1.42-3.91,2.86-5.83,4.33A254.22,254.22,0,0,0,231.08,274a275,275,0,0,0-33.84,58.55c-.08.19-.17.36-.25.55-.35.83-.65,1.68-1,2.52-1,2.5-2.05,5-3,7.53-1.25,3.28-2.39,6.6-3.5,9.92-.12.37-.26.75-.38,1.12q-3.87,11.81-6.58,24l-.27,1.19c-.71,3.25-1.35,6.52-1.94,9.81-.27,1.48-.53,3-.78,4.45-.35,2.19-.68,4.4-1,6.61q-.57,4.14-1,8.29c-.11,1.07-.22,2.14-.32,3.21q-.56,5.82-.85,11.67l0,.61q-.33,6.69-.32,13.42v0q0,6.13.29,12.32c0,.95.08,1.91.13,2.85.15,2.76.36,5.53.59,8.3.19,2.28.38,4.56.63,6.82,0,.53.08,1.06.14,1.58.1.86.25,1.71.36,2.57.42,3.48.9,6.95,1.46,10.38,0,.21.07.41.1.61A252.43,252.43,0,0,0,197,542.27,276.42,276.42,0,0,0,225.55,593c.41.59.84,1.18,1.26,1.77q2.2,3,4.48,6.05a254.15,254.15,0,0,0,50,50.26c7.53,5.68,15.26,10.89,23.16,15.7,1.57,1,3.17,1.86,4.76,2.79,1.91,1.11,3.82,2.25,5.75,3.31,3.38,1.87,6.81,3.66,10.29,5.4l.28.14c4.72,2.35,9.49,4.63,14.39,6.74a254,254,0,0,0,68.41,18.58c2.46.34,4.92.63,7.38.9l2.35.24a275.88,275.88,0,0,0,58.15-.32,249,249,0,0,0,33.58-6.14c1.6-.39,3.21-.76,4.8-1.18l1.5-.43c6.45-1.74,12.84-3.69,19.14-5.93A262.1,262.1,0,0,0,612.41,648l-.25-.26a252.36,252.36,0,0,0,56.25-60.92l59.28,59.28a384.13,384.13,0,0,1-76.22,74.31L918,986l92.42-92.42Zm-71.46,79.09a278.63,278.63,0,0,0,29.53-28.11q13.35-14.76,26.69-31L975.17,893.61,918,950.77Z"/></svg>