<svg id="Layer_1" data-name="Layer 1" xmlns="http://www.w3.org/2000/svg" viewBox="0 0 1075.94 1050"><defs><style>.cls-1{fill:#ffb81c;}.cls-2,.cls-3{fill:#002554;}.cls-3{stroke:#002554;stroke-miterlimit:10;stroke-width:10px;}</style></defs><title>Owl-icons-secondary-RGB-Artboard 35</title><path class="cls-1" d="M851.62,790.46h12.31a6.24,6.24,0,0,0,6.24-6.24V771.93a6.24,6.24,0,0,0-6.24-6.24H851.62a6.24,6.24,0,0,0-6.24,6.24v12.29A6.24,6.24,0,0,0,851.62,790.46Z"/><path class="cls-1" d="M679.55,790.46h12.31a6.24,6.24,0,0,0,6.24-6.24V771.93a6.24,6.24,0,0,0-6.24-6.24H679.55a6.24,6.24,0,0,0-6.24,6.24v12.29A6.24,6.24,0,0,0,679.55,790.46Z"/><path class="cls-1" d="M1017.33,335.33H869.84V224.71a24.58,24.58,0,0,0-24.58-24.58H58.61A24.58,24.58,0,0,0,34,224.71v492a24.58,24.58,0,0,0,24.58,24.58H440v24.38H360a6.24,6.24,0,0,0-6.24,6.24v12.29a6.24,6.24,0,0,0,6.24,6.24H544.37a6.24,6.24,0,0,0,6.24-6.24V771.93a6.24,6.24,0,0,0-6.24-6.24H464.53V741.31H574.82v73.75a24.58,24.58,0,0,0,24.59,24.58h417.92a24.59,24.59,0,0,0,24.58-24.59V359.91A24.57,24.57,0,0,0,1017.33,335.33Z"/><path class="cls-2" d="M851.62,790.46h12.31a6.24,6.24,0,0,0,6.24-6.24V771.93a6.24,6.24,0,0,0-6.24-6.24H851.62a6.24,6.24,0,0,0-6.24,6.24v12.29A6.24,6.24,0,0,0,851.62,790.46Z"/><path class="cls-2" d="M679.55,790.46h12.31a6.24,6.24,0,0,0,6.24-6.24V771.93a6.24,6.24,0,0,0-6.24-6.24H679.55a6.24,6.24,0,0,0-6.24,6.24v12.29A6.24,6.24,0,0,0,679.55,790.46Z"/><path class="cls-3" d="M1017.33,335.33H869.84V224.71a24.58,24.58,0,0,0-24.58-24.58H58.61A24.58,24.58,0,0,0,34,224.71v492a24.58,24.58,0,0,0,24.58,24.58H440v24.38H360a6.24,6.24,0,0,0-6.24,6.24v12.29a6.24,6.24,0,0,0,6.24,6.24H544.37a6.24,6.24,0,0,0,6.24-6.24V771.93a6.24,6.24,0,0,0-6.24-6.24H464.53V741.31H574.82v73.75a24.58,24.58,0,0,0,24.59,24.58h417.92a24.59,24.59,0,0,0,24.58-24.59V359.91A24.57,24.57,0,0,0,1017.33,335.33ZM574.82,495.11V716.47H59.12V224.77H845.56V335.33H697.73a24.57,24.57,0,0,0-24.58,24.58V470.52H599.41A24.59,24.59,0,0,0,574.82,495.11Zm197,319.7H599.91V495.17h171.9Zm245.81,0H796.09V495.12a24.58,24.58,0,0,0-24.58-24.58H698.23V360h319.39Z"/></svg>