<svg id="Layer_1" data-name="Layer 1" xmlns="http://www.w3.org/2000/svg" viewBox="0 0 1075.94 1050"><defs><style>.cls-1{fill:#ffb81c;}.cls-2,.cls-4{fill:#002554;}.cls-2,.cls-3,.cls-4{stroke:#002554;stroke-miterlimit:10;}.cls-2{stroke-width:17.38px;}.cls-3{fill:none;stroke-linecap:round;stroke-width:34.76px;}.cls-4{stroke-width:20px;}</style></defs><title>Owl-icons-secondary-RGB-Artboard 37</title><path class="cls-1" d="M922.18,814.58v-9.24H791.39V180.46c0-46.23-37-84.55-83.23-84.55H142.74a84.29,84.29,0,0,0-84.55,84.55V263l150.16,0v0l.44,571.36A84.29,84.29,0,0,0,293.34,919H848.2c42.27,0,74-34.35,74-77.94C923.5,833.08,922.18,814.58,922.18,814.58ZM208.35,242.33,78,243.17v-64a64.74,64.74,0,0,1,129.47,0l.88,62.76Zm641.17,656.8h-502a87,87,0,0,0,30.38-66c0-2.64,0-6.61-1.32-9.25H901v15.86C903.68,875.35,879.9,899.13,849.52,899.13Z"/><path class="cls-2" d="M922.18,814.58v-9.24H791.39V180.46c0-46.23-37-84.55-83.23-84.55H142.74a84.29,84.29,0,0,0-84.55,84.55V263l150.16,0v0l.44,571.36A84.29,84.29,0,0,0,293.34,919H848.2c42.27,0,74-34.35,74-77.94C923.5,833.08,922.18,814.58,922.18,814.58ZM208.35,242.33,78,243.17v-64a64.74,64.74,0,0,1,129.47,0l.88,62.76Zm85,656.8a64.83,64.83,0,0,1-64.73-64.73V179.14a87,87,0,0,0-30.39-66H706.84a64.83,64.83,0,0,1,64.73,64.73V802.69H368.64l-14.53,2.65,2.64,10.57c1.32,5.28,2.65,11.89,2.65,17.17C359.4,870.07,329,899.13,293.34,899.13Zm556.18,0h-502a87,87,0,0,0,30.38-66c0-2.64,0-6.61-1.32-9.25H901v15.86C903.68,875.35,879.9,899.13,849.52,899.13Z"/><line class="cls-3" x1="281.04" y1="364.33" x2="720.46" y2="364.33"/><line class="cls-3" x1="281.04" y1="440.34" x2="668.33" y2="440.34"/><line class="cls-3" x1="281.04" y1="516.35" x2="703.09" y2="516.35"/><line class="cls-3" x1="281.04" y1="592.36" x2="720.46" y2="592.36"/><line class="cls-3" x1="281.04" y1="668.36" x2="659.64" y2="668.36"/><line class="cls-3" x1="281.04" y1="744.37" x2="681.36" y2="744.37"/><line class="cls-3" x1="272.35" y1="266.41" x2="456.62" y2="266.41"/><line class="cls-3" x1="272.35" y1="200.41" x2="529.84" y2="200.41"/><path class="cls-2" d="M849.52,899.13h-502a87,87,0,0,0,30.38-66c0-2.64,0-6.61-1.32-9.25H901v15.86C903.68,875.35,879.9,899.13,849.52,899.13Z"/><path class="cls-4" d="M196.39,231.47l-150,1V158.75a74.5,74.5,0,0,1,149,0l1,72.23Z"/></svg>