<svg id="Layer_1" data-name="Layer 1" xmlns="http://www.w3.org/2000/svg" viewBox="0 0 335.77 327.68"><defs><style>.cls-1{fill:#00173e;}</style></defs><title>Owl-icons-secondary-email-navy-RGB</title><path class="cls-1" d="M318.93,45.61a11.78,11.78,0,0,1,8.54,3.74,13.3,13.3,0,0,1,4.27,9.6V268.17q0,6.94-4.27,9.61a11.77,11.77,0,0,1-8.54,3.73H17.38a11.75,11.75,0,0,1-8.54-3.73,6.41,6.41,0,0,1-3.74-4A16.31,16.31,0,0,1,4,268.17V59q0-5.33,4.8-9.6a11.77,11.77,0,0,1,8.54-3.74ZM116.12,165.7,29.65,90.44V243.62ZM284.77,76H51L167.35,179ZM200.44,182.24l-24.55,22.95-17.08-.53-22.95-22.42L54.21,255.9H281.57Zm19.22-16.54,87,77.92V90.44Z"/></svg>