<svg id="Layer_1" data-name="Layer 1" xmlns="http://www.w3.org/2000/svg" viewBox="0 0 1075.94 1050"><defs><style>.cls-1{fill:#002554;}</style></defs><title>Owl-icons-primary-RGB-SC_Icon_Strategy_Navy_RGB</title><path class="cls-1" d="M917.4,983.38,638.05,304.64l61-112.62H566.27c-16.84,0-24.61-8.09-24.77-8.26l-5.94-5.91,13.85-13.67a97.1,97.1,0,0,0,14.65-17.28,47,47,0,0,0,7.69-26.52c0-14.93-5.26-27.76-15.63-38.13S532.91,66.62,518,66.62s-27.75,5.26-38.14,15.63-15.63,23.2-15.63,38.13a47.09,47.09,0,0,0,7.7,26.55,97.74,97.74,0,0,0,14.38,17l14.11,13.91L495.17,183l-.53.56c-.32.34-8.1,8.44-24.94,8.44H336.59l69.28,124.24H507.55L735.07,862.08,301.3,862,497.45,390.71H470.72L274.58,862l-79.12,0L390.53,390.71h-26.7L158.54,886.6l105.77,0L224,983.38ZM492.45,133.24a22.52,22.52,0,0,1-3.55-12.86c0-8.38,2.67-14.95,8.39-20.67S509.61,91.3,518,91.3s15,2.67,20.68,8.4,8.4,12.3,8.4,20.68a22.48,22.48,0,0,1-3.54,12.84,74.53,74.53,0,0,1-11.18,13.15L518,160.53l-14.61-14.4A73.26,73.26,0,0,1,492.45,133.24ZM291,886.63l481.06.13L524,291.58H420.37L378.61,216.7H469.7c26.35,0,40.14-13.22,43-16.35l5.25-5.17,5.25,5.17c2.9,3.13,16.69,16.35,43,16.35h91.38l-46.88,86.49L880.56,958.7H261Z"/></svg>