<svg id="Layer_1" data-name="Layer 1" xmlns="http://www.w3.org/2000/svg" viewBox="0 0 1075.94 1050"><defs><style>.cls-1{fill:#ffb81c;}</style></defs><title>Owl-icons-primary-RGB-SC_Icon_Strategy_Gold_RGB</title><path class="cls-1" d="M916.17,983.38,636.81,304.64l61-112.62H565c-16.84,0-24.6-8.09-24.77-8.26l-5.94-5.91,13.86-13.67a97.52,97.52,0,0,0,14.65-17.28,47,47,0,0,0,7.68-26.52c0-14.93-5.25-27.76-15.62-38.13s-23.21-15.63-38.14-15.63a52.18,52.18,0,0,0-38.14,15.63C468.24,92.62,463,105.45,463,120.38a47,47,0,0,0,7.7,26.55,96.88,96.88,0,0,0,14.38,17l14.11,13.91L493.93,183l-.53.56c-.32.34-8.09,8.44-24.93,8.44H335.36l69.28,124.24H506.31L733.84,862.08,300.07,862,496.21,390.71H469.49L273.34,862l-79.12,0L389.3,390.71H362.59L157.3,886.6l105.78,0-40.27,96.76ZM491.22,133.24a22.53,22.53,0,0,1-3.56-12.86c0-8.38,2.67-14.95,8.4-20.67s12.32-8.41,20.69-8.41,15,2.67,20.69,8.4,8.4,12.3,8.4,20.68a22.49,22.49,0,0,1-3.55,12.84,73.7,73.7,0,0,1-11.18,13.15l-14.36,14.16-14.61-14.4A73.21,73.21,0,0,1,491.22,133.24ZM289.8,886.63l481.06.13L522.76,291.58H419.13L377.37,216.7h91.1c26.34,0,40.14-13.22,43-16.35l5.25-5.17,5.25,5.17c2.9,3.13,16.69,16.35,43,16.35h91.39l-46.89,86.49L879.33,958.7H259.8Z"/></svg>