<svg id="Layer_1" data-name="Layer 1" xmlns="http://www.w3.org/2000/svg" viewBox="0 0 1075.94 1050"><defs><style>.cls-1{fill:#fff;}</style></defs><title>Owl-icons-primary-RGB-SC_Icon_Strategy_White_RGB</title><path class="cls-1" d="M897.4,983.38,618.05,304.64l61-112.62H546.27c-16.84,0-24.61-8.09-24.77-8.26l-5.94-5.91,13.85-13.67a97.1,97.1,0,0,0,14.65-17.28,47,47,0,0,0,7.69-26.52c0-14.93-5.26-27.76-15.63-38.13S512.91,66.62,498,66.62s-27.75,5.26-38.14,15.63-15.63,23.2-15.63,38.13a47.09,47.09,0,0,0,7.7,26.55,97.74,97.74,0,0,0,14.38,17l14.11,13.91L475.17,183l-.53.56c-.32.34-8.1,8.44-24.94,8.44H316.59l69.28,124.24H487.55L715.07,862.08,281.3,862,477.45,390.71H450.72L254.58,862l-79.12,0L370.53,390.71h-26.7L138.54,886.6l105.77,0L204,983.38ZM472.45,133.24a22.52,22.52,0,0,1-3.55-12.86c0-8.38,2.67-14.95,8.39-20.67S489.61,91.3,498,91.3s15,2.67,20.68,8.4,8.4,12.3,8.4,20.68a22.48,22.48,0,0,1-3.54,12.84,74.53,74.53,0,0,1-11.18,13.15L498,160.53l-14.61-14.4A73.26,73.26,0,0,1,472.45,133.24ZM271,886.63l481.06.13L504,291.58H400.37L358.61,216.7H449.7c26.35,0,40.14-13.22,43-16.35l5.25-5.17,5.25,5.17c2.9,3.13,16.69,16.35,43,16.35h91.38l-46.88,86.49L860.56,958.7H241Z"/></svg>