<svg id="Layer_1" data-name="Layer 1" xmlns="http://www.w3.org/2000/svg" viewBox="0 0 1075.94 1050"><defs><style>.cls-1,.cls-2,.cls-4,.cls-5,.cls-6{fill:#002554;}.cls-1,.cls-3,.cls-5,.cls-7,.cls-9{fill-rule:evenodd;}.cls-10,.cls-3,.cls-9{fill:#ffb81c;}.cls-3,.cls-4,.cls-5,.cls-6{stroke:#002554;stroke-miterlimit:10;}.cls-3,.cls-4{stroke-width:15.13px;}.cls-5,.cls-6{stroke-width:10.09px;}.cls-7,.cls-8{fill:#f8a700;}</style></defs><title>Owl-icons-secondary-RGB-Artboard 36</title><path class="cls-1" d="M951.64,724.62c-9,0-16.37-7.87-16.37-17.5V579.84C935.27,361,774.31,183,576.49,183h-107c-197.84,0-358.83,178-358.83,396.88l0,127.28c0,9.63-7.37,17.5-16.36,17.5s-16.37-7.87-16.37-17.5V579.84C77.92,341.69,253.55,148,469.45,148h107C792.39,148,968,341.69,968,579.84V707.12C968,716.75,960.67,724.62,951.64,724.62Z"/><path class="cls-1" d="M147,739.18c0,20.12-15.23,36.44-34.09,36.44S78.79,759.3,78.79,739.18V675.1c0-20.16,15.28-36.44,34.09-36.44S147,654.94,147,675.1Z"/><path class="cls-2" d="M112.88,784.72c-23.4,0-42.46-20.44-42.46-45.54V675.1c0-25.12,19.06-45.54,42.46-45.54S155.35,650,155.35,675.1v64.08C155.35,764.28,136.29,784.72,112.88,784.72Zm0-137c-14.15,0-25.7,12.27-25.7,27.33v64.08c0,15.06,11.55,27.33,25.7,27.33s25.71-12.27,25.71-27.33V675.1C138.59,660,127.05,647.77,112.88,647.77Z"/><path class="cls-1" d="M967.13,739.18c0,20.12-15.28,36.44-34.08,36.44s-34.14-16.32-34.14-36.44V675.1c0-20.16,15.28-36.44,34.14-36.44s34.08,16.28,34.08,36.44Z"/><path class="cls-2" d="M933.05,784.72c-23.45,0-42.51-20.44-42.51-45.54V675.1c0-25.12,19.06-45.54,42.51-45.54S975.51,650,975.51,675.1v64.08C975.51,764.28,956.46,784.72,933.05,784.72Zm0-137c-14.21,0-25.75,12.27-25.75,27.33v64.08c0,15.06,11.54,27.33,25.75,27.33s25.7-12.27,25.7-27.33V675.1C958.75,660,947.21,647.77,933.05,647.77Z"/><path class="cls-3" d="M233.21,540.17H197.82c-48.23,0-87.33,43.41-87.33,97V773.77c0,53.52,39.1,96.92,87.33,96.92h35.39Z"/><path class="cls-4" d="M233.21,879.8H197.82c-52.8,0-95.71-47.56-95.71-106V637.15c0-58.5,42.91-106.08,95.71-106.08h35.39c4.63,0,8.37,4.08,8.37,9.1V870.69C241.58,875.71,237.84,879.8,233.21,879.8ZM197.82,549.29c-43.53,0-79,39.39-79,87.86V773.77c0,48.42,35.43,87.81,79,87.81h27V549.29Z"/><path class="cls-5" d="M299.81,846.59c0,27.79-18,50.33-40.29,50.33h-1.44c-22.29,0-40.32-22.54-40.32-50.33V564.28c0-27.85,18-50.38,40.32-50.38h1.44c22.26,0,40.29,22.58,40.29,50.38Z"/><path class="cls-6" d="M259.52,906h-1.44c-26.86,0-48.7-26.68-48.7-59.45V564.28c0-32.8,21.84-59.49,48.7-59.49,28.26,0,50.11,26.69,50.11,59.49V846.59C308.19,879.36,286.34,906,259.52,906Zm0-383c-19,0-33.38,18.51-33.38,41.28V846.59c0,22.72,14.34,41.22,31.94,41.22h1.44c17.6,0,31.91-18.5,31.91-41.22V564.28C291.43,541.51,277.12,523,259.52,523Z"/><path class="cls-3" d="M812.72,540.17h35.45c48.17,0,87.28,43.41,87.28,97V773.77c0,53.52-39.11,96.92-87.28,96.92H812.72Z"/><path class="cls-4" d="M848.17,879.8H812.72c-4.62,0-8.38-4.09-8.38-9.11V540.17c0-5,3.76-9.1,8.38-9.1h35.45c52.73,0,95.66,47.58,95.66,106.08V773.77C943.83,832.24,900.9,879.8,848.17,879.8Zm-27.06-18.22h27.06c43.51,0,78.89-39.39,78.89-87.81V637.15c0-48.47-35.38-87.86-78.89-87.86H821.11Z"/><path class="cls-5" d="M746.08,846.59c0,27.79,18,50.33,40.33,50.33h1.43c22.31,0,40.33-22.54,40.33-50.33V564.28c0-27.85-18-50.38-40.33-50.38h-1.43c-22.26,0-40.33,22.58-40.33,50.38Z"/><path class="cls-6" d="M787.84,906h-1.43c-26.86,0-48.71-26.68-48.71-59.45V564.28c0-32.8,21.85-59.49,48.71-59.49,28.3,0,50.14,26.69,50.14,59.49V846.59C836.55,879.36,814.71,906,787.84,906Zm0-383c-19,0-33.38,18.51-33.38,41.28V846.59c0,22.72,14.34,41.22,31.95,41.22h1.43c17.62,0,32-18.5,32-41.22V564.28C819.8,541.51,805.46,523,787.84,523Z"/><path class="cls-1" d="M679.3,181.11c0,30.55-23.21,55.36-51.8,55.36H418.43c-28.63,0-51.81-24.81-51.81-55.36s23.18-55.36,51.81-55.36H627.5C656.09,125.75,679.3,150.51,679.3,181.11Z"/><path class="cls-2" d="M627.5,245.58H418.43c-33.19,0-60.19-28.94-60.19-64.47s27-64.46,60.19-64.46H627.5c33.2,0,60.18,28.91,60.18,64.46S660.7,245.58,627.5,245.58ZM418.43,134.86c-23.94,0-43.42,20.75-43.42,46.25s19.48,46.26,43.42,46.26H627.5c24,0,43.43-20.76,43.43-46.26s-19.48-46.25-43.43-46.25Z"/><path class="cls-7" d="M644.77,181.11c0,15.28-19.51,27.69-43.54,27.69H444.11c-24.05,0-43.52-12.41-43.52-27.69s19.47-27.68,43.52-27.68H601.23C625.26,153.43,644.77,165.81,644.77,181.11Z"/><path class="cls-8" d="M601.23,213.34H444.11c-27.88,0-50.57-14.46-50.57-32.23s22.69-32.23,50.57-32.23H601.23c27.9,0,50.57,14.46,50.57,32.23S629.13,213.34,601.23,213.34ZM444.11,158c-20.11,0-36.48,10.38-36.48,23.12s16.37,23.13,36.48,23.13H601.23c20.13,0,36.48-10.37,36.48-23.13S621.36,158,601.23,158Z"/><path class="cls-9" d="M767.47,827.51c0,24,8.51,43.53,19,43.53h.65c10.54,0,19.05-19.49,19.05-43.53V583.4c0-24.08-8.51-43.57-19.05-43.57h-.65c-10.52,0-19,19.53-19,43.57Z"/><path class="cls-10" d="M787.17,878.9h-.65c-12.68,0-23-23-23-51.39V583.4c0-28.36,10.32-51.44,23-51.44,13.34,0,23.65,23.08,23.65,51.44V827.51C810.17,855.86,799.86,878.9,787.17,878.9Zm0-331.19c-9,0-15.73,16-15.73,35.69V827.51c0,19.65,6.75,35.65,15.08,35.65h.65c8.33,0,15.09-16,15.09-35.65V583.4C802.26,563.71,795.5,547.71,787.17,547.71Z"/><path class="cls-9" d="M239.41,827.48c0,24,8.51,43.53,19,43.53h.66c10.53,0,19-19.49,19-43.53V583.37c0-24.08-8.51-43.55-19-43.55h-.66c-10.52,0-19,19.51-19,43.55Z"/><path class="cls-10" d="M259.12,878.89h-.66c-12.68,0-23-23.06-23-51.41V583.37c0-28.36,10.32-51.43,23-51.43,13.33,0,23.65,23.07,23.65,51.43V827.48C282.11,855.83,271.79,878.89,259.12,878.89Zm0-331.2c-9,0-15.74,16-15.74,35.68V827.48c0,19.65,6.75,35.65,15.08,35.65h.66c8.32,0,15.07-16,15.07-35.65V583.37C274.19,563.68,267.44,547.69,259.12,547.69Z"/></svg>