<svg id="Layer_1" data-name="Layer 1" xmlns="http://www.w3.org/2000/svg" viewBox="0 0 1075.94 1050"><defs><style>.cls-1{fill:#002554;}.cls-2{fill:#f4b035;}.cls-3{fill:#ffb81c;}</style></defs><title>Owl-icons-secondary-RGB-Artboard 38 copy</title><path class="cls-1" d="M780.17,827.44H318.79l-2.12-11.66a78.29,78.29,0,0,1-1.15-13c0-92,42.19-180,110.09-230.36,6.93-5.81,15.36-11.08,23.52-16.4,12.91-8.44,26.27-17,30.21-26h0a68.9,68.9,0,0,0,4.73-23.59c0-12.08-4-25.25-5-28.21-4.25-8.74-17.31-17.26-29.95-25.51-8.16-5.33-16.59-10.83-24.24-17.22-67.18-49.8-109.37-138.25-109.37-230.26a115.3,115.3,0,0,1,1.15-15.92l2.12-15.52H780.17l2.12,15.52A98,98,0,0,1,783.44,204c0,90.82-41.41,178.94-108.14,229.54a272.38,272.38,0,0,1-29.09,25c-9.42,7.22-18.31,14.17-20.38,19.45h0s-4.93,16-5.75,29.12a122.61,122.61,0,0,0,5.78,23.74c2,5.2,10.93,12.06,20.37,19.29,8.89,6.83,18.94,14.54,29.07,24.78C742,625.54,783.44,713.18,783.44,804a64.58,64.58,0,0,1-1.15,11.78ZM347.71,794.76H751.25c-1.43-71.9-38-153.39-96.23-197l-1.87-.54c-8.8-9-18.2-15.7-26.49-22-13.68-10.49-25.49-19.28-30.81-33A150.75,150.75,0,0,1,588,509.68l-.17-1.26.06-1.31c.75-18,7.36-38.82,7.64-39.7,5.64-14.6,17.45-23.65,31.12-34.14,8.29-6.35,17.69-13.56,26.5-22.61l1.87-3.3c58.2-43.65,94.8-115.92,96.23-200.9H347.71c1.35,85,38.28,158.51,97.05,202.12A248.74,248.74,0,0,0,466.71,425c16.84,11,34.26,22.78,42.05,40.45l.46,1.39c.29.82,7,20.31,7,39.57A100.56,100.56,0,0,1,508.8,543c-7.83,17.77-25.25,29.17-42.09,40.17-7.38,4.82-15,7.62-21.22,12.8C386,640.09,349.06,722.86,347.71,794.76Z"/><path class="cls-2" d="M368.2,343.73c16.28,27.95,47,71.1,71.43,89.25,26.07,21.77,52.49,41.67,60.73,48.27,18.54,14.83,23.22,17.86,40.63,19.2C560.47,502,587.75,497,606.63,479,637,456.25,640.32,451.7,662,429.46c24-18,53.61-56.57,69.65-83.94,0,0-106.07,40.47-186.64,14.29C437.86,325,368.2,343.73,368.2,343.73Z"/><path class="cls-1" d="M547.66,516.78c-2.73,0-5.37-.11-7.89-.31-22.21-1.7-30-7.16-49.45-22.66-2.18-1.75-5.64-4.43-10-7.83-12.6-9.78-31.67-24.55-51-40.67-28.49-21.1-61.6-70.43-75-93.49L364,328.21c.85-.23,21.18-5.59,55.88-5.59,41.6,0,85.36,7.36,130.08,21.9,16.4,5.32,35.49,8,56.76,8,60.69,0,118.6-21.82,119.18-22l19.59,23.14c-17,29.09-47.38,68.35-72.83,87.88l-5.91,6.08c-16.29,16.83-22.48,23.23-49.78,43.74C592.31,514.27,560.34,516.78,547.66,516.78ZM394.71,355.88c16.91,25.52,38.16,52.06,54.51,64.18,19.56,16.32,38.34,30.87,50.77,40.51,4.57,3.54,8.16,6.32,10.42,8.13,17.51,14,19,14.74,31.82,15.73,1.74.13,3.55.2,5.43.2,18.63,0,36.53-6.45,47.89-17.26l1.44-1.21c25.87-19.41,31.12-24.82,46.69-40.91l8.67-8.65c12.73-9.54,27.5-25.81,40.65-42.88-23.65,5.66-54.37,11-86.26,11-24.65,0-47.08-3.23-66.69-9.6-41.51-13.49-81.93-20.34-120.15-20.34C410.1,354.76,401.66,355.24,394.71,355.88Z"/><path class="cls-1" d="M843.93,177.6a53.52,53.52,0,0,1-53.52,53.51H296.08a53.52,53.52,0,0,1-53.52-53.51V153.89a53.52,53.52,0,0,1,53.52-53.51H790.41a53.52,53.52,0,0,1,53.52,53.51Zm-32.68-29.71a21.37,21.37,0,0,0-21.37-21.37H296.61a21.37,21.37,0,0,0-21.37,21.37v22.63a21.37,21.37,0,0,0,21.37,21.37H789.88a21.37,21.37,0,0,0,21.37-21.37Z"/><path class="cls-3" d="M817.78,174.36c0,17.18-16.18,31.1-36.15,31.1H304.86c-20,0-36.15-13.92-36.15-31.1V155.12c0-17.17,16.18-31.1,36.15-31.1H781.63c20,0,36.15,13.93,36.15,31.1Z"/><path class="cls-2" d="M762,759.86c-12.51-8.93-20.13-31.91-49.57-23.66-33.49,9.37-42.72.06-57.6-6.7s-29.47-32.15-48.22-61.61c-8.75-13.76-45.54-56.26-80.37-26.79-32.15,18.75-46.35,74.81-77.69,93.76-57.6,34.82-75-18.75-109.82,23.22-5.36,21.43-7.16,9.62-7.16,42.87,0,3.95.37,3.56,1,14.28h442C775.1,804.51,774.51,795.58,762,759.86Z"/><path class="cls-1" d="M774.51,831.3h-442L316.5,816.11c-.29-5.21-.51-7.6-.67-9.22a51.06,51.06,0,0,1-.32-5.94c0-22.9.84-27.48,4.11-35.68a74.94,74.94,0,0,0,3.53-11.09l3.23-6.37C339.27,732.27,352.59,725,368.3,725c7.48,0,14.33,1.64,21,3.23s12.7,3,19.53,3c10,0,20-3.24,31.46-10.18,12.15-7.35,22.63-24.44,32.77-41,12.23-19.95,24.86-40.55,43.93-52.22,10.69-8.68,22.49-13.09,35.08-13.09,39.45,0,67,42.6,68.16,44.41l6.16,9.74c13,20.61,26.44,41.91,35.15,45.88,2.44,1.1,4.74,2.27,7,3.42,6.86,3.5,11.4,5.8,19.35,5.8,5.53,0,12.15-1.1,20.25-3.37a59.9,59.9,0,0,1,16.06-2.35c21.15,0,32.86,13.1,40.61,21.77a50.2,50.2,0,0,0,6.58,6.64l5.83,7.77c12.47,35.64,14.15,47.33,13.37,61.56ZM347.66,799.15H757.22c-1.37-6.34-4-15.44-8.91-29.76a105.61,105.61,0,0,1-7.5-7.83c-9.47-10.59-13.39-12.85-24-9.89-11,3.07-20.42,4.57-28.92,4.57-15.66,0-25.79-5.15-33.93-9.3-1.85-.94-3.73-1.9-5.73-2.81-17.47-7.94-31.4-30-49-58l-6.09-9.63c-5.89-9.25-24.39-29.53-41-29.53-5.28,0-10.31,2.08-15.39,6.38L534.36,655c-12.77,7.44-23.53,25-33.94,42-12.14,19.79-24.7,40.26-43.53,51.65-16.49,10-32.23,14.82-48.1,14.83-10.61,0-19.69-2.18-27-3.92-5.26-1.25-9.8-2.34-13.49-2.34-2.54,0-7.09,0-15,8.61a101.21,101.21,0,0,1-3.85,11.4C348.23,780.31,347.7,781.65,347.66,799.15Z"/><rect class="cls-3" x="265.44" y="814.37" width="568.69" height="98.05" rx="37.44" ry="37.44"/><path class="cls-1" d="M853.73,872a53.51,53.51,0,0,1-53.51,53.51H305.88A53.51,53.51,0,0,1,252.37,872V848.27a53.51,53.51,0,0,1,53.51-53.51H800.22a53.51,53.51,0,0,1,53.51,53.51Zm-32.68-23.17a21.37,21.37,0,0,0-21.37-21.37H306.42a21.37,21.37,0,0,0-21.37,21.37v22.63a21.37,21.37,0,0,0,21.37,21.37H799.68a21.37,21.37,0,0,0,21.37-21.37Z"/></svg>