<svg id="Layer_1" data-name="Layer 1" xmlns="http://www.w3.org/2000/svg" viewBox="0 0 335.77 327.68"><defs><style>.cls-1{fill:#00173e;}</style></defs><title>Owl-icons-secondary-instagram-navy-RGB</title><path class="cls-1" d="M273.15,23.2A34.51,34.51,0,0,1,298.5,33.6,34.52,34.52,0,0,1,308.91,59V267.1q0,15.5-10.41,25.89a34.52,34.52,0,0,1-25.35,10.41H65q-15.49,0-25.89-10.41T28.71,267.1V59A34.55,34.55,0,0,1,39.11,33.6Q49.52,23.19,65,23.2Zm4.27,118.48H252.33a35.84,35.84,0,0,1,3.2,11.47c.35,3.74.54,7.93.54,12.55a82.84,82.84,0,0,1-6.67,33.09A80.58,80.58,0,0,1,231,225.47a89.48,89.48,0,0,1-27.75,17.88A87.71,87.71,0,0,1,169.07,250a85.71,85.71,0,0,1-33.89-6.67,90.09,90.09,0,0,1-27.48-17.88A83.74,83.74,0,0,1,89,198.79a80.05,80.05,0,0,1-6.93-33.09q0-13.87,4.27-24H59.66v118a10.44,10.44,0,0,0,3.47,8,11.79,11.79,0,0,0,8.27,3.2H266.21a11.19,11.19,0,0,0,7.74-3.2,10.47,10.47,0,0,0,3.47-8ZM169.07,108.06q-23.49,0-39.76,15.74T113,163a50.58,50.58,0,0,0,4.27,20.81,54.09,54.09,0,0,0,12,17.08,57.39,57.39,0,0,0,17.88,11.74,55.51,55.51,0,0,0,21.88,4.27,57.57,57.57,0,0,0,22.15-4.27,53.71,53.71,0,0,0,17.88-11.74,60.56,60.56,0,0,0,12-17.08A48.16,48.16,0,0,0,225.65,163a51.29,51.29,0,0,0-4.54-21.62,59.46,59.46,0,0,0-12-17.34,54,54,0,0,0-17.88-11.74A57.76,57.76,0,0,0,169.07,108.06Zm63.51-54.44q-4.28,0-8.27,4a12.23,12.23,0,0,0-4,8.81V97.38q0,4.28,4,8.27t8.27,4h32a12,12,0,0,0,9.07-4q3.74-4,3.74-8.27V66.43a12.65,12.65,0,0,0-3.74-8.81,12,12,0,0,0-9.07-4Z"/></svg>