<svg id="Layer_1" data-name="Layer 1" xmlns="http://www.w3.org/2000/svg" viewBox="0 0 335.77 327.68"><defs><style>.cls-1{fill:#fff;}</style></defs><title>Owl-icons-secondary-linked-in-white-RGB</title><path class="cls-1" d="M77.17,25.72a30.78,30.78,0,0,1,22.91,9.59,31.93,31.93,0,0,1,9.36,23.14A31.95,31.95,0,0,1,77.17,90.72a30.38,30.38,0,0,1-22.69-9.35,31.59,31.59,0,0,1-9.11-22.92,32.4,32.4,0,0,1,9.11-23.14A30,30,0,0,1,77.17,25.72ZM51,290.89v-181h52.38v181Zm130-181v8.42q15-7.48,33.67-6.55a83.9,83.9,0,0,1,33.67,8.42,66.21,66.21,0,0,1,25.49,25.72q9.58,16.83,9.59,34.61V290.89H232V180.52q0-3.75-2.8-8.89t-6.08-6.08q-8-4.22-15.43-3.27A45.84,45.84,0,0,0,194.08,166,51.18,51.18,0,0,0,181,174.9v116H128.61v-181Z"/></svg>