<svg id="Layer_1" data-name="Layer 1" xmlns="http://www.w3.org/2000/svg" viewBox="0 0 360 360"><defs><style>.cls-1{fill:#fdb71c;}.cls-2,.cls-3{fill:#2c4088;stroke:#2c4088;stroke-miterlimit:10;}.cls-2{stroke-width:1.08px;}.cls-3{stroke-width:0.92px;}</style></defs><title>Owl-icons-social-map-marker-RGB</title><polygon class="cls-1" points="360.24 -0.59 -0.32 -0.59 -0.32 312.42 142.09 312.42 179.96 350.29 217.82 312.42 360.24 312.42 360.24 -0.59"/><polygon class="cls-2" points="275.72 197.42 285.98 197.42 285.98 247.57 288.62 247.57 288.62 194.77 273.08 194.77 273.08 258.76 322.91 258.76 322.91 268.41 273.08 268.41 273.08 271.05 325.56 271.05 325.56 256.11 275.72 256.11 275.72 197.42"/><path class="cls-2" d="M77.89,274.32c-22.45,0-41.42-18.35-41.42-40.06a35.37,35.37,0,0,1,13-27.94,34.7,34.7,0,0,1,28.93-7.27c26.71,5.43,26.1,33.56,26.09,33.84A26.59,26.59,0,0,1,97,252.56a28.53,28.53,0,0,1-20.3,8.4c-14.11,0-27-13.18-27-27.64,0-15.53,11.37-26.8,27-26.8v2.6c-14.16,0-24.44,10.18-24.44,24.2,0,13.11,11.62,25,24.37,25a26.27,26.27,0,0,0,18.45-7.62,24.12,24.12,0,0,0,6.72-17.86c0-1.14.53-26.3-24-31.29a32.1,32.1,0,0,0-26.77,6.74,32.81,32.81,0,0,0-12,25.93c0,20.31,17.78,37.46,38.83,37.46,18.74,0,37.72-12.7,37.72-37,0-19.56-12.67-40.61-40.48-40.61v-2.59c29.59,0,43.07,22.39,43.07,43.2C118.2,254.4,104.35,274.32,77.89,274.32Z"/><path class="cls-2" d="M247.82,197.26v41c0,10.36-2.74,18.31-8.13,23.63-5.17,5.09-12.64,7.68-22.21,7.68s-16.89-2.57-22-7.65c-5.26-5.23-7.93-13-7.93-23.12h-2.48c0,22,12.29,33.25,32.39,33.25s32.82-11.12,32.82-33.79V194.77H233.84v44.09c0,11.86-6.1,18-16.15,18-5.67,0-10.08-2-12.85-6l-2,1.35c3.18,4.57,8.28,7.09,14.88,7.09,11.67,0,18.63-7.64,18.63-20.44v-41.6h11.5m-79.38,62c7.8.2,14.53-1.31,19.88-4.55l2.58-5a23.58,23.58,0,0,1-3.55,2.73c-4.93,3.1-11.25,4.57-18.85,4.37m.19,12.73c-9.49,0-16.89-2.57-22-7.64-5.26-5.24-7.92-13-7.92-23.12v-41.5h11.5v41.07c0,13.13,7,21,18.62,21v-2.49c-10.05,0-16.14-6.3-16.14-18.49V194.8H136.29v44c0,22,12.3,33.25,32.4,33.25,7.8,0,14.5-1.68,19.76-5.06l-1-2.28C182.57,267.91,176.29,269.54,168.69,269.54Zm32.82-74.74H185.05v44.08h2.48v-41.6H199v31.18a30.54,30.54,0,0,1-11.56,24.12l-.17.14,1.52,2,.18-.14a32.67,32.67,0,0,0,12.38-25.64Z"/><path class="cls-3" d="M224.84,113.74a24.46,24.46,0,0,1-11.43-3.07,34,34,0,0,1-7.89-5.75,1.63,1.63,0,1,1,2.34-2.27h0c.11.11,11.16,11.31,22.87,6.73,15-5.84,11.73-23.4,11.69-23.58a1.63,1.63,0,0,1,.53-1.54,1.65,1.65,0,0,1,1.61-.31c38.21,13.28,50.8-15.26,51.32-16.48a1.63,1.63,0,0,1,3,1.26,38.48,38.48,0,0,1-12.14,14.62c-13.37,9.79-29.16,8.09-40.83,4.48.37,5.74-.34,19.26-14,24.59A19.37,19.37,0,0,1,224.84,113.74Z"/><path class="cls-3" d="M137,113.74a19.45,19.45,0,0,1-7.07-1.32c-13.65-5.33-14.36-18.85-14-24.59-11.66,3.61-27.46,5.31-40.82-4.48A38.48,38.48,0,0,1,63,68.73a1.63,1.63,0,0,1,3-1.26c.52,1.22,13.11,29.76,51.32,16.48a1.64,1.64,0,0,1,2.14,1.85c-.14.72-3.23,17.76,11.69,23.58,11.71,4.58,22.76-6.62,22.87-6.73a1.63,1.63,0,1,1,2.34,2.27,34.32,34.32,0,0,1-7.89,5.75A24.47,24.47,0,0,1,137,113.74Z"/><path class="cls-3" d="M181,158.9a2.94,2.94,0,0,1-2.43-1.29c-3.63-5.37-15.47-24.05-15.47-39.15q0-1,.06-1.92c.76-11.14,9.78-16.21,17.84-16.21s17.09,5.07,17.84,16.21c.05.63.07,1.27.07,1.92,0,15.1-11.84,33.78-15.47,39.15A2.94,2.94,0,0,1,181,158.9Zm0-55.31c-9.46,0-14.14,6.61-14.59,13.17,0,.55,0,1.13,0,1.7,0,13.83,10.87,31.28,14.64,36.92,3.78-5.64,14.65-23.09,14.65-36.92,0-.57,0-1.15-.06-1.7C195.16,110.2,190.47,103.59,181,103.59Z"/><path class="cls-3" d="M181.34,91.43c-12.32,0-21.67-8.92-32.49-19.24-6.58-6.28-13.39-12.77-21.77-18.27-10.9-7.14-19.76-8.32-32.68-4.33-11.69,3.6-34.55,8.19-49.62,6.07a1.63,1.63,0,1,1,.45-3.22c14.55,2,36.8-2.45,48.21-6,13.81-4.26,23.75-2.93,35.43,4.73,8.63,5.65,15.85,12.55,22.23,18.63,10.32,9.84,19.22,18.34,30.24,18.34,9.63,0,18.54-8.32,28.85-18,6.64-6.21,14.17-13.24,23-19,11.68-7.66,21.61-9,35.42-4.73,11.41,3.52,33.67,8,48.21,6a1.63,1.63,0,0,1,.46,3.22c-15.07,2.12-37.94-2.47-49.63-6.07-12.92-4-21.77-2.81-32.67,4.33-8.57,5.62-16,12.55-22.53,18.67C201.6,82.7,192.26,91.43,181.34,91.43Z"/></svg>