<svg id="Layer_1" data-name="Layer 1" xmlns="http://www.w3.org/2000/svg" viewBox="0 0 1075.94 1050"><defs><style>.cls-1{fill:#002554;}</style></defs><title>Owl-icons-primary-RGB-SC_Icon_MarketSize_Navy_RGB</title><rect class="cls-1" x="168.05" y="139.58" width="21.39" height="85.55" transform="translate(-69.16 243.55) rotate(-59.44)"/><rect class="cls-1" x="113.55" y="337.66" width="21.39" height="85.55" transform="matrix(0.01, -1, 1, 0.01, -257.38, 500.96)"/><rect class="cls-1" x="132.92" y="569.11" width="85.55" height="21.39" transform="translate(-262.35 161.28) rotate(-29.45)"/><rect class="cls-1" x="854.72" y="543.58" width="21.39" height="85.55" transform="translate(-79.44 1033.58) rotate(-59.45)"/><rect class="cls-1" x="909.13" y="345.41" width="21.39" height="85.55" transform="translate(522.68 1304.18) rotate(-89.44)"/><rect class="cls-1" x="825.7" y="178.13" width="85.55" height="21.39" transform="translate(19.37 451.35) rotate(-29.45)"/><path class="cls-1" d="M402.77,279.08C428.27,249.65,465,230.66,504,226.39a134.12,134.12,0,0,1,57.31,4.41l8.88,2.1L626.11,94.42l-11.39-4.07c-42.46-13-85.73-17.78-129.2-13-80,11-154.84,52.82-205.3,116.17L273.64,203l124.52,83Zm-98.4-81.18c47.07-53.85,113.53-90.06,183.86-98.13a258.26,258.26,0,0,1,108.24,8.68l-39.74,99.29c-19.06-3.59-38.19-4-56.7-3.12-19.2,2.78-39.07,7.46-55.82,15.39-19.33,9.16-36.83,22.18-51.81,37.16Z"/><path class="cls-1" d="M599.93,245.65c23.94,13.91,43.94,32.83,58.12,56.09l5,7.12,136.45-58.32-4.88-10.3c-30-56.77-78.13-105-136.18-134.29l-10.1-4.68L592.4,239.75ZM659.07,134A288.29,288.29,0,0,1,770.29,242.27l-98.48,41.91c-14.24-20.08-32.35-38.32-52.49-50.87Z"/><path class="cls-1" d="M827.32,349.36c-2.1-21.09-7.39-42.25-14.58-64.09l-3.59-10.92L672.69,332.67l3,9.63c2.37,8.34,4.74,16.68,5.22,24.35C689,433.79,652.54,500,590.69,529.28a161.6,161.6,0,0,1-50.05,14.24,134.12,134.12,0,0,1-57.31-4.41L474.45,537,426.82,655a257.28,257.28,0,0,1-24.22-10.18l47.84-118.55-8.21-4c-43.47-25.17-73.78-69.18-79.07-120.32-3.19-30,1.29-60.56,15.26-87.69l4-8.21-123.9-81.73-5.29,8.82a306.29,306.29,0,0,0-37.78,186.71c10.91,101,72.45,188.51,162.12,236.63a4,4,0,0,0,.33.24c1.13.74,16,10.3,43.26,20L317.4,958.28l103.86,38.15L531.47,696.09a16.42,16.42,0,0,0,1-4.69,11,11,0,0,0,1.42-4.74,11.14,11.14,0,0,0-10.37-11.86,362.39,362.39,0,0,1-78.31-13.74l.51-1.57,39.74-99.29c19.06,3.59,38.19,4,56.7,3.12,19.19-2.78,39.07-7.46,57.11-16,69.58-33,111.36-108,102.14-184.06-1.15-5.77-1-12.14-2.78-19.2l98.48-41.9c3.45,17.29,7.59,32.68,9.15,49.3,14,122.76-51,238.73-161.83,291.22-28.35,13.42-59.14,21.7-90.47,25.49l5.22,24.35c19.19-2.78,39.75-6.85,54.46-11.6S646,667.79,646,667.79c6.44-3,22.31-11.21,28.14-15.55l18.11-11.73C786.76,576.83,840.81,464.45,827.32,349.36ZM266.18,253.85l45.91,30.31L245.9,307.63A366.4,366.4,0,0,1,266.18,253.85Zm-26.59,80.43,94.48-33.7,20.75,13.83c-2,5.7-4.07,11.4-6.78,19l-113.13,41A138.73,138.73,0,0,1,239.59,334.28Zm-3.05,83.49c-.48-7.67-1.63-13.43-2.1-21.09l108-38.52a164.46,164.46,0,0,0-.21,39.54L239.39,433.77C238.23,428,237.08,422.24,236.54,417.77Zm6.24,36.48,99.62-36.14c4.82,13.5,8.41,24.42,12.62,36.62L254.78,489.59C250.57,477.38,247,466.46,242.78,454.25Zm21.15,54.67,101.53-35.47c6.78,11,13.57,22,22.31,30.45L282.38,541.2C276.21,531.5,269.43,520.52,263.93,508.92ZM296,560l109.26-39.13c5.63,5.22,12.55,9.83,19.46,14.45L416,556.81,322.8,589.9C313.44,580.13,304.08,570.37,296,560Zm108.58,22.72L383.7,635.2c-15.12-8.61-29.57-19.12-44-29.63Zm4.15,386.64-64.24-23.6L441,683.14A382.53,382.53,0,0,0,509.8,696Z"/></svg>