<svg id="Layer_1" data-name="Layer 1" xmlns="http://www.w3.org/2000/svg" viewBox="0 0 1075.94 1050"><defs><style>.cls-1{fill:#ffb81c;}</style></defs><title>Owl-icons-primary-RGB-SC_Icon_MarketSize_Gold_RGB</title><rect class="cls-1" x="183.98" y="139.58" width="21.39" height="85.55" transform="translate(-61.33 257.28) rotate(-59.44)"/><rect class="cls-1" x="129.49" y="337.66" width="21.39" height="85.55" transform="matrix(0.01, -1, 1, 0.01, -241.6, 516.9)"/><rect class="cls-1" x="148.86" y="569.11" width="85.55" height="21.39" transform="translate(-260.29 169.12) rotate(-29.45)"/><rect class="cls-1" x="870.66" y="543.58" width="21.39" height="85.55" transform="translate(-71.6 1047.31) rotate(-59.45)"/><rect class="cls-1" x="925.07" y="345.41" width="21.39" height="85.55" transform="translate(538.47 1320.11) rotate(-89.44)"/><rect class="cls-1" x="841.63" y="178.13" width="85.55" height="21.39" transform="translate(21.43 459.19) rotate(-29.45)"/><path class="cls-1" d="M418.71,279.08C444.21,249.65,481,230.66,520,226.39a134.07,134.07,0,0,1,57.3,4.41l8.89,2.1L642.05,94.42l-11.4-4.07c-42.45-13-85.72-17.78-129.19-13-80,11-154.84,52.82-205.3,116.17L289.58,203,414.1,286ZM320.3,197.9c47.07-53.85,113.54-90.06,183.87-98.13a258.26,258.26,0,0,1,108.24,8.68l-39.75,99.29c-19-3.59-38.18-4-56.69-3.12-19.2,2.78-39.07,7.46-55.82,15.39-19.33,9.16-36.83,22.18-51.82,37.16Z"/><path class="cls-1" d="M615.86,245.65c23.94,13.91,43.95,32.83,58.12,56.09l4.95,7.12,136.46-58.32-4.88-10.3c-30-56.77-78.13-105-136.18-134.29l-10.11-4.68L608.34,239.75ZM675,134A288.29,288.29,0,0,1,786.23,242.27l-98.48,41.91c-14.24-20.08-32.35-38.32-52.49-50.87Z"/><path class="cls-1" d="M843.26,349.36c-2.1-21.09-7.39-42.25-14.58-64.09l-3.59-10.92L688.63,332.67l3,9.63c2.37,8.34,4.74,16.68,5.22,24.35C705,433.79,668.48,500,606.63,529.28a161.6,161.6,0,0,1-50,14.24,134.11,134.11,0,0,1-57.31-4.41L490.38,537,442.76,655a258.79,258.79,0,0,1-24.23-10.18l47.85-118.55-8.21-4C414.7,497.12,384.39,453.11,379.1,402c-3.19-30,1.29-60.56,15.26-87.69l4-8.21-123.9-81.73-5.29,8.82a306.36,306.36,0,0,0-37.79,186.71c10.91,101,72.46,188.51,162.12,236.63.12.08.22.17.34.24,1.13.74,16,10.3,43.25,20L333.34,958.28,437.2,996.43,547.4,696.09a15.77,15.77,0,0,0,1-4.69,11.12,11.12,0,0,0-8.94-16.6,362.27,362.27,0,0,1-78.31-13.74l.5-1.57,39.75-99.29c19.06,3.59,38.18,4,56.7,3.12,19.19-2.78,39.06-7.46,57.1-16,69.59-33,111.37-108,102.15-184.06-1.15-5.77-1-12.14-2.78-19.2L813,302.16c3.46,17.29,7.6,32.68,9.16,49.3,14,122.76-51,238.73-161.83,291.22-28.35,13.42-59.14,21.7-90.48,25.49l5.23,24.35c19.19-2.78,39.75-6.85,54.46-11.6S662,667.79,662,667.79c6.45-3,22.32-11.21,28.15-15.55l18.11-11.73C802.7,576.83,856.75,464.45,843.26,349.36ZM282.12,253.85,328,284.16l-66.19,23.47A366.4,366.4,0,0,1,282.12,253.85Zm-26.59,80.43L350,300.58l20.75,13.83c-2,5.7-4.07,11.4-6.78,19l-113.13,41A138.73,138.73,0,0,1,255.53,334.28Zm-3.05,83.49c-.48-7.67-1.63-13.43-2.11-21.09l108-38.52a164,164,0,0,0-.21,39.54L255.32,433.77C254.17,428,253,422.24,252.48,417.77Zm6.23,36.48,99.63-36.14c4.82,13.5,8.41,24.42,12.62,36.62L270.72,489.59C266.51,477.38,262.92,466.46,258.71,454.25Zm21.16,54.67L381.4,473.45c6.78,11,13.56,22,22.31,30.45L298.32,541.2C292.15,531.5,285.36,520.52,279.87,508.92ZM312,560l109.26-39.13c5.63,5.22,12.55,9.83,19.46,14.45l-8.75,21.5L338.74,589.9C329.38,580.13,320,570.37,312,560Zm108.58,22.72L399.64,635.2c-15.13-8.61-29.57-19.12-44-29.63Zm4.14,386.64-64.24-23.6,96.49-262.61A382.65,382.65,0,0,0,525.74,696Z"/></svg>