<svg id="Layer_1" data-name="Layer 1" xmlns="http://www.w3.org/2000/svg" viewBox="0 0 1075.94 1050"><defs><style>.cls-1{fill:#fff;}</style></defs><title>Owl-icons-primary-RGB-SC_Icon_MarketSize_White_RGB</title><rect class="cls-1" x="181.8" y="139.58" width="21.39" height="85.55" transform="translate(-62.4 255.4) rotate(-59.44)"/><rect class="cls-1" x="127.31" y="337.66" width="21.39" height="85.55" transform="matrix(0.01, -1, 1, 0.01, -243.76, 514.72)"/><rect class="cls-1" x="146.68" y="569.11" width="85.55" height="21.39" transform="translate(-260.57 168.04) rotate(-29.45)"/><rect class="cls-1" x="868.48" y="543.58" width="21.39" height="85.55" transform="translate(-72.67 1045.43) rotate(-59.45)"/><rect class="cls-1" x="922.89" y="345.41" width="21.39" height="85.55" transform="translate(536.31 1317.93) rotate(-89.44)"/><rect class="cls-1" x="839.45" y="178.13" width="85.55" height="21.39" transform="translate(21.14 458.12) rotate(-29.45)"/><path class="cls-1" d="M416.53,279.08c25.5-29.43,62.26-48.42,101.26-52.69a134.12,134.12,0,0,1,57.31,4.41l8.88,2.1L639.87,94.42l-11.39-4.07c-42.46-13-85.73-17.78-129.2-13-80,11-154.84,52.82-205.3,116.17L287.4,203l124.52,83Zm-98.4-81.18C365.19,144.05,431.66,107.84,502,99.77a258.26,258.26,0,0,1,108.24,8.68l-39.75,99.29c-19.05-3.59-38.18-4-56.69-3.12-19.2,2.78-39.07,7.46-55.82,15.39-19.33,9.16-36.83,22.18-51.82,37.16Z"/><path class="cls-1" d="M613.68,245.65c23.94,13.91,44,32.83,58.12,56.09l5,7.12,136.46-58.32-4.88-10.3c-30-56.77-78.13-105-136.18-134.29l-10.1-4.68L606.16,239.75ZM672.83,134A288.29,288.29,0,0,1,784.05,242.27l-98.48,41.91c-14.24-20.08-32.35-38.32-52.49-50.87Z"/><path class="cls-1" d="M841.08,349.36c-2.1-21.09-7.39-42.25-14.58-64.09l-3.59-10.92L686.45,332.67l3,9.63c2.37,8.34,4.74,16.68,5.22,24.35,8.13,67.14-28.36,133.33-90.21,162.63a161.6,161.6,0,0,1-50.05,14.24,134.11,134.11,0,0,1-57.31-4.41L488.21,537,440.58,655a258.79,258.79,0,0,1-24.23-10.18L464.2,526.29l-8.21-4c-43.47-25.17-73.78-69.18-79.07-120.32-3.19-30,1.29-60.56,15.26-87.69l4-8.21-123.9-81.73L267,233.16a306.29,306.29,0,0,0-37.78,186.71c10.9,101,72.45,188.51,162.11,236.63.12.08.22.17.34.24,1.13.74,16,10.3,43.25,20L331.16,958.28,435,996.43,545.23,696.09a16.07,16.07,0,0,0,1-4.69,11.12,11.12,0,0,0-8.94-16.6,362.39,362.39,0,0,1-78.31-13.74l.51-1.57,39.74-99.29c19.06,3.59,38.18,4,56.7,3.12,19.19-2.78,39.06-7.46,57.1-16,69.59-33,111.37-108,102.15-184.06-1.15-5.77-1-12.14-2.78-19.2l98.48-41.9c3.45,17.29,7.59,32.68,9.15,49.3,14,122.76-51,238.73-161.83,291.22-28.35,13.42-59.14,21.7-90.47,25.49l5.22,24.35c19.19-2.78,39.75-6.85,54.46-11.6s32.41-13.13,32.41-13.13c6.45-3,22.32-11.21,28.15-15.55L706,640.51C800.52,576.83,854.57,464.45,841.08,349.36ZM279.94,253.85l45.91,30.31-66.19,23.47A366.4,366.4,0,0,1,279.94,253.85Zm-26.59,80.43,94.48-33.7,20.75,13.83c-2,5.7-4.07,11.4-6.78,19l-113.13,41A138.73,138.73,0,0,1,253.35,334.28Zm-3,83.49c-.48-7.67-1.63-13.43-2.1-21.09l108-38.52A164,164,0,0,0,356,397.7L253.14,433.77C252,428,250.84,422.24,250.3,417.77Zm6.23,36.48,99.63-36.14c4.82,13.5,8.41,24.42,12.62,36.62L268.54,489.59C264.33,477.38,260.74,466.46,256.53,454.25Zm21.16,54.67,101.53-35.47c6.78,11,13.56,22,22.31,30.45L296.14,541.2C290,531.5,283.19,520.52,277.69,508.92ZM309.77,560,419,520.86c5.63,5.22,12.55,9.83,19.46,14.45l-8.75,21.5L336.56,589.9C327.2,580.13,317.84,570.37,309.77,560Zm108.58,22.72L397.46,635.2c-15.13-8.61-29.57-19.12-44-29.63Zm4.14,386.64-64.23-23.6,96.49-262.61A382.53,382.53,0,0,0,523.56,696Z"/></svg>