<svg id="Layer_1" data-name="Layer 1" xmlns="http://www.w3.org/2000/svg" viewBox="0 0 1075.94 1050"><defs><style>.cls-1{fill:#ffb81c;}.cls-2{fill:#002554;}.cls-3{fill:#fff;}.cls-4{fill:#f4b035;}</style></defs><title>Owl-icons-secondary-RGB-Artboard 38 copy 2</title><polygon class="cls-1" points="707.36 496.04 476.2 827.45 945.51 827.45 707.36 496.04"/><path class="cls-2" d="M945.51,837.28H476.2a14.74,14.74,0,0,1-12.1-23.17L695.27,482.69a14.75,14.75,0,0,1,12-6.31,14,14,0,0,1,12.08,6.14L957.48,813.93a14.74,14.74,0,0,1-12,23.35ZM504.45,807.8H916.77L707.54,516.64Z"/><polygon class="cls-1" points="397.98 397.84 116.73 827.45 687.75 827.45 397.98 397.84"/><path class="cls-2" d="M687.75,837.28h-571a14.75,14.75,0,0,1-12.34-22.82l281.25-431c2.71-4.13,7.3-8.1,12.23-8.1H398c4.89,0,9.48,3.86,12.22,7.93L700,813.58a15.38,15.38,0,0,1,.8,15.52A15.1,15.1,0,0,1,687.75,837.28ZM144,807.8H660L398.16,419.56Z"/><path class="cls-3" d="M329.41,572.52c23.24,28.34,44.19,56.93,44.19,56.93l46-44,46.05,19.77s35.64-20.45,54.16-29.23L398.72,396.41l-118,180.29C297.52,571.85,315,572.29,329.41,572.52Z"/><path class="cls-2" d="M373.6,644.2c-.43,0-.87,0-1.3-.06a14.76,14.76,0,0,1-10.6-6c-.19-.26-18.42-25.12-39.38-51-11.19-.1-24.6,0-37.55,3.7a14.75,14.75,0,0,1-16.41-22.25l118-180.29a14.77,14.77,0,0,1,12.23-6.67h.11a14.76,14.76,0,0,1,12.22,6.5L532.08,567.78a14.75,14.75,0,0,1-5.9,21.57c-17.8,8.44-52.8,28.5-53.14,28.7a14.74,14.74,0,0,1-13.16.76l-37.1-15.93-39,37.24A14.74,14.74,0,0,1,373.6,644.2Zm-55.37-86.54c3.5,0,6.88.05,10.13.1l1.29,0a14.78,14.78,0,0,1,11.17,5.39c13.44,16.39,26.21,33,34.63,44.13l34-32.47a14.74,14.74,0,0,1,16-2.89l39.3,16.88c7.76-4.38,21.25-11.93,33.52-18.4L398.9,423.05l-88.18,134.7C313.36,557.68,315.87,557.66,318.23,557.66Z"/><path class="cls-3" d="M685,605.07l24.57,30.72L737.78,621s33.17,1.23,63.89,3.69l-94.2-132.27L627.16,609.51C646.86,607.53,685,605.07,685,605.07Z"/><path class="cls-2" d="M709.53,650.53A14.7,14.7,0,0,1,698,645l-19.76-24.7c-12.11.82-35.7,2.48-49.62,3.88a14.75,14.75,0,0,1-13.63-23l80.3-117a14.76,14.76,0,0,1,12-6.4,15.1,15.1,0,0,1,12.13,6.19l94.21,132.27a14.75,14.75,0,0,1-13.18,23.25c-24-1.92-49.78-3.1-59.39-3.5l-24.77,12.93A14.67,14.67,0,0,1,709.53,650.53ZM685,590.33a14.74,14.74,0,0,1,11.51,5.53l17,21.24L731,608a15.92,15.92,0,0,1,7.38-1.66c.22,0,14.68.55,33.26,1.62L707.7,518.19l-50.81,74c14-1,26.22-1.82,27.11-1.88C684.31,590.34,684.63,590.33,685,590.33Z"/><path class="cls-2" d="M987.19,837.28H70.91c-14.78-13-5.77-29.48,7.1-29.48H986.8c8.27,0,15.29,6.76,15.13,15A14.74,14.74,0,0,1,987.19,837.28Z"/><path class="cls-4" d="M397.45,247.55s54.06-37.68,85.18-9.83c41.44,37.08,75.37-7,75.37,6.55,0,45.87,3.27,88.46,3.27,88.46s-44.23,22.94-90.09-6.55c-23.38-15-73.73,16.38-73.73,16.38Z"/><path class="cls-2" d="M402.36,357.3a14.75,14.75,0,0,1-14.74-14.74v-95a14.72,14.72,0,0,1,6.05-11.9c1.28-.94,31.76-22.93,63.17-22.93,14.87,0,27.69,4.72,38.07,14,8.63,7.72,17,11.47,25.63,11.47,8.76,0,16.4-3.78,22.54-6.82,4.92-2.43,9.19-4.53,14.25-4.53,9.49,0,16.64,7.48,16.64,17.41,0,44.85,2.6,87.12,2.63,87.54a14.74,14.74,0,0,1-7.66,13.86C567,346.73,549.3,356,523.74,356c-20.39,0-39.83-5.84-57.78-17.38-1.78-1.15-4.41-1.74-7.82-1.74-16.32,0-40,13-47.74,18.07A14.74,14.74,0,0,1,402.36,357.3Zm55.78-49.93c9.16,0,17.15,2.16,23.78,6.41,13.11,8.44,27.18,12.71,41.82,12.71A77.31,77.31,0,0,0,546.58,323c-.63-12.58-1.6-35-2-60a67.65,67.65,0,0,1-24.08,4.69c-16,0-31.2-6.38-45.28-19-4.9-4.38-10.92-6.5-18.42-6.5-15,0-31.21,8.28-39.73,13.37V317.9C429.12,312.49,444.17,307.37,458.14,307.37Z"/><rect class="cls-2" x="387.62" y="296.69" width="29.49" height="108.12"/></svg>