<svg id="Layer_1" data-name="Layer 1" xmlns="http://www.w3.org/2000/svg" viewBox="0 0 1075.94 1050"><defs><style>.cls-1{fill:#002554;}</style></defs><title>Owl-icons-primary-RGB-SC_Icon_NPS_Navy_RGB</title><path class="cls-1" d="M646.46,896.66l-.3.17-27.66-51-34.73-63.12.53.1-1.9-3.52L524.28,672.14l-1.16,0c-1.34,0-2.83.06-4.46.06-24.26,0-86.38-4.57-139.09-46.91l-.79-.63.39-.48-1.53-1.2c-25.29-19.84-49.62-50.72-68.53-87-18.15-34.79-29.43-71.4-30.93-100.46l-.09-1.79H226l.09,2a312.4,312.4,0,0,0,82.08,197.32L327,651.83c7.45,6.85,15.42,13.47,23.64,19.65l2.87,2.15.5.36c4.83,3.52,9.76,6.92,14.66,10.09l2.29,1.44L296.21,809.29l4.05-.66c4.13-.68,73-12.82,86.78-15.24l.85-.15,29.27,86.84,96.66-164.92,13.34,23.35L414,930.42l-.75-1.92c-8.67-22.28-37.26-95.74-40.88-105.83a4.46,4.46,0,0,0-4.28-3,5.52,5.52,0,0,0-1,.09c-10.25,1.87-81.8,13.34-112.08,18.18l-2.14.34,88.58-145.75-1.39-1a337.42,337.42,0,0,1-99.41-116.18A334.59,334.59,0,0,1,774.53,185.13a334.57,334.57,0,0,1,7.71,465.18,338.66,338.66,0,0,1-42.2,38.1l-1.33,1,12,20.75L834.5,848.68l-2.33-.56c-25.57-6.18-109.83-26.52-120.66-28.49a6.12,6.12,0,0,0-1-.09,4.31,4.31,0,0,0-4.25,3c-3.79,10.62-33.47,91.63-39.39,107.76l-.75,2.06Zm9.91-24,3.1,4.16,2.11,2.83,31.14-87.4.84.16c8.23,1.59,80.51,15.57,84.75,16.35l4.07.75L706.63,680l23.67-12.29.14-.11c6.4-5,12.68-10.34,18.65-15.83l18.8-18.7A312.44,312.44,0,0,0,850,435.77V409.52a312,312,0,0,0-81.7-198.58l-1.34-1.46L730.1,246.31l1.21,1.34a258.71,258.71,0,0,1,52.44,88.57l.31.9L593.75,413.9l-23.48,5.43-.12-1.12a32.34,32.34,0,1,0-5.27,21.49l.15-.21.23-.12c2.59-1.34,14.09-3,24.33-4l1.47-.15-.4,1.42A54.78,54.78,0,1,1,584,392.06l.86,1.33,169.5-70.63-.84-1.8A237.91,237.91,0,0,0,300.09,421.79c0,58.58,41.77,144.05,91.22,186.64,47.83,39,105.48,43.25,128,43.25,6.34,0,9.86-.32,9.89-.33l6.74-.63L656.28,872.5ZM278.57,411.53l.07-1.83a256.41,256.41,0,0,1,66.09-162l1.2-1.34L309.1,209.48l-1.34,1.46a312.35,312.35,0,0,0-81.7,198.62l-.08,2Zm83-181.13,1.34-1.22A260.34,260.34,0,0,1,525,161.81l1.8-.09V109.61l-2,.08A312.39,312.39,0,0,0,326.2,192.23l-1.45,1.34ZM551,161.81A260.31,260.31,0,0,1,713,229.18l1.34,1.22,36.92-36.83-1.45-1.34a312.28,312.28,0,0,0-198.71-82.54l-2-.08v52.12Z"/><path class="cls-1" d="M538,88.14A333.57,333.57,0,0,1,781.51,649.63a337.51,337.51,0,0,1-42.08,38l-2,1.54,12.4,21.51,82.6,136.49c-25-6-109.8-26.51-120.72-28.51a7.17,7.17,0,0,0-1.19-.1,5.33,5.33,0,0,0-5.2,3.7C701.67,832.35,674,908,665.92,930l-19.06-34.65-.3.16-27.18-50.11-33.7-61.26.5.1-2.9-5.38-58.41-107.7-1.77,0c-1.33,0-2.82.06-4.44.06-24.34,0-86.06-4.6-138.46-46.69l.4-.48-2.34-1.84c-25.18-19.76-49.42-50.52-68.26-86.62-18.09-34.67-29.32-71.13-30.82-100.05L279,432.8H224.93l.13,3a313.41,313.41,0,0,0,82.34,198l18.86,18.77c7.51,6.9,15.5,13.54,23.75,19.74h0l3.38,2.52v0c4.86,3.55,9.79,7,14.71,10.13l1.46.92L294.24,810.62l6.18-1c4.1-.67,72.59-12.74,86.79-15.24l29.7,88.11,96.9-165.33L526,738.5,414.2,928.14C406,907,376.94,832.43,373.32,822.33a5.42,5.42,0,0,0-5.22-3.7,5.86,5.86,0,0,0-1.17.11c-10.68,1.94-89.26,14.52-112.06,18.17L342.8,692.22l-2.13-1.57a336.31,336.31,0,0,1-99.11-115.83A333.62,333.62,0,0,1,538,88.14M714.39,231.78l38.34-38.24-2.22-2a313.35,313.35,0,0,0-199.35-82.8l-3-.12v54.11l2.76.13a259.28,259.28,0,0,1,161.44,67.11l2,1.86m-352.84,0,2-1.86A259.32,259.32,0,0,1,525,162.81l2.75-.13V108.57l-3,.13a313.27,313.27,0,0,0-199.26,82.8l-2.21,2,38.24,38.24m157.8,420.9h0c6.37,0,9.95-.33,10-.33l6.08-.57L655.44,873l.12.17c2,2.64,3.1,4.14,3.1,4.15l3.23,4.34,31.49-88.36c14,2.7,80.66,15.6,84.75,16.36l6.21,1.14L708,680.45l22.82-11.86.22-.16c6.41-5,12.71-10.38,18.71-15.89l18.82-18.72,0-.05A313.41,313.41,0,0,0,851,435.82v-26.3a313.05,313.05,0,0,0-82-199.26L767,208l-38.24,38.24,1.84,2a257.4,257.4,0,0,1,52.24,88.22l-189.35,76.4-22.3,5.16a33.33,33.33,0,1,0-5.43,22.16c2.34-1.21,13.41-2.86,24-3.93a53.76,53.76,0,1,1-6.55-43.73l1.31,2,171.24-71.35-1.28-2.74A238.91,238.91,0,0,0,299.09,421.79c0,58.83,41.93,144.65,91.57,187.4,48.1,39.25,106,43.49,128.69,43.49M224.94,412.53h54.6l.1-2.79a255.4,255.4,0,0,1,65.83-161.42l1.84-2L309.07,208l-2,2.23a313.3,313.3,0,0,0-82,199.25l-.12,3M538,86.14a335.69,335.69,0,0,0-298.19,489.6,338.5,338.5,0,0,0,99.7,116.53l.66.48-87,143.12-2.25,3.7,4.28-.68c23.62-3.78,101.51-16.26,112.1-18.19a4.43,4.43,0,0,1,.81-.07,3.42,3.42,0,0,1,3.31,2.3l0,0v0c3.62,10.1,32.21,83.57,40.89,105.85l1.5,3.84,2.09-3.55L527.73,739.51l.59-1-.58-1-12.2-21.35-1.71-3-1.75,3L417.41,877.68l-28.3-83.95-.55-1.63-1.69.3c-13.78,2.43-82.71,14.58-86.77,15.24l-1.91.31,73.08-121.07,1-1.69-1.67-1-1.46-.92c-4.85-3.14-9.77-6.53-14.58-10.05l-1.24-.9L351.57,671l-.36-.27c-8.19-6.15-16.12-12.74-23.56-19.58l-18.81-18.72a311.42,311.42,0,0,1-81.78-196.65l-.05-.93h50.13l0,.84c1.51,29.2,12.83,66,31.05,100.87,19,36.35,43.4,67.35,68.8,87.28l.72.56-.39.47,1.58,1.27c53,42.53,115.35,47.13,139.72,47.13,1.52,0,3,0,4.49-.06h.54l57.84,106.63.89,1.66-.55-.11,2.06,3.74,33.69,61.26,27.18,50.1,1,1.75.31-.16,18.1,32.9,2.12,3.85,1.51-4.12c8.33-22.72,35.76-97.61,39.38-107.73v0l0,0a3.33,3.33,0,0,1,3.29-2.3,5.12,5.12,0,0,1,.85.07c10.81,2,95,22.3,120.59,28.48l4.67,1.13-2.48-4.11L751.51,709.63l-11.49-20,.62-.48A336.13,336.13,0,0,0,873.52,421.69,335.55,335.55,0,0,0,538,86.14Zm12.18,74.63V110.65l.93,0A311.31,311.31,0,0,1,749.15,193l.69.64L714.33,229l-.63-.57A261.32,261.32,0,0,0,551,160.81l-.85,0Zm-224,32.83.69-.63a311.32,311.32,0,0,1,198-82.28l.93,0v50.12l-.85,0a261.41,261.41,0,0,0-162.7,67.63l-.63.58L326.19,193.6ZM392,607.66c-49.26-42.43-90.86-127.55-90.86-185.87A236.92,236.92,0,0,1,752.6,321.39l.39.84L585.23,392.14l-.41-.62a55.71,55.71,0,1,0,6.8,45.35l.8-2.83-2.93.3c-2.12.21-20.88,2.17-24.69,4.14l-.46.24-.29.43a31.39,31.39,0,1,1,5.11-20.84l.24,2.25,2.2-.51,22.3-5.16.15,0,.15-.06,189.35-76.4,1.77-.71-.63-1.8A259.44,259.44,0,0,0,732.05,247l-.57-.63,35.42-35.42.63.69A311,311,0,0,1,849,409.56v26.21a311.4,311.4,0,0,1-81.81,196.65h0L748.39,651.1c-5.95,5.46-12.2,10.76-18.57,15.75l-.06.06L707.1,678.67l-1.87,1,1.06,1.82,74.12,126.62-1.91-.35c-4.09-.75-71.31-13.75-84.74-16.35l-1.69-.33-.58,1.62-30.23,84.84-1-1.35L657.16,872l0,0L537.18,650.82l-.63-1.16-1.32.13-6.08.57s-3.57.32-9.8.32h0c-22.45,0-79.81-4.2-127.4-43ZM227,410.53l0-.93a311.33,311.33,0,0,1,81.44-198l.63-.69,35.42,35.42L344,247a257.39,257.39,0,0,0-66.34,162.69l0,.86Z"/></svg>