<svg id="Layer_1" data-name="Layer 1" xmlns="http://www.w3.org/2000/svg" viewBox="0 0 335.77 327.68"><defs><style>.cls-1{fill:#fff;}</style></defs><title>Owl-icons-secondary-RGB-phone</title><path class="cls-1" d="M247.59,303.4c-1.81-.36-4-.73-6.52-1.09a17.3,17.3,0,0,1-7.61-3.26q-69.59-29.9-119-78.81T35.62,100.66q-9.78-23.91-.55-42.39t33.7-26.09a22.52,22.52,0,0,1,16.85,0q4.89,1.64,13.32,10.32a181.53,181.53,0,0,1,16.3,19.57,250.89,250.89,0,0,1,13.86,21.2q6,10.33,6,15.76.54,8.16-4.07,13A99.84,99.84,0,0,1,121,121.32q-10.87,7.61-11.68,16t3.53,18.75A115.69,115.69,0,0,0,139.43,195a132.56,132.56,0,0,0,39.68,25.82q8.14,4.35,15.49,3t13.31-9.51q9.79-15.21,21.47-15.49t25.82,9q6.53,4.89,13,9.51t13.59,9.51q3.81,3.26,8.43,6.79a45.73,45.73,0,0,1,7.88,7.61,19.74,19.74,0,0,1,4.08,9.51q.81,5.45-1.91,12.5a57.78,57.78,0,0,1-8.15,14.95,67.42,67.42,0,0,1-12.77,13.05,63.79,63.79,0,0,1-15.49,9A43.54,43.54,0,0,1,247.59,303.4ZM174.76,20.22A125.9,125.9,0,0,1,225.31,33,147.67,147.67,0,0,1,267.43,63.7,142.53,142.53,0,0,1,296,107.18a128.85,128.85,0,0,1,10.33,50.55c0,4-.09,7.88-.27,11.69s-2.63,5.7-7.34,5.7-7.06-2.08-7.06-6.25-.19-8.23-.55-12.23q-3.81-27.7-12.23-48.64A104.63,104.63,0,0,0,256,72.67,112.29,112.29,0,0,0,221,49.3q-20.65-9-48.37-13.32a52,52,0,0,1-5.44-.27A43.89,43.89,0,0,1,162,34.9a6.62,6.62,0,0,1-3.81-2.18,4.92,4.92,0,0,1-.81-4.35q0-4.89,1.9-6.79a7.34,7.34,0,0,1,4.62-2.17,20.62,20.62,0,0,1,5.71.27A29.48,29.48,0,0,0,174.76,20.22Zm94,125.55a87.72,87.72,0,0,0,.54,9q.54,5.17-5.43,5.71-4.36.54-6.25-.82a7.35,7.35,0,0,1-2.72-3.53,10.64,10.64,0,0,1-.54-4.89,18.8,18.8,0,0,0-.28-5.44,168.87,168.87,0,0,0-7.88-29.35A60.2,60.2,0,0,0,233.46,96a65.37,65.37,0,0,0-20.11-13.86,178.16,178.16,0,0,0-28.81-9.78q-6-1.08-11.41-1.9t-4.35-7.88q1.64-7.07,7.07-6.8c3.61.19,7.24.46,10.87.82A92.56,92.56,0,0,1,218.78,67a101.18,101.18,0,0,1,26.37,20.11,94.06,94.06,0,0,1,17.66,27.18A72.94,72.94,0,0,1,268.79,145.77Zm-34.24-8.15a24.16,24.16,0,0,1-1.09,7.61q-1.1,3.27-6.52,4.35A4.55,4.55,0,0,1,221.5,148a13.76,13.76,0,0,1-2.72-7.07q-2.17-27.72-30.43-33.15a52.15,52.15,0,0,1-7.61-2.45q-3.27-1.35-1.09-6.79c1.44-2.9,3-4.53,4.62-4.89a29.69,29.69,0,0,1,6.25-.55A30.51,30.51,0,0,1,206,96.31a49.05,49.05,0,0,1,14.13,10.33,59.58,59.58,0,0,1,10.33,14.68A36.13,36.13,0,0,1,234.55,137.62Z"/></svg>