<svg id="Layer_1" data-name="Layer 1" xmlns="http://www.w3.org/2000/svg" viewBox="0 0 1075.94 1050"><defs><style>.cls-1{fill:#002554;}.cls-2{fill:#ffb81c;}</style></defs><title>Owl-icons-secondary-RGB-pillars-diamond</title><path class="cls-1" d="M805.93,371.34l-90.14-68.73h0a15.58,15.58,0,0,0-5.93-5.29l-90.94-47.24a16.65,16.65,0,0,0-7.46-1.81h-182a16.61,16.61,0,0,0-7.45,1.81l-90.94,47.24a15,15,0,0,0-3.62,2.61c-.14.14-.36.29-.51.43l-87.17,71.56a15.76,15.76,0,0,0-4.63,6.29h0a16,16,0,0,0,.43,17.36L508.08,801.15a16.09,16.09,0,0,0,26.77,0L806.08,397.38h0a16.28,16.28,0,0,0,6.51-14.69A17.16,17.16,0,0,0,805.93,371.34ZM436.09,375H601.26a.08.08,0,0,1,.08.08l31.32,64.82c0,.07,0,.14-.07.14H407.3c-.07,0-.07-.07-.07-.14L436,375C436,375,436,375,436.09,375Zm198.24,97.38L521.39,748c0,.07-.14.07-.14,0L406.65,472.33c0-.07,0-.14.07-.14H634.33A.1.1,0,0,1,634.33,472.33Zm-264.58-4.77,76,182.75c.07.07-.08.14-.15.07L296,427.84c-.07-.07,0-.14.07-.14l73.65,39.86Zm301.4.07,74.66-38.78c.08-.07.15.07.08.15L595.19,653.42c-.08.07-.22,0-.15-.07l76.11-185.72Zm-5.5-33.57L632.73,366v-.14L699.8,331h.07l66.42,50.64c.07.07.07.15,0,.15L665.72,434.06C665.72,434.13,665.72,434.06,665.65,434.06ZM433.42,280.47H607.56l59.76,31c.07,0,.07.14,0,.14l-59.76,31H433.34l-59.75-31c-.08,0-.08-.14,0-.14l59.83-31ZM340.6,330.82l64.75,33.64c.07,0,.07.08.07.08l-30.6,68.94c0,.08-.08.08-.15.08l-95.79-51.88c-.07,0-.07-.07,0-.14l61.57-50.72Z"/><path class="cls-2" d="M601.26,375H436.09c-.07,0-.07,0-.07.08l-28.79,64.82c0,.07,0,.14.07.14H632.59c.07,0,.07-.07.07-.14L601.34,375A.08.08,0,0,0,601.26,375Z"/><path class="cls-2" d="M634.33,472.19H406.72c-.07,0-.07.07-.07.14L521.25,748c0,.07.14.07.14,0L634.33,472.33A.1.1,0,0,0,634.33,472.19Z"/><path class="cls-2" d="M369.75,467.56,296.1,427.69a.09.09,0,0,0-.07.15L445.57,650.38c.07.07.22,0,.15-.07Z"/><path class="cls-2" d="M745.81,428.85l-74.66,38.78L595,653.35c-.07.07.07.14.15.07L745.89,429C746,428.92,745.89,428.78,745.81,428.85Z"/><path class="cls-2" d="M766.29,381.68,699.87,331h-.07l-67.07,34.8V366l32.92,68.08c.07,0,.07.07.07,0l100.57-52.23C766.36,381.83,766.36,381.75,766.29,381.68Z"/><path class="cls-2" d="M433.34,342.69H607.56l59.76-31c.07,0,.07-.14,0-.14l-59.76-31H433.42l-59.83,31c-.08,0-.08.14,0,.14Z"/><path class="cls-2" d="M374.82,433.48l30.6-68.94s0-.08-.07-.08L340.6,330.82h-.15l-61.57,50.72c-.07.07-.07.14,0,.14l95.79,51.88C374.74,433.56,374.82,433.56,374.82,433.48Z"/></svg>