<svg id="Layer_1" data-name="Layer 1" xmlns="http://www.w3.org/2000/svg" viewBox="0 0 1075.94 1050"><defs><style>.cls-1{fill:#ffb81c;}.cls-2{fill:#002554;}</style></defs><title>Owl-icons-secondary-RGB-pillars-lightbulb</title><path class="cls-1" d="M506.49,188.82c-111.29,0-201.52,85.49-201.52,191,0,84.13,80.69,178.14,80.69,261.6H627.32c0-87.07,80.69-177.47,80.69-261.6C708,274.31,617.78,188.82,506.49,188.82Z"/><path class="cls-2" d="M598.26,789.08c0,33.09-41.09,59.91-91.78,59.91s-91.79-26.82-91.79-59.91,41.1-59.91,91.79-59.91S598.26,756,598.26,789.08Z"/><path class="cls-2" d="M506.49,863.68c-60.16,0-107.29-32.78-107.29-74.6s47.13-74.6,107.29-74.6,107.27,32.77,107.27,74.6S566.64,863.68,506.49,863.68Zm0-119.83c-41.37,0-76.3,20.71-76.3,45.23s34.93,45.23,76.3,45.23,76.28-20.71,76.28-45.23S547.83,743.85,506.49,743.85Z"/><path class="cls-1" d="M650.17,721.33c0-14.66-12.66-26.65-28.13-26.65,15.47,0,28.13-12,28.13-26.66S637.51,641.38,622,641.38H390.94c-15.47,0-28.12,12-28.12,26.64s12.65,26.66,28.12,26.66c-15.47,0-28.12,12-28.12,26.65S375.47,748,390.94,748c-15.47,0-28.12,12-28.12,26.66s12.65,26.65,28.12,26.65H622c15.47,0,28.13-12,28.13-26.65S637.51,748,622,748C637.51,748,650.17,736,650.17,721.33Z"/><path class="cls-2" d="M723.52,379.78c0-113.39-97.37-205.65-217-205.65s-217,92.26-217,205.65c0,45.18,21.2,91.92,41.73,137.12,18.44,40.69,35.77,79.26,38.42,115.29-13.25,7.1-22.31,20.42-22.31,35.85a39.79,39.79,0,0,0,10.55,26.65,38.92,38.92,0,0,0,0,53.29,39.73,39.73,0,0,0-10.55,26.64c0,22.81,19.57,41.35,43.62,41.35H622c24.05,0,43.62-18.54,43.62-41.35A39.74,39.74,0,0,0,655.1,748a38.9,38.9,0,0,0,0-53.29A39.8,39.8,0,0,0,665.66,668c0-15.43-9.06-28.75-22.3-35.85,2.65-38.22,21-78.72,39-118C702.61,470.11,723.52,424.54,723.52,379.78ZM481.57,474.25h42c-2.21,54.58,10.61,120.18,17.9,152.45H463.67C471,594.43,483.78,528.83,481.57,474.25Zm-37.3,181.82H622c7,0,12.63,5.36,12.63,12S629,680,622,680H390.94c-7,0-12.63-5.38-12.63-12s5.66-12,12.63-12Zm190.4,65.26c0,6.59-5.66,12-12.63,12H390.94c-7,0-12.63-5.38-12.63-12s5.66-12,12.63-12H622C629,709.37,634.67,714.74,634.67,721.33ZM622,786.6H390.94c-7,0-12.63-5.37-12.63-12s5.66-12,12.63-12H622c7,0,12.63,5.36,12.63,12S629,786.6,622,786.6ZM612.5,626.7H573.25c-10.65-44.89-20.46-106.61-18.74-152.45H583c26.24,0,47.58-20.23,47.58-45.09S609.19,384.08,583,384.08c-15.8,0-29.38,6.3-39.25,18.19-8.67,10.47-14.07,25.32-17.13,42.61h-48c-3.05-17.29-8.46-32.14-17.13-42.61-9.87-11.89-23.45-18.19-39.25-18.19-26.23,0-47.56,20.22-47.56,45.08S396,474.25,422.2,474.25h28.42c1.71,45.82-8.07,107.55-18.71,152.45H400.43c-3.87-40.12-22.6-81.37-40.75-121.4-19.28-42.47-39.21-86.39-39.21-125.52,0-97.2,83.45-176.28,186-176.28s186,79.08,186,176.28c0,38.65-18.73,79.48-38.56,122.7C635.42,543,616.29,584.69,612.5,626.7ZM557.8,444.88c2.2-10.37,5.55-18.77,10.27-24.47a17.9,17.9,0,0,1,14.88-7c9.15,0,16.59,7.06,16.59,15.71S592.1,444.88,583,444.88Zm-110.45,0H422.2c-9.14,0-16.57-7.05-16.57-15.72s7.43-15.71,16.57-15.71a17.9,17.9,0,0,1,14.88,7C441.8,426.11,445.15,434.51,447.35,444.88Z"/></svg>