<svg id="Layer_1" data-name="Layer 1" xmlns="http://www.w3.org/2000/svg" viewBox="0 0 1075.94 1050"><defs><style>.cls-1{fill:#ffb81c;}.cls-2{fill:#002554;}</style></defs><title>Owl-icons-secondary-RGB-pillars-key</title><path class="cls-1" d="M606.67,522.35a185.68,185.68,0,0,0,11.08-32.73,187.75,187.75,0,0,0,5.42-44.19c0-104.36-84.88-189.27-189.25-189.27S244.66,341.07,244.66,445.43s84.92,189.26,189.26,189.26a193.95,193.95,0,0,0,75.57-15.84L533,642.33l82.41,82.4h53a15.71,15.71,0,0,1,15.71,15.71V782.3h43.82A15.68,15.68,0,0,1,743.62,798v41.86h87.65V746.94L630.16,545.82ZM433.92,535.29a89.86,89.86,0,1,1,89.85-89.86A90,90,0,0,1,433.92,535.29Z"/><path class="cls-2" d="M433.92,355.57a89.86,89.86,0,1,0,89.85,89.86A90,90,0,0,0,433.92,355.57Zm0,148.32a58.47,58.47,0,1,1,58.46-58.46A58.53,58.53,0,0,1,433.92,503.89Z"/><path class="cls-2" d="M861.56,734.71c0-.08,0-.17-.07-.24a15.74,15.74,0,0,0-3.42-5.13h0L643.32,514.57a219.35,219.35,0,0,0,11.25-69.14c0-121.67-99-220.66-220.65-220.66s-220.65,99-220.65,220.66,99,220.65,220.65,220.65a219,219,0,0,0,67.69-10.73l96.17,96.16v0a16.22,16.22,0,0,0,5.14,3.42c.07,0,.16,0,.25.07a15.51,15.51,0,0,0,5.73,1.11h43.81V798a15.7,15.7,0,0,0,15.69,15.7h43.83v41.87a15.71,15.71,0,0,0,15.7,15.69H847a15.69,15.69,0,0,0,15.69-15.69V740.44a15.06,15.06,0,0,0-.29-2.92A14.88,14.88,0,0,0,861.56,734.71ZM831.27,839.85H743.62V798a15.68,15.68,0,0,0-15.69-15.69H684.11V740.44a15.71,15.71,0,0,0-15.71-15.71h-53L533,642.33l-23.49-23.48a193.95,193.95,0,0,1-75.57,15.84c-104.34,0-189.26-84.9-189.26-189.26s84.92-189.27,189.26-189.27,189.25,84.91,189.25,189.27a187.75,187.75,0,0,1-5.42,44.19,185.68,185.68,0,0,1-11.08,32.73l23.49,23.47L831.27,746.94Z"/></svg>