<svg id="Layer_1" data-name="Layer 1" xmlns="http://www.w3.org/2000/svg" viewBox="0 0 1075.94 1050"><defs><style>.cls-1{fill:none;stroke:#fff;stroke-linecap:round;stroke-linejoin:round;stroke-width:21px;}.cls-2{fill:#fff;}</style></defs><title>Owl-icons-primary-RGB-SC_Icon_Positioning_White_RGB</title><path class="cls-1" d="M530.6,563.22V959.91H493.74V71.13H530.6V483.78h484.53v31.74H804.93M449.48,483.78H60.81v31.74h665"/><path class="cls-2" d="M384,378.15A20,20,0,1,1,363.9,398.2,20.07,20.07,0,0,1,384,378.15m0-22.52a42.57,42.57,0,1,0,42.57,42.57A42.57,42.57,0,0,0,384,355.63Z"/><path class="cls-2" d="M675.56,702.08a20,20,0,1,1-20,20,20.07,20.07,0,0,1,20-20m0-22.53a42.58,42.58,0,1,0,42.57,42.57,42.57,42.57,0,0,0-42.57-42.57Z"/><path class="cls-2" d="M763.49,505.18a20,20,0,1,1-20,20.05,20.06,20.06,0,0,1,20-20.05m0-22.52a42.57,42.57,0,1,0,42.57,42.57,42.57,42.57,0,0,0-42.57-42.57Z"/><path class="cls-2" d="M657.48,346.94a.6.6,0,0,1,.59.59.59.59,0,0,1-.59.59.58.58,0,0,1-.59-.59.59.59,0,0,1,.59-.59m0-42a42.57,42.57,0,1,0,42.57,42.57A42.57,42.57,0,0,0,657.48,305Z"/><path class="cls-2" d="M270.3,575.32a20,20,0,1,1-20.05,20,20.06,20.06,0,0,1,20.05-20m0-22.53a42.58,42.58,0,1,0,42.57,42.57,42.57,42.57,0,0,0-42.57-42.57Z"/><path class="cls-2" d="M319.14,266.62a20,20,0,1,1-20,20,20.06,20.06,0,0,1,20-20m0-22.53a42.57,42.57,0,1,0,42.58,42.57,42.57,42.57,0,0,0-42.58-42.57Z"/></svg>