<svg id="Layer_1" data-name="Layer 1" xmlns="http://www.w3.org/2000/svg" viewBox="0 0 1075.94 1050"><defs><style>.cls-1{fill:none;stroke:#ffb81c;stroke-linecap:round;stroke-linejoin:round;stroke-width:21px;}.cls-2{fill:#ffb81c;}</style></defs><title>Owl-icons-primary-RGB-SC_Icon_Positioning_Gold_RGB</title><path class="cls-1" d="M525.49,563.22V959.91H488.63V71.13h36.86V483.78H1010v31.74H799.83M444.38,483.78H55.71v31.74h665"/><path class="cls-2" d="M378.84,378.15a20,20,0,1,1-20,20.05,20.07,20.07,0,0,1,20-20.05m0-22.52a42.57,42.57,0,1,0,42.57,42.57,42.57,42.57,0,0,0-42.57-42.57Z"/><path class="cls-2" d="M670.45,702.08a20,20,0,1,1-20,20,20.06,20.06,0,0,1,20-20m0-22.53A42.58,42.58,0,1,0,713,722.12a42.57,42.57,0,0,0-42.58-42.57Z"/><path class="cls-2" d="M758.38,505.18a20,20,0,1,1-20,20.05,20.06,20.06,0,0,1,20-20.05m0-22.52A42.57,42.57,0,1,0,801,525.23a42.57,42.57,0,0,0-42.57-42.57Z"/><path class="cls-2" d="M652.37,346.94a.6.6,0,0,1,.59.59.59.59,0,0,1-.59.59.58.58,0,0,1-.59-.59.59.59,0,0,1,.59-.59m0-42a42.57,42.57,0,1,0,42.57,42.57A42.57,42.57,0,0,0,652.37,305Z"/><path class="cls-2" d="M265.19,575.32a20,20,0,1,1-20,20,20.07,20.07,0,0,1,20-20m0-22.53a42.58,42.58,0,1,0,42.57,42.57,42.57,42.57,0,0,0-42.57-42.57Z"/><path class="cls-2" d="M314,266.62a20,20,0,1,1-20.05,20,20.06,20.06,0,0,1,20.05-20m0-22.53a42.57,42.57,0,1,0,42.57,42.57A42.57,42.57,0,0,0,314,244.09Z"/></svg>