<svg id="Layer_1" data-name="Layer 1" xmlns="http://www.w3.org/2000/svg" viewBox="0 0 1075.94 1050"><defs><style>.cls-1{fill:none;stroke:#002554;stroke-linecap:round;stroke-linejoin:round;stroke-width:21px;}.cls-2{fill:#002554;}</style></defs><title>Owl-icons-primary-RGB-SC_Icon_Positioning_Navy_RGB</title><path class="cls-1" d="M539.56,563.22V959.91H502.7V71.13h36.86V483.78h484.52v31.74H813.89M458.44,483.78H69.77v31.74h665"/><path class="cls-2" d="M392.91,378.15a20,20,0,1,1-20.05,20.05,20.07,20.07,0,0,1,20.05-20.05m0-22.52a42.57,42.57,0,1,0,42.57,42.57,42.57,42.57,0,0,0-42.57-42.57Z"/><path class="cls-2" d="M684.52,702.08a20,20,0,1,1-20,20,20.07,20.07,0,0,1,20-20m0-22.53a42.58,42.58,0,1,0,42.57,42.57,42.57,42.57,0,0,0-42.57-42.57Z"/><path class="cls-2" d="M772.45,505.18a20,20,0,1,1-20.05,20.05,20.06,20.06,0,0,1,20.05-20.05m0-22.52A42.57,42.57,0,1,0,815,525.23a42.57,42.57,0,0,0-42.57-42.57Z"/><path class="cls-2" d="M666.43,346.94a.59.59,0,0,1,.59.59.58.58,0,0,1-.59.59.59.59,0,0,1-.59-.59.6.6,0,0,1,.59-.59m0-42A42.57,42.57,0,1,0,709,347.53,42.57,42.57,0,0,0,666.43,305Z"/><path class="cls-2" d="M279.26,575.32a20,20,0,1,1-20.05,20,20.06,20.06,0,0,1,20.05-20m0-22.53a42.58,42.58,0,1,0,42.57,42.57,42.57,42.57,0,0,0-42.57-42.57Z"/><path class="cls-2" d="M328.1,266.62a20,20,0,1,1-20,20,20.06,20.06,0,0,1,20-20m0-22.53a42.57,42.57,0,1,0,42.58,42.57,42.57,42.57,0,0,0-42.58-42.57Z"/></svg>