<svg id="Layer_1" data-name="Layer 1" xmlns="http://www.w3.org/2000/svg" viewBox="0 0 1075.94 1050"><defs><style>.cls-1{fill:#fff;}</style></defs><title>Owl-icons-primary-RGB-SC_Icon_Pricing_White_RGB</title><path class="cls-1" d="M1033.75,924.48H65.42v-89H87.86V902h923.45V172.42H87.86V715.31L118.23,689l.35-67,72.67-63a85.9,85.9,0,1,1,171-16.66l90,51.65a85.79,85.79,0,0,1,106.27-19.12L762,383.72a85.89,85.89,0,1,1,50.41,51.11L601.31,633A85.9,85.9,0,1,1,432.22,663L337,610.39a85.74,85.74,0,0,1-106.68,11.33l-89.71,77.62-.49,94.25v56H961.35V219.64H141V547.85H118.56V197.2H983.79V872H117.69V793.53l.39-74.68L65.42,764.41V150h968.33ZM517.16,586.76a63.45,63.45,0,1,0,63.45,63.45A63.52,63.52,0,0,0,517.16,586.76ZM141,632.33l-.19,37.19L213,607a85.83,85.83,0,0,1-15.34-23.83Zm209.94-39.9,81.31,45a85.15,85.15,0,0,1,7.62-24.56l-79.23-45.46A85.44,85.44,0,0,1,350.91,592.43ZM276.6,485.94a63.45,63.45,0,1,0,63.45,63.45A63.52,63.52,0,0,0,276.6,485.94ZM576.84,588.49A86.39,86.39,0,0,1,593,610L791.66,423.5a86.57,86.57,0,0,1-18.84-19.18ZM842.73,291a63.45,63.45,0,1,0,63.46,63.45A63.52,63.52,0,0,0,842.73,291Zm-547.21,223a29.47,29.47,0,0,0-11.66-5.81V494.31H270.07v13.94a29.43,29.43,0,0,0-11.7,5.84,22.74,22.74,0,0,0,0,35.36,27.9,27.9,0,0,0,18.95,6.83,16.13,16.13,0,0,1,9.89,3.3,8.74,8.74,0,0,1,3.71,7.43c0,2.43-1.29,5-3.84,7.53-5.22,4.53-14.35,4.52-19.56,0l-.08-.08a8.74,8.74,0,0,1-3.72-7.42v-1.5h-14.5V567a23.16,23.16,0,0,0,8.47,17.71,29.54,29.54,0,0,0,11.66,5.81v13.93h13.79V590.53a29.65,29.65,0,0,0,11.7-5.85,22.74,22.74,0,0,0,0-35.35,28,28,0,0,0-19-6.84A16.09,16.09,0,0,1,266,539.2a8.77,8.77,0,0,1-3.72-7.43c0-2.42,1.27-4.93,3.77-7.46,5.93-3.87,15.25-3.86,20.44,0h0a8.75,8.75,0,0,1,3.71,7.43v1.5H304v-1.5A23.13,23.13,0,0,0,295.52,514.06ZM536.07,614.88a29.54,29.54,0,0,0-11.66-5.81V595.14H510.62v13.93a29.72,29.72,0,0,0-11.7,5.85,22.74,22.74,0,0,0,0,35.35,27.94,27.94,0,0,0,19,6.83,16.1,16.1,0,0,1,9.88,3.3,8.75,8.75,0,0,1,3.72,7.43c0,2.45-1.3,5-3.8,7.5-5.22,4.57-14.38,4.57-19.6,0l-.09-.07a8.76,8.76,0,0,1-3.71-7.43v-1.5H489.77v1.5a23.16,23.16,0,0,0,8.47,17.71,29.44,29.44,0,0,0,11.67,5.81v13.93h13.78V691.35a29.43,29.43,0,0,0,11.7-5.84,22.74,22.74,0,0,0,0-35.36,27.9,27.9,0,0,0-18.95-6.83,16.13,16.13,0,0,1-9.89-3.3,8.74,8.74,0,0,1-3.71-7.43c0-2.41,1.27-4.92,3.77-7.46,5.92-3.86,15.25-3.86,20.43,0h0a8.79,8.79,0,0,1,3.71,7.43v1.5h13.79v-1.5A23.17,23.17,0,0,0,536.07,614.88Zm334-276.52v-1.5a23.13,23.13,0,0,0-8.47-17.71A29.63,29.63,0,0,0,850,313.33V299.4H836.2v13.93a29.58,29.58,0,0,0-11.7,5.85,22.75,22.75,0,0,0,0,35.36,27.9,27.9,0,0,0,19,6.83,16.13,16.13,0,0,1,9.89,3.3,8.74,8.74,0,0,1,3.71,7.43c0,2.43-1.29,5-3.84,7.53-5.22,4.53-14.35,4.52-19.56,0l-.08-.08a8.74,8.74,0,0,1-3.72-7.42v-1.5h-14.5v1.5a23.16,23.16,0,0,0,8.47,17.71,29.67,29.67,0,0,0,11.66,5.81v13.93h13.79V395.62a29.65,29.65,0,0,0,11.7-5.85,22.74,22.74,0,0,0,0-35.35,28,28,0,0,0-19-6.84,16.1,16.1,0,0,1-9.89-3.29,8.77,8.77,0,0,1-3.72-7.43c0-2.42,1.27-4.93,3.77-7.46,5.93-3.87,15.25-3.86,20.44,0a8.76,8.76,0,0,1,3.72,7.43v1.5Z"/></svg>