<svg id="Layer_1" data-name="Layer 1" xmlns="http://www.w3.org/2000/svg" viewBox="0 0 1075.94 1050"><defs><style>.cls-1{fill:#002554;}</style></defs><title>Owl-icons-primary-RGB-SC_Icon_Pricing_Navy_RGB</title><path class="cls-1" d="M1035.72,912.25H67.38v-89H89.83v66.56h923.45V160.19H89.83V703.08L120.2,676.8l.35-67,72.67-63a85.89,85.89,0,1,1,171-16.65l90,51.64A85.81,85.81,0,0,1,560.46,562.7L763.93,371.49a85.85,85.85,0,1,1,50.42,51.12L603.28,620.73a85.9,85.9,0,1,1-169.1,30.06L339,598.16a85.76,85.76,0,0,1-106.69,11.33l-89.7,77.62-.49,94.25v56H963.31V207.42H143v328.2H120.52V185H985.76V859.79H119.65V781.31l.39-74.69L67.38,752.18V137.75h968.34ZM519.12,574.53A63.45,63.45,0,1,0,582.57,638,63.53,63.53,0,0,0,519.12,574.53ZM142.94,620.1l-.2,37.2L215,594.82A86.32,86.32,0,0,1,199.62,571Zm209.94-39.9,81.31,44.95a85.23,85.23,0,0,1,7.61-24.56l-79.23-45.46A85.15,85.15,0,0,1,352.88,580.2ZM278.57,473.71A63.45,63.45,0,1,0,342,537.16,63.52,63.52,0,0,0,278.57,473.71ZM578.8,576.26A86.54,86.54,0,0,1,595,597.73L793.63,411.27a86.61,86.61,0,0,1-18.85-19.18ZM844.7,278.8a63.45,63.45,0,1,0,63.45,63.45A63.52,63.52,0,0,0,844.7,278.8Zm-547.22,223A29.54,29.54,0,0,0,285.82,496V482.09H272V496a29.82,29.82,0,0,0-11.7,5.84,22.75,22.75,0,0,0,0,35.36,27.94,27.94,0,0,0,19,6.83,16.1,16.1,0,0,1,9.88,3.3,8.75,8.75,0,0,1,3.72,7.43c0,2.44-1.29,5-3.84,7.53-5.23,4.54-14.35,4.52-19.56,0l-.09-.07a8.76,8.76,0,0,1-3.71-7.43v-1.5H251.18v1.5a23.17,23.17,0,0,0,8.47,17.71,29.57,29.57,0,0,0,11.67,5.81v13.93H285.1V578.3a29.69,29.69,0,0,0,11.7-5.84,22.74,22.74,0,0,0,0-35.36,27.9,27.9,0,0,0-18.95-6.83A16.13,16.13,0,0,1,268,527a8.74,8.74,0,0,1-3.71-7.43c0-2.42,1.27-4.92,3.77-7.46,5.92-3.87,15.25-3.86,20.43,0h0a8.79,8.79,0,0,1,3.71,7.43V521H306v-1.5A23.15,23.15,0,0,0,297.48,501.83ZM538,602.66a29.63,29.63,0,0,0-11.66-5.82V582.91H512.59v13.93a29.58,29.58,0,0,0-11.7,5.85,22.74,22.74,0,0,0,0,35.35,27.91,27.91,0,0,0,19,6.84,16.16,16.16,0,0,1,9.89,3.29,8.76,8.76,0,0,1,3.71,7.43c0,2.45-1.3,5-3.8,7.5-5.22,4.57-14.38,4.57-19.59,0L510,663a8.75,8.75,0,0,1-3.72-7.43v-1.5h-14.5v1.5a23.13,23.13,0,0,0,8.47,17.71,29.56,29.56,0,0,0,11.66,5.82v13.93h13.79V679.13a29.72,29.72,0,0,0,11.7-5.85,22.75,22.75,0,0,0,0-35.36,28,28,0,0,0-19-6.83,16.1,16.1,0,0,1-9.88-3.3,8.74,8.74,0,0,1-3.72-7.42c0-2.42,1.27-4.93,3.77-7.47,5.93-3.86,15.25-3.86,20.44,0h0a8.75,8.75,0,0,1,3.72,7.43v1.5h13.78v-1.5A23.13,23.13,0,0,0,538,602.66ZM872.09,326.13v-1.5a23.14,23.14,0,0,0-8.48-17.71A29.47,29.47,0,0,0,852,301.11V287.18H838.17v13.93a29.56,29.56,0,0,0-11.7,5.84,22.74,22.74,0,0,0,0,35.36,27.9,27.9,0,0,0,18.95,6.83,16.15,16.15,0,0,1,9.89,3.3,8.74,8.74,0,0,1,3.71,7.43c0,2.44-1.29,5-3.84,7.53-5.23,4.54-14.35,4.52-19.56,0l-.09-.07a8.76,8.76,0,0,1-3.71-7.43v-1.5H817.31v1.5a23.17,23.17,0,0,0,8.48,17.71,29.47,29.47,0,0,0,11.66,5.81v13.93h13.78V383.39a29.8,29.8,0,0,0,11.71-5.84,22.75,22.75,0,0,0,0-35.36,27.94,27.94,0,0,0-19-6.83,16.15,16.15,0,0,1-9.89-3.3,8.74,8.74,0,0,1-3.71-7.43c0-2.42,1.27-4.92,3.77-7.46,5.92-3.87,15.25-3.86,20.44,0a8.76,8.76,0,0,1,3.71,7.43v1.5Z"/></svg>