<svg id="Layer_1" data-name="Layer 1" xmlns="http://www.w3.org/2000/svg" viewBox="0 0 1075.94 1050"><defs><style>.cls-1{fill:#f8a700;}.cls-2{fill:#005cae;}.cls-3,.cls-4,.cls-5{fill:#002554;}.cls-3,.cls-5,.cls-6{stroke:#002554;}.cls-3,.cls-5{stroke-miterlimit:10;}.cls-3{stroke-width:5px;}.cls-5{stroke-width:11px;}.cls-6{fill:#ffb81c;stroke-linecap:round;stroke-linejoin:round;stroke-width:15px;}</style></defs><title>Owl-icons-secondary-RGB-process-strategy</title><path class="cls-1" d="M462.9,463.05c4.55-10.28,7.12-20.46,7.12-28.39,0-23.3-17.93-39.56-43.61-39.56-15.14,0-28.05,5.73-35.84,15.81A154.33,154.33,0,0,1,531.11,284v38.24c-10.52-4.86-20.48-7.51-28.41-7.51-23.28,0-39.54,17.93-39.54,43.63A51.21,51.21,0,0,0,466.84,378l.6,1.37C473.82,393.53,487,402,502.7,402c7.94,0,18.13-2.56,28.41-7.12v68.21Z"/><path class="cls-2" d="M693.11,497.11a74.48,74.48,0,0,0-4.27-10.94,3.21,3.21,0,0,1-.17-2.61,3.64,3.64,0,0,1,1.9-2.1,3.45,3.45,0,0,1,1.47-.3h6.41A162.2,162.2,0,0,1,693.11,497.11Z"/><path class="cls-2" d="M574.81,666.69V634.53a45.91,45.91,0,0,0,8.8,1c23,0,39.24-17.63,39.56-42.86V592c0-25.83-16.28-43.77-39.57-43.77-7.92,0-18.1,2.57-28.37,7.13V487.19h68.19c-4.54,10.27-7.12,20.45-7.12,28.37,0,21.64,15.47,37.22,38.26,39.32-31.76,57.3-39.13,94.28-40.63,111.81Z"/><path class="cls-3" d="M625.88,684.78H537.12V624a15.54,15.54,0,0,1,20.09-14.93l-3.62,11.52a3.32,3.32,0,0,0-3,.53,3.51,3.51,0,0,0-1.44,2.88v48.7h70.47c.34-15.18,5.72-55.42,45.28-123.88-1.65.16-3.32.24-5,.24-22.48,0-37.58-13.46-37.58-33.49,0-7.92,3-18.6,8.2-29.32a3.61,3.61,0,0,0-.19-3.54,3.32,3.32,0,0,0-2.89-1.6H549.19v78.27a3.32,3.32,0,0,0,1.6,2.89,3.65,3.65,0,0,0,3.56.18c10.7-5.21,21.36-8.2,29.23-8.2,20.08,0,33.55,15.11,33.55,37.59-.16,22.65-13.64,37.59-33.55,37.59a45.27,45.27,0,0,1-10.37-1.37l2.88-11.73a32.21,32.21,0,0,0,7.49,1c15.72,0,21.4-13,21.49-25.21,0-12.66-5.66-25.84-21.49-25.84-6,0-15,2.62-24,7a15.7,15.7,0,0,1-15.26-.84,15.39,15.39,0,0,1-7.24-13.1V469.05h90.33a15.42,15.42,0,0,1,13.11,7.24,15.72,15.72,0,0,1,.84,15.24c-4.39,9-7,18-7,24.05,0,15.79,13.19,21.42,25.52,21.42A31.89,31.89,0,0,0,675,533.61l19.59-10.52-11.57,19c-56.12,92-51.18,135.41-51.13,135.84l.91,6.82Z"/><path class="cls-4" d="M689,533.14l-3.36-16.82c0-.17-3.3-16.37-7.53-24.67a15.27,15.27,0,0,1-.8-12.08,15.77,15.77,0,0,1,8.3-9.1,15.37,15.37,0,0,1,6.46-1.39h21.69l-1.66,7.37a173,173,0,0,1-15.19,41.46Zm3.07-52a3.41,3.41,0,0,0-1.44.3,3.65,3.65,0,0,0-1.94,2.12,3.28,3.28,0,0,0,.18,2.62,74.21,74.21,0,0,1,4.27,10.92,160.63,160.63,0,0,0,5.34-16Z"/><path class="cls-3" d="M549.21,481.15H458.89A15.57,15.57,0,0,1,445,458.67c4.28-8.79,6.94-18,6.94-24,0-15.82-13.18-21.46-25.51-21.46-9.95,0-18,3.55-22.21,9.74l-.45.68a20.82,20.82,0,0,0-2.85,11c0,5.89,2.75,14.84,7.36,23.93a15.51,15.51,0,0,1-5.54,20.1l-1.26,1.24-1.19,0a15.56,15.56,0,0,1-6,1.19h-19l-1.07-4.7A173,173,0,0,1,536.71,265.56h12.5v60.67a15.64,15.64,0,0,1-15.61,15.64,15.34,15.34,0,0,1-7-1.68c-9.08-4.61-18-7.36-23.93-7.36-15.81,0-21.44,13.18-21.44,25.52a33.93,33.93,0,0,0,2.31,12.76l.3.68c2.52,5.56,7.77,12.07,18.83,12.07,6.11,0,15.09-2.6,24-6.94a15.61,15.61,0,0,1,21.74,9.15l.16.53a15.6,15.6,0,0,1,.59,4.23Zm-122.81-80c22.48,0,37.58,13.47,37.58,33.53,0,8-3,18.66-8.17,29.3a3.52,3.52,0,0,0,.17,3.5,3.31,3.31,0,0,0,2.92,1.62h78.23V390.83a3,3,0,0,0-.13-.93l0-.19a3.56,3.56,0,0,0-4.94-1.95c-10.67,5.2-21.34,8.17-29.31,8.17-13.46,0-24.31-7-29.79-19.09-.14-.31-.32-.73-.49-1.15a45.23,45.23,0,0,1-3.24-17.34c0-22.48,13.48-37.59,33.52-37.59,7.84,0,18.55,3.16,29.4,8.67a3.53,3.53,0,0,0,5-3.2l-.21-48.61A161,161,0,0,0,385,469.08h9.25a3.48,3.48,0,0,0,1.48-.32l1.07-.76a3.39,3.39,0,0,0,.65-3.95c-5.5-10.86-8.66-21.58-8.66-29.39a32.68,32.68,0,0,1,4.68-17.42l.72-1.11C400.61,406.63,412.36,401.13,426.4,401.13Z"/><path class="cls-3" d="M660,548.89c-22.49,0-37.58-13.48-37.58-33.53,0-7.84,3.14-18.55,8.65-29.39a3.37,3.37,0,0,0-.14-3.31,3.58,3.58,0,0,0-3.07-1.72H536.92V390a3,3,0,0,0,0-.52l-.06-.3a3.53,3.53,0,0,0-4.93-2.38c-10.85,5.5-21.56,8.66-29.37,8.66-13.25,0-24-6.76-29.57-18.55-.18-.4-.36-.82-.53-1.24a44.6,44.6,0,0,1-3.45-17.8c0-22.48,13.48-37.57,33.55-37.57,8,0,18.64,3,29.3,8.16a3.47,3.47,0,0,0,5.1-3.07V265.56h12.7C586.33,267,617,278.1,649.2,301.71c42,30.77,67.09,81.93,67.09,136.86a170.81,170.81,0,0,1-4.18,37.66l-1.06,4.71H692.46a3.47,3.47,0,0,0-3.08,5.12c5.13,10.5,8.1,21.09,8.18,29,0,10-8.43,24.41-16.71,28.87A43.54,43.54,0,0,1,660,548.89Zm-111-80h78.88a15.56,15.56,0,0,1,13.34,7.49,15.36,15.36,0,0,1,.6,15.08c-4.59,9.06-7.34,18-7.34,23.92,0,15.82,13.18,21.46,25.52,21.46a31.81,31.81,0,0,0,15.12-3.47c4-2.17,10.39-12.37,10.39-18,0-6.28-2.66-15.19-7-24a15.71,15.71,0,0,1,6.78-20.74,15.41,15.41,0,0,1,7.15-1.74h8.87a159.8,159.8,0,0,0,2.9-30.3c0-51.1-23.23-98.62-62.15-127.12-30.17-22.11-58.76-32.54-92.68-33.83H549v47.79a15.57,15.57,0,0,1-22.47,13.91c-8.77-4.27-18-6.94-24-6.94-15.84,0-21.47,13.18-21.47,25.51A33.42,33.42,0,0,0,483.53,371l.34.79c2.5,5.3,7.76,11.62,18.65,11.62,5.89,0,14.83-2.75,23.91-7.35a15.22,15.22,0,0,1,7-1.69,15.65,15.65,0,0,1,15.07,11.7l.24,1a16.12,16.12,0,0,1,.27,3Z"/><path class="cls-3" d="M549.19,684.78H456.05l-1.33-4.24c-.35-1.13-35.48-113.38-60.21-153.53a166.42,166.42,0,0,1-20.16-50.15l-1.71-7.39h21.05a3.34,3.34,0,0,0,1.58-.4l.28-.19a3.62,3.62,0,0,0,1.19-4.6c-5.19-10.66-8.19-21.33-8.19-29.2a32.34,32.34,0,0,1,5-18l.67-1c6.49-9.26,18.13-14.58,31.91-14.58,22.48,0,37.6,13.48,37.6,33.55,0,7.76-3.17,18.45-8.69,29.35a3.35,3.35,0,0,0,.16,3.33,3.54,3.54,0,0,0,3,1.71h90.94v90.94a3.49,3.49,0,0,0,1.71,3,3.39,3.39,0,0,0,3.36.16c10.88-5.5,21.58-8.67,29.32-8.67,19.91,0,33.39,15,33.55,37.25,0,22.83-13.47,37.94-33.55,37.94a47.11,47.11,0,0,1-10.28-1.3L576,617a35.46,35.46,0,0,0,7.58,1c15.83,0,21.49-13.18,21.49-25.52S599.3,567,583.58,567c-5.83,0-14.76,2.76-23.88,7.38a15.6,15.6,0,0,1-22.58-14V481.54H458.25A15.6,15.6,0,0,1,444.3,459c4.61-9.12,7.37-18.05,7.37-23.89,0-15.84-13.18-21.48-25.52-21.48-9.8,0-17.82,3.44-22,9.44l-.42.67a20.42,20.42,0,0,0-3.06,11.37c0,6,2.6,15,7,24A15.68,15.68,0,0,1,405,476.62v3.3l-4.48,0a15.25,15.25,0,0,1-6.79,1.58H388a151,151,0,0,0,16.81,39.13c23,37.4,53.34,130.71,60.12,152h72.21V625a15.31,15.31,0,0,1,6.25-12.41,15.6,15.6,0,0,1,13.77-2.42l-3.48,11.55a3.48,3.48,0,0,0-3.11.56,3.33,3.33,0,0,0-1.36,2.72Z"/><g id="_Group_" data-name="&lt;Group&gt;"><g id="_Group_2" data-name="&lt;Group&gt;"><path class="cls-5" d="M561.46,671.71h7.18V610l2.3-1.81a9.4,9.4,0,0,0,3.62-7.48,9.52,9.52,0,1,0-19,0,9.41,9.41,0,0,0,3.63,7.48l2.3,1.81Z"/></g><g id="_Group_3" data-name="&lt;Group&gt;"><path class="cls-5" d="M517.69,671.71h7.18V610l2.31-1.81a9.42,9.42,0,0,0,3.61-7.48,9.51,9.51,0,1,0-19,0,9.42,9.42,0,0,0,3.61,7.48l2.31,1.81Z"/></g></g><g id="_Group_4" data-name="&lt;Group&gt;"><g id="_Group_5" data-name="&lt;Group&gt;"><path class="cls-6" d="M608.76,771.27H477.57L458.4,722.93V674.82H627.91v48.11Z"/></g></g><path class="cls-3" d="M636.15,686.59h-186a6,6,0,1,1,0-12.07h186a6,6,0,0,1,0,12.07Z"/><path class="cls-3" d="M636.15,712.74h-186a6,6,0,1,1,0-12.07h186a6,6,0,0,1,0,12.07Z"/><path class="cls-3" d="M636.15,738.89h-186a6,6,0,1,1,0-12.07h186a6,6,0,0,1,0,12.07Z"/><path class="cls-3" d="M761.58,580.27a6.06,6.06,0,0,1-3-.81l-27-15.65a6,6,0,0,1,6.07-10.44l27,15.65a6,6,0,0,1-3,11.25Z"/><path class="cls-3" d="M790.42,597.33a6,6,0,0,1-3-.81l-14.91-8.64a6,6,0,0,1,6.07-10.44l14.9,8.64a6,6,0,0,1-3,11.25Z"/><path class="cls-3" d="M798.4,453.35h0l-31.19-.06a6,6,0,0,1,0-12.07h0l31.19.06a6,6,0,0,1,0,12.07Z"/><path class="cls-3" d="M831.89,453.7h0l-17.22,0a6,6,0,0,1,0-12.07h0l17.22,0a6,6,0,1,1,0,12.06Z"/><path class="cls-3" d="M739.77,340.57a6,6,0,0,1-3-11.26l27-15.55a6,6,0,1,1,6,10.47l-27,15.54A6,6,0,0,1,739.77,340.57Z"/><path class="cls-3" d="M781.07,317.18a6,6,0,0,1-3-11.27L793,297.33a6,6,0,0,1,6,10.46l-14.93,8.59A6,6,0,0,1,781.07,317.18Z"/><path class="cls-3" d="M659.64,256.68a6,6,0,0,1-5.23-9.06l15.65-27a6,6,0,1,1,10.44,6.05l-15.64,27A6,6,0,0,1,659.64,256.68Z"/><path class="cls-3" d="M683.69,215.76a6,6,0,0,1-5.21-9.06l8.65-14.89a6,6,0,1,1,10.43,6.05l-8.64,14.89A6,6,0,0,1,683.69,215.76Z"/><path class="cls-3" d="M548.3,224.09h0a6,6,0,0,1-6-6.05l.06-31.19a6,6,0,0,1,6-6h0a6,6,0,0,1,6,6l0,31.18A6,6,0,0,1,548.3,224.09Z"/><path class="cls-3" d="M548.68,176.62h0a6,6,0,0,1-6-6l0-17.22a6.06,6.06,0,0,1,6-6h0a6,6,0,0,1,6,6l0,17.22A6,6,0,0,1,548.68,176.62Z"/><path class="cls-3" d="M435.59,251.53a6,6,0,0,1-5.24-3l-15.54-27a6,6,0,1,1,10.46-6l15.55,27a6,6,0,0,1-2.23,8.24A5.93,5.93,0,0,1,435.59,251.53Z"/><path class="cls-3" d="M412.19,210.23a6.06,6.06,0,0,1-5.24-3l-8.58-14.94a6,6,0,0,1,10.47-6l8.59,14.93a6,6,0,0,1-5.24,9Z"/><path class="cls-3" d="M351.68,331.65a6,6,0,0,1-3-.81l-27-15.64a6,6,0,0,1,6.06-10.44l27,15.64a6,6,0,0,1-3,11.25Z"/><path class="cls-3" d="M310.78,307.59a5.92,5.92,0,0,1-3-.82l-14.91-8.64a6,6,0,0,1,6.07-10.44l14.89,8.64a6,6,0,0,1-3,11.26Z"/><path class="cls-3" d="M319.1,443h0l-31.18-.06a6,6,0,1,1,0-12.06h0l31.18.05a6,6,0,0,1,0,12.07Z"/><path class="cls-3" d="M271.64,442.6h0l-17.24,0a6,6,0,0,1,0-12.07h0l17.23,0a6,6,0,0,1,0,12.06Z"/><path class="cls-3" d="M319.5,571.24a6,6,0,0,1-3-11.26l27-15.54a6,6,0,1,1,6,10.46l-27,15.54A6,6,0,0,1,319.5,571.24Z"/><path class="cls-3" d="M290.31,587.69a6,6,0,0,1-3-11.27l14.93-8.58a6,6,0,1,1,6,10.47l-14.93,8.57A5.93,5.93,0,0,1,290.31,587.69Z"/></svg>