<svg id="Layer_1" data-name="Layer 1" xmlns="http://www.w3.org/2000/svg" viewBox="0 0 1075.94 1050"><defs><style>.cls-1{fill:#f8a700;}.cls-2{fill:#002554;}.cls-3{fill:#005cae;}</style></defs><title>Owl-icons-secondary-RGB-process-planning</title><path class="cls-1" d="M804.36,515.29C800,373.76,681.77,262.56,540.23,266.91S287.5,389.51,291.85,531,414.46,783.77,556,779.42,808.72,656.82,804.36,515.29ZM421.89,650.66c-69.59-69.59-69.59-185.71,0-255.3s185.71-69.58,255.28,0,69.59,185.71,0,255.3S491.47,720.23,421.89,650.66Z"/><g id="_Group_" data-name="&lt;Group&gt;"><path class="cls-2" d="M548.74,754.18c-3,0-6.06-.09-9.08-.21a6.86,6.86,0,0,1-6.37-5.08l-3.75-13.81-1-.09-6.15,13a6.82,6.82,0,0,1-7.18,3.87c-5.88-.84-11.88-2-17.84-3.3a6.89,6.89,0,0,1-5.33-6.17l-1.13-14.25-1-.27-8.42,11.59a6.89,6.89,0,0,1-7.77,2.47c-5.79-2-11.48-4.15-16.88-6.47a6.85,6.85,0,0,1-4.12-7l1.5-14.29-.88-.43-10.43,9.85a6.89,6.89,0,0,1-8.12,1C428.7,721,423.8,718,419.4,715a6.86,6.86,0,0,1-2.73-7.66l4.12-13.77L420,693,408,700.76a6.87,6.87,0,0,1-8.14-.52c-4.67-3.9-9.19-8-13.44-12.16a6.88,6.88,0,0,1-1.3-8.06l6.56-12.75-.67-.72L377.68,672a6.92,6.92,0,0,1-7.91-2c-3.48-4.2-7-8.79-10.94-14.46a6.9,6.9,0,0,1,.17-8.17l8.78-11.33c-.16-.27-.34-.54-.51-.82l-14.06,2.91a6.92,6.92,0,0,1-7.42-3.4c-2.68-4.87-5.32-10.16-8.07-16.18a6.88,6.88,0,0,1,1.69-8l10.68-9.51c-.12-.31-.24-.62-.35-.94l-14.33.27a6.72,6.72,0,0,1-6.68-4.74c-1.83-5.59-3.51-11.44-5-17.36a6.87,6.87,0,0,1,3.14-7.56l12.28-7.38-.18-1L324.88,560a6.9,6.9,0,0,1-5.67-5.88c-.88-6.6-1.45-12.51-1.75-18.05a6.92,6.92,0,0,1,4.48-6.82l13.44-5v-1l-13.48-4.94a6.87,6.87,0,0,1-4.51-6.79c.27-5.51.82-11.42,1.66-18.06a6.9,6.9,0,0,1,5.64-5.91l14.09-2.47.18-1-12.33-7.3a6.87,6.87,0,0,1-3.17-7.54c1.42-5.88,3.06-11.73,4.87-17.39a7.21,7.21,0,0,1,6.64-4.78l14.33.2c.12-.32.24-.64.38-1l-10.77-9.45a6.86,6.86,0,0,1-1.73-8c2.72-6,5.33-11.34,8-16.22a7,7,0,0,1,7.39-3.45l14.08,2.84c.16-.28.34-.55.5-.83L358.32,400a6.86,6.86,0,0,1-.23-8.17c4-5.68,7.41-10.3,10.87-14.51a6.89,6.89,0,0,1,7.88-2l13.33,5.36c.21-.25.43-.49.66-.74l-6.63-12.7a6.87,6.87,0,0,1,1.27-8.07c4.4-4.37,8.9-8.48,13.36-12.25a6.89,6.89,0,0,1,8.13-.55l12.1,7.69c.25-.21.52-.4.77-.59l-4.19-13.77a6.87,6.87,0,0,1,2.7-7.69c4.61-3.14,9.66-6.26,15.4-9.53a6.83,6.83,0,0,1,8.11.95l10.46,9.77c.3-.14.58-.29.87-.44l-1.58-14.26a6.87,6.87,0,0,1,4.09-7.07c5.37-2.34,11.06-4.55,16.88-6.56a6.89,6.89,0,0,1,7.79,2.43l8.46,11.54,1-.28,1.09-14.28a6.86,6.86,0,0,1,5.3-6.18c6-1.39,11.95-2.53,17.76-3.4a6.92,6.92,0,0,1,7.22,3.82l6.23,12.94,1-.09L532,297.53a6.87,6.87,0,0,1,6.33-5.12c3-.14,6.06-.24,9.09-.25h0c3.24,0,6.17.09,9.08.2a6.9,6.9,0,0,1,6.39,5.08l3.73,13.82,1,.08,6.17-13A6.84,6.84,0,0,1,581,294.5c5.87.85,11.85,2,17.79,3.3a6.89,6.89,0,0,1,5.36,6.17l1.14,14.27,1,.26,8.42-11.59a6.9,6.9,0,0,1,7.76-2.47c5.92,2,11.61,4.18,16.9,6.46a6.9,6.9,0,0,1,4.13,7.05L642,332.24l.87.44,10.43-9.86a6.91,6.91,0,0,1,8.14-1c6.1,3.49,11,6.49,15.4,9.46a6.91,6.91,0,0,1,2.75,7.68l-4.12,13.77.76.58,12.08-7.76a6.92,6.92,0,0,1,8.13.51c4.66,3.91,9.18,8,13.43,12.17a6.87,6.87,0,0,1,1.3,8.06l-6.55,12.75.66.73,13.28-5.44a6.88,6.88,0,0,1,7.9,2c3.54,4.26,7.12,9,11,14.45a6.86,6.86,0,0,1-.19,8.16l-8.76,11.34c.16.27.34.55.51.82L743,408.19a6.89,6.89,0,0,1,7.4,3.41c2.7,4.86,5.36,10.15,8.11,16.18a6.89,6.89,0,0,1-1.71,8l-10.68,9.5.36.94,14.33-.26h.13a6.9,6.9,0,0,1,6.54,4.74c1.86,5.71,3.53,11.55,5,17.36a6.88,6.88,0,0,1-3.12,7.55L757,483l.18,1,14.12,2.38a6.86,6.86,0,0,1,5.67,5.88c.88,6.67,1.45,12.57,1.75,18a6.87,6.87,0,0,1-4.47,6.82l-13.46,5c0,.14,0,.28,0,.43v.52L774.31,528a6.9,6.9,0,0,1,4.51,6.79c-.27,5.53-.8,11.44-1.66,18.07a6.87,6.87,0,0,1-5.62,5.91l-14.11,2.47-.18,1,12.33,7.29a6.89,6.89,0,0,1,3.18,7.54c-1.4,5.81-3,11.66-4.88,17.39a6.88,6.88,0,0,1-6.55,4.78h-.09L746.91,599l-.36.94,10.75,9.45a6.86,6.86,0,0,1,1.73,8c-2.67,6-5.3,11.28-8,16.24a6.91,6.91,0,0,1-7.39,3.43l-14.08-2.82-.5.82,8.83,11.3a6.87,6.87,0,0,1,.23,8.16c-3.81,5.48-7.36,10.22-10.86,14.51a6.88,6.88,0,0,1-7.89,2l-13.32-5.36c-.22.24-.44.49-.67.73L712,679.09a6.89,6.89,0,0,1-1.25,8.08c-4.32,4.27-8.81,8.39-13.36,12.25a6.9,6.9,0,0,1-8.14.56l-12.1-7.69-.77.59,4.18,13.76a6.89,6.89,0,0,1-2.7,7.7c-4.7,3.19-9.75,6.31-15.4,9.53a6.9,6.9,0,0,1-8.11-1l-10.46-9.78-.87.43,1.58,14.28a6.84,6.84,0,0,1-4.09,7.07c-5.41,2.36-11.1,4.57-16.88,6.55a6.86,6.86,0,0,1-7.77-2.42l-8.48-11.53-1,.26-1.07,14.27a6.9,6.9,0,0,1-5.3,6.18c-6,1.39-12,2.54-17.78,3.4a6.88,6.88,0,0,1-7.21-3.82l-6.22-12.92-1,.08-3.67,13.84a6.87,6.87,0,0,1-6.33,5.1c-3,.15-6.05.26-9.09.27Zm-3.51-13.8c2.32,0,4.64,0,7,0l3.62-13.63a6.85,6.85,0,0,1,6.2-5.1c3.36-.22,6.73-.51,10-.94a6.88,6.88,0,0,1,7.08,3.84l6.11,12.69c2.25-.39,4.5-.82,6.79-1.3l1.06-14a6.85,6.85,0,0,1,5.12-6.14c3.31-.86,6.58-1.82,9.8-2.82a6.93,6.93,0,0,1,7.59,2.49l8.33,11.33c2.16-.81,4.32-1.65,6.44-2.51l-1.55-14a6.89,6.89,0,0,1,4-7c3.05-1.4,6-2.9,8.94-4.49a6.9,6.9,0,0,1,8,1l10.3,9.62c2.06-1.22,4-2.43,5.9-3.64l-4.11-13.5a6.86,6.86,0,0,1,2.55-7.59q4.13-3,8-6.12a6.87,6.87,0,0,1,8-.47l11.89,7.56q2.6-2.31,5.13-4.71l-6.51-12.45a6.89,6.89,0,0,1,1.12-7.93c2.35-2.45,4.61-4.95,6.82-7.54a6.93,6.93,0,0,1,7.81-1.91l13.06,5.27c1.36-1.76,2.75-3.61,4.17-5.57l-8.69-11.11a6.88,6.88,0,0,1-.32-8c1.86-2.79,3.62-5.65,5.27-8.54a6.91,6.91,0,0,1,7.33-3.32l13.83,2.78c1-2,2-4,3-6.2l-10.55-9.28a6.86,6.86,0,0,1-1.82-7.8q1.92-4.66,3.64-9.49a6.85,6.85,0,0,1,6.48-4.6h.1l14,.19c.65-2.22,1.28-4.44,1.86-6.68L746,571.54a6.92,6.92,0,0,1-3.22-7.38c.73-3.3,1.31-6.61,1.83-9.95a6.92,6.92,0,0,1,5.62-5.71l13.85-2.42q.4-3.62.64-6.94l-13.24-4.84a6.91,6.91,0,0,1-4.51-6.65c0-1.69.06-3.38.06-5.07s0-3.34-.09-5.05a6.9,6.9,0,0,1,4.48-6.63L764.67,506c-.18-2.22-.42-4.52-.69-6.93l-13.85-2.34a6.87,6.87,0,0,1-5.65-5.68c-.54-3.33-1.15-6.65-1.89-9.94a6.9,6.9,0,0,1,3.18-7.39l12.06-7.25c-.61-2.22-1.23-4.44-1.91-6.65l-14.06.25a6.86,6.86,0,0,1-6.61-4.54c-1.13-3.2-2.37-6.38-3.69-9.48a6.9,6.9,0,0,1,1.78-7.82l10.49-9.32c-1-2.17-2.06-4.22-3.07-6.2L727,425.56a6.86,6.86,0,0,1-7.33-3.28c-1.69-2.88-3.46-5.73-5.34-8.52a6.87,6.87,0,0,1,.28-8l8.63-11.16c-1.43-1.95-2.82-3.79-4.19-5.54l-13,5.33a6.84,6.84,0,0,1-7.79-1.86q-3.31-3.81-6.85-7.45a6.86,6.86,0,0,1-1.18-7.94l6.43-12.52c-1.69-1.58-3.4-3.14-5.16-4.68l-11.86,7.63a6.89,6.89,0,0,1-8-.43c-2.61-2.1-5.3-4.12-8-6.06a6.88,6.88,0,0,1-2.61-7.59l4-13.5c-1.84-1.16-3.79-2.36-5.91-3.62L648.75,346a6.85,6.85,0,0,1-7.93,1.08c-3-1.57-6-3.06-9.06-4.46a6.85,6.85,0,0,1-4-7l1.47-14q-3.15-1.25-6.46-2.45l-8.27,11.39a6.91,6.91,0,0,1-7.6,2.52q-4.84-1.51-9.79-2.78a6.87,6.87,0,0,1-5.16-6.12l-1.12-14c-2.27-.46-4.55-.88-6.82-1.26l-6,12.72a6.79,6.79,0,0,1-7,3.88c-3.33-.4-6.69-.68-10.08-.88a6.85,6.85,0,0,1-6.22-5.07L551,306c-2.36-.05-4.75,0-7,0l-3.61,13.62a6.87,6.87,0,0,1-6.18,5.11c-3.39.23-6.75.52-10.09.94a6.9,6.9,0,0,1-7.06-3.84L511,309.11c-2.23.39-4.5.82-6.77,1.3l-1.06,14a6.89,6.89,0,0,1-5.14,6.14c-3.31.86-6.58,1.82-9.82,2.82a6.87,6.87,0,0,1-7.58-2.5l-8.3-11.32c-2.19.82-4.34,1.65-6.46,2.51l1.56,14a6.86,6.86,0,0,1-4,7c-3.06,1.39-6,2.91-8.95,4.48a6.85,6.85,0,0,1-8-1L436.19,337c-2.06,1.24-4,2.45-5.89,3.65l4.12,13.51a6.86,6.86,0,0,1-2.6,7.59q-4.08,2.93-8,6.11a6.89,6.89,0,0,1-8,.47l-11.9-7.57q-2.55,2.3-5.13,4.71l6.51,12.46a6.9,6.9,0,0,1-1.12,7.94q-3.5,3.63-6.81,7.51a6.85,6.85,0,0,1-7.79,1.92L376.47,390c-1.34,1.75-2.73,3.58-4.17,5.58l8.69,11.1a6.85,6.85,0,0,1,.33,8c-1.85,2.81-3.63,5.65-5.28,8.56a7,7,0,0,1-7.33,3.32l-13.81-2.79c-1,2-2,4-3,6.21l10.56,9.27a6.88,6.88,0,0,1,1.8,7.82c-1.29,3.09-2.5,6.27-3.62,9.47a6.89,6.89,0,0,1-6.5,4.6H354L339.94,461c-.65,2.2-1.28,4.43-1.86,6.66l12.09,7.17a6.87,6.87,0,0,1,3.21,7.36c-.7,3.29-1.3,6.59-1.81,9.93a6.88,6.88,0,0,1-5.61,5.74l-13.85,2.43c-.27,2.41-.48,4.72-.66,6.94L344.69,512a6.89,6.89,0,0,1,4.51,6.65c-.05,1.68-.06,3.36-.06,5s0,3.33.09,5a6.87,6.87,0,0,1-4.48,6.68l-13.21,4.92q.29,3.33.69,6.92l13.88,2.35a6.91,6.91,0,0,1,5.64,5.68c.54,3.34,1.13,6.64,1.87,9.92a6.89,6.89,0,0,1-3.17,7.4l-12.06,7.25c.6,2.24,1.24,4.47,1.9,6.66l14.07-.27a7.28,7.28,0,0,1,6.6,4.57c1.13,3.2,2.37,6.37,3.69,9.46a6.88,6.88,0,0,1-1.78,7.82l-10.49,9.33c1,2.16,2.06,4.21,3.07,6.18l13.81-2.85a6.89,6.89,0,0,1,7.34,3.28c1.68,2.88,3.45,5.73,5.33,8.52a6.88,6.88,0,0,1-.28,8L373,651.75c1.43,2,2.82,3.83,4.18,5.56l13-5.34a6.89,6.89,0,0,1,7.81,1.87c2.18,2.53,4.46,5,6.82,7.43a6.91,6.91,0,0,1,1.21,8l-6.45,12.52c1.69,1.57,3.4,3.13,5.16,4.66l11.86-7.62a6.86,6.86,0,0,1,8,.43q3.93,3.15,8.06,6.08a6.91,6.91,0,0,1,2.6,7.57l-4.05,13.51c1.84,1.16,3.79,2.35,5.91,3.6l10.24-9.65a6.88,6.88,0,0,1,7.94-1.08c3,1.58,6,3,9.06,4.46a6.85,6.85,0,0,1,4,7l-1.47,14c2.11.85,4.28,1.68,6.44,2.47l8.29-11.39a6.87,6.87,0,0,1,7.63-2.53c3.21,1,6.44,2,9.74,2.77a6.87,6.87,0,0,1,5.18,6.13l1.12,14q3.43.69,6.82,1.26l6-12.73a6.85,6.85,0,0,1,7-3.89c3.33.41,6.69.69,10.09.9a6.85,6.85,0,0,1,6.21,5.07Zm-6-34.66h-.35a183.11,183.11,0,0,1-112.61-46.29,6.88,6.88,0,0,1-.28-10l81.25-81.71a6.88,6.88,0,0,1,8.92-.71A54.46,54.46,0,0,0,540,576.82a6.86,6.86,0,0,1,5.84,6.78l.33,115.23a6.89,6.89,0,0,1-6.88,6.89ZM441,653.9a169.54,169.54,0,0,0,91.37,37.55l-.3-102.18a68.53,68.53,0,0,1-19-7.84Zm117,51.77a6.87,6.87,0,0,1-6.88-6.86l-.32-115.28a6.86,6.86,0,0,1,5.81-6.81,54.58,54.58,0,0,0,23.7-9.88,6.87,6.87,0,0,1,8.93.66l81.73,81.26a7,7,0,0,1,2,5,6.87,6.87,0,0,1-2.27,4.93,183,183,0,0,1-112.34,46.92Zm6.57-116.54.3,102.23A169.35,169.35,0,0,0,656,653.29l-72.47-72.07A68.82,68.82,0,0,1,564.52,589.13ZM417.62,648h-.16a6.92,6.92,0,0,1-4.94-2.26,183,183,0,0,1-46.9-112.34,6.87,6.87,0,0,1,6.85-7.26l115.23-.32h0a6.87,6.87,0,0,1,6.79,5.82,53.26,53.26,0,0,0,9.9,23.7,6.91,6.91,0,0,1-.67,8.93L422.49,646A6.87,6.87,0,0,1,417.62,648ZM379.9,539.86A169.35,169.35,0,0,0,418,631l72-72.46a68.09,68.09,0,0,1-7.93-19ZM679.26,647.25a6.82,6.82,0,0,1-4.85-2L592.68,564a6.89,6.89,0,0,1-.7-8.93,54,54,0,0,0,9.45-21.62c.14-.71.24-1.42.34-2.12a6.88,6.88,0,0,1,6.78-5.85l115.21-.32h0a6.87,6.87,0,0,1,6.86,7.22A183.1,183.1,0,0,1,684.38,645a6.86,6.86,0,0,1-4.93,2.29Zm-72.87-89,72.47,72.06a169.48,169.48,0,0,0,37.54-91.36l-102.16.29A67.36,67.36,0,0,1,606.39,558.21Zm-233.95-37a6.89,6.89,0,0,1-6.88-7.23,183.14,183.14,0,0,1,46.29-112.59,6.86,6.86,0,0,1,10-.28l81.72,81.26a6.9,6.9,0,0,1,.72,8.92A54.58,54.58,0,0,0,494.48,515a6.88,6.88,0,0,1-6.78,5.85l-115.25.33ZM417.38,416a169.25,169.25,0,0,0-37.55,91.35l102.22-.29a68.54,68.54,0,0,1,7.8-19ZM608.55,520.5a6.85,6.85,0,0,1-6.79-5.8A54.55,54.55,0,0,0,591.82,491a6.85,6.85,0,0,1,.67-8.92l81.22-81.68a6.85,6.85,0,0,1,5-2,6.92,6.92,0,0,1,4.94,2.26,182.91,182.91,0,0,1,46.91,112.34,6.87,6.87,0,0,1-6.85,7.25l-115.17.32Zm-2.34-32.75a68.08,68.08,0,0,1,7.95,19l102.15-.28a169.44,169.44,0,0,0-38.08-91.14Zm-94.32-6.94a6.89,6.89,0,0,1-4.86-2l-81.71-81.25a6.87,6.87,0,0,1,.24-10,183,183,0,0,1,112.31-46.9,6.87,6.87,0,0,1,7.27,6.84l.32,115.24a6.87,6.87,0,0,1-5.8,6.81,54.85,54.85,0,0,0-14.25,4.26,55.71,55.71,0,0,0-9.45,5.64A6.8,6.8,0,0,1,511.89,480.81ZM440.28,393l72.44,72.05a66,66,0,0,1,6.94-3.74,68.47,68.47,0,0,1,12-4.19L531.39,355A169.35,169.35,0,0,0,440.28,393ZM584.1,480.57a6.79,6.79,0,0,1-4-1.33,54,54,0,0,0-21.65-9.4l-2.13-.31a6.89,6.89,0,0,1-5.87-6.79l-.31-115.22a6.86,6.86,0,0,1,7.21-6.9A183.1,183.1,0,0,1,669.9,386.89a6.86,6.86,0,0,1,.3,10L589,478.54A6.87,6.87,0,0,1,584.1,480.57ZM564.16,457a67.06,67.06,0,0,1,19.05,7.81l72-72.41a169.42,169.42,0,0,0-91.33-37.54Z"/></g><path class="cls-3" d="M519.71,524A28.41,28.41,0,1,1,549,551.56,28.39,28.39,0,0,1,519.71,524Z"/><path class="cls-2" d="M548,817.26c-3.85,0-7.71-.07-11.55-.23a6.88,6.88,0,0,1,.27-13.75H537a281.26,281.26,0,0,0,40.22-1.3,6.88,6.88,0,1,1,1.44,13.69A298.75,298.75,0,0,1,548,817.26Zm-45.48-3.61a6,6,0,0,1-1.09-.09,296.34,296.34,0,0,1-41.09-9.62,6.88,6.88,0,1,1,4.07-13.14,282.28,282.28,0,0,0,39.2,9.18,6.88,6.88,0,0,1-1.09,13.67Zm-72.29-21.58a6.87,6.87,0,0,1-2.81-.6,289.93,289.93,0,0,1-27.33-14.05A6.88,6.88,0,0,1,407,765.53a275.68,275.68,0,0,0,26,13.39,6.88,6.88,0,0,1-2.84,13.15Z"/><path class="cls-2" d="M577.89,815.71a6.88,6.88,0,0,1-.72-13.72,281,281,0,0,0,169-80.55,6.88,6.88,0,1,1,9.73,9.72,294.61,294.61,0,0,1-177.24,84.51A5.9,5.9,0,0,1,577.89,815.71Z"/><path class="cls-2" d="M477.36,251.86a6.88,6.88,0,0,1-1.69-13.55c6.78-1.71,13.74-3.21,20.66-4.43a6.88,6.88,0,0,1,2.4,13.54c-6.59,1.17-13.22,2.59-19.68,4.23A6.63,6.63,0,0,1,477.36,251.86Z"/><path class="cls-2" d="M825.27,604.77a6.53,6.53,0,0,1-1.79-.24,6.88,6.88,0,0,1-4.86-8.42A280,280,0,0,0,826,558.45a6.88,6.88,0,0,1,13.66,1.71,292.55,292.55,0,0,1-7.75,39.51A6.87,6.87,0,0,1,825.27,604.77Zm9.78-71.3H835a6.88,6.88,0,0,1-6.79-7l0-3.21A282.66,282.66,0,0,0,826,488.19a6.88,6.88,0,0,1,13.66-1.71A298.47,298.47,0,0,1,842,523.3l0,3.38A6.87,6.87,0,0,1,835.05,533.47ZM826.89,462a6.89,6.89,0,0,1-6.68-5.25,279.17,279.17,0,0,0-11.61-36.59,6.87,6.87,0,1,1,12.79-5,291.33,291.33,0,0,1,12.18,38.37,6.88,6.88,0,0,1-5,8.32A7.19,7.19,0,0,1,826.89,462Zm-25.68-67.23a6.86,6.86,0,0,1-6.06-3.63,279.73,279.73,0,0,0-20.42-32.51,6.88,6.88,0,0,1,11.14-8.09,293.91,293.91,0,0,1,21.4,34.11,6.86,6.86,0,0,1-6.06,10.12Zm-41.69-58.66a6.86,6.86,0,0,1-5.06-2.23c-2.72-2.95-5.49-5.85-8.34-8.7-6.23-6.23-12.78-12.21-19.48-17.76a6.88,6.88,0,1,1,8.79-10.58c7,5.82,13.88,12.09,20.42,18.61,3,3,5.91,6,8.73,9.13a6.87,6.87,0,0,1-5.06,11.53Zm-54.87-46.56a6.89,6.89,0,0,1-3.76-1.11,275.09,275.09,0,0,0-33.5-18.71,6.88,6.88,0,0,1,5.87-12.44,292.66,292.66,0,0,1,35.15,19.63,6.87,6.87,0,0,1-3.76,12.63Zm-64.72-31.4a7,7,0,0,1-2.2-.35A281,281,0,0,0,600.61,248a6.88,6.88,0,1,1,2.57-13.51,294.5,294.5,0,0,1,38.94,10.21,6.87,6.87,0,0,1-2.19,13.39Zm-70.52-14.25-.52,0a282.37,282.37,0,0,0-38.39-.24,7,7,0,0,1-7.29-6.44,6.88,6.88,0,0,1,6.45-7.28,297,297,0,0,1,40.26.24,6.88,6.88,0,0,1-.51,13.74Z"/><path class="cls-2" d="M806.63,654.93a6.89,6.89,0,0,1-6.19-9.87c2.89-6,5.61-12.2,8.09-18.45a6.88,6.88,0,1,1,12.79,5.07c-2.6,6.57-5.46,13.07-8.5,19.36A6.87,6.87,0,0,1,806.63,654.93Z"/><path class="cls-2" d="M267,471.24a7,7,0,0,1-1.42-.15,6.88,6.88,0,0,1-5.33-8.13A294.68,294.68,0,0,1,407.31,265.09a6.87,6.87,0,1,1,6.58,12.07A281,281,0,0,0,273.7,465.77,6.88,6.88,0,0,1,267,471.24Z"/><path class="cls-2" d="M286.8,649.57a6.86,6.86,0,0,1-6.25-4A293.36,293.36,0,0,1,265.82,606,6.88,6.88,0,0,1,279,602.11a277.4,277.4,0,0,0,14,37.72,6.86,6.86,0,0,1-3.41,9.11A6.67,6.67,0,0,1,286.8,649.57Zm-22-72.16a6.88,6.88,0,0,1-6.78-5.75,296.42,296.42,0,0,1-3.91-42,6.87,6.87,0,0,1,6.72-7H261a6.86,6.86,0,0,1,6.88,6.73,283.49,283.49,0,0,0,3.73,40.07,6.87,6.87,0,0,1-5.65,7.92A6.4,6.4,0,0,1,264.77,577.41ZM262.28,502c-.23,0-.46,0-.69,0a6.86,6.86,0,0,1-6.16-7.51,296.6,296.6,0,0,1,4.8-31.5,6.88,6.88,0,0,1,13.47,2.81,279.24,279.24,0,0,0-4.58,30A6.9,6.9,0,0,1,262.28,502Z"/></svg>