<svg id="Layer_1" data-name="Layer 1" xmlns="http://www.w3.org/2000/svg" viewBox="0 0 1075.94 1050"><defs><style>.cls-1{fill:#005cae;}.cls-2,.cls-4{fill:none;stroke-linecap:round;stroke-linejoin:round;}.cls-2{stroke:#ffb81c;stroke-width:26.58px;}.cls-3{fill:#00173e;}.cls-4,.cls-6{stroke:#002554;}.cls-4{stroke-width:20px;}.cls-5{fill:#fff;}.cls-6{fill:#002554;stroke-miterlimit:10;stroke-width:5px;}</style></defs><title>Owl-icons-secondary-RGB-process-analysis</title><circle class="cls-1" cx="558.92" cy="521.39" r="165.73"/><path class="cls-2" d="M672.29,519.91a118.63,118.63,0,0,1-119.75,117.5"/><path class="cls-2" d="M441.68,524A118.63,118.63,0,0,1,561.43,406.5"/><path class="cls-3" d="M667.36,521.39A108.45,108.45,0,1,1,558.92,413,108.46,108.46,0,0,1,667.36,521.39Z"/><path class="cls-4" d="M559,359.94c-168.29,0-304.69,161.45-304.69,161.45S390.66,682.83,559,682.83,863.6,521.39,863.6,521.39,727.2,359.94,559,359.94Z"/><path class="cls-5" d="M685.12,455.6a49.34,49.34,0,1,1-49.36-49.34A49.32,49.32,0,0,1,685.12,455.6Z"/><path class="cls-5" d="M548,548.7a29.9,29.9,0,1,1-29.89-29.92A29.87,29.87,0,0,1,548,548.7Z"/><path class="cls-6" d="M861.73,429.13a7.22,7.22,0,0,1-3.6-13.48l32.36-18.6a7.22,7.22,0,0,1,7.19,12.52l-32.36,18.6A7.19,7.19,0,0,1,861.73,429.13Z"/><path class="cls-6" d="M725.16,334.72a7.23,7.23,0,0,1-6.26-10.84l23.52-38.27a7.22,7.22,0,1,1,12.49,7.24l-23.5,38.27A7.25,7.25,0,0,1,725.16,334.72Z"/><path class="cls-6" d="M560.81,304.69h0a7.24,7.24,0,0,1-7.21-7.23l.08-61.26a7.21,7.21,0,0,1,7.22-7.2h0a7.2,7.2,0,0,1,7.19,7.23L568,297.48A7.24,7.24,0,0,1,560.81,304.69Z"/><path class="cls-6" d="M396,328.55a7.22,7.22,0,0,1-6.27-3.61L365.17,286.6a7.22,7.22,0,1,1,12.52-7.19l24.58,38.32a7.21,7.21,0,0,1-2.66,9.86A7.06,7.06,0,0,1,396,328.55Z"/><path class="cls-6" d="M259.71,418.45a7.07,7.07,0,0,1-3.61-1l-32.29-18.72a7.22,7.22,0,0,1,7.25-12.49L263.34,405a7.21,7.21,0,0,1-3.63,13.46Z"/></svg>