<svg id="Layer_1" data-name="Layer 1" xmlns="http://www.w3.org/2000/svg" viewBox="0 0 1075.94 1050"><defs><style>.cls-1,.cls-3,.cls-4{fill:#002554;}.cls-1,.cls-4{stroke:#002554;}.cls-1{stroke-linecap:round;stroke-linejoin:round;stroke-width:5px;}.cls-2{fill:#f8a700;}.cls-4{stroke-miterlimit:10;stroke-width:4px;}.cls-5{fill:#0057b8;}</style></defs><title>Owl-icons-secondary-RGB-process-execution</title><path class="cls-1" d="M657.94,779H484.82l9.4-10c39.12-41.41,58.58-95.41,59.42-165-22.81-6-37.88-25.18-55.15-47.18-13.18-16.78-28.11-35.8-48.86-51.43-6.77-5.11-14.31-9.41-22.3-14-17.89-10.21-38.18-21.79-52.57-45.27-22.67-37-35.23-85.85-35.37-137.52l-.06-19.34h54.46c-.66-8.91-1.15-17.82-1.48-26.56l-.23-6.1,6.11,0a20.41,20.41,0,0,0,20.39-21.22l-.25-6.14H730l-.25,6.14a20.41,20.41,0,0,0,20.39,21.22l6.11,0-.23,6.1c-.33,8.79-.82,17.71-1.47,26.56h55.21l-.06,19.34c-.15,51.69-12.71,100.52-35.38,137.52-14.54,23.73-35.07,35.28-53.18,45.47-8.07,4.54-15.69,8.82-22.54,13.93-21,15.69-36.18,34.78-49.55,51.64-17.64,22.24-33,41.65-56.35,47.25.72,76.5,18.56,130.27,54.46,164.28Zm-146.28-11.8H629.29C596.76,730,580.91,675,580.91,599.66v-5.09l5-.75c21.6-3.17,35.85-21.14,53.89-43.89,13.81-17.41,29.47-37.16,51.74-53.77,7.45-5.55,15.76-10.23,23.8-14.75,17.68-9.94,36-20.23,48.91-41.35,21.55-35.17,33.49-81.83,33.63-131.39l0-7.49H741.8l.52-6.38c.73-8.94,1.3-17.95,1.71-26.89a32.29,32.29,0,0,1-25.72-26.78H430.05a32.29,32.29,0,0,1-25.71,26.78c.4,8.88,1,17.9,1.7,26.89l.53,6.38h-55.4l0,7.49c.14,49.55,12.08,96.21,33.63,131.39,12.82,20.9,30.89,31.22,48.36,41.19,8,4.54,16.19,9.24,23.55,14.78,22,16.58,37.42,36.24,51,53.58,17.68,22.51,31.65,40.3,52.79,43.9l4.91.84v5C565.47,668.88,547.85,724,511.66,767.19ZM718.18,458.05c-3.2,0-13.64-1.33-13.64-18.4v-1.13l.42-1c2.72-6.87,5.33-13.21,7.81-19.25,12.56-30.54,21.62-52.6,26.9-96.89l.62-5.21h42.64l-.3,6.19c-2,41.53-13.09,80.57-31.08,109.94C745,443,730.29,458.05,718.18,458.05Zm-1.81-17.34c.09,1.87.43,5.54,1.81,5.54,5,0,16.46-9,23.31-20.16,16.08-26.27,26.29-60.92,29-98.17H750.74c-5.58,42.54-15.11,65.73-27,94.79C721.35,428.37,718.92,434.31,716.37,440.71ZM430,456.18c-11.12,0-25.23-12.16-32.43-23.93-18-29.36-29-68.41-31.09-109.94l-.3-6.19h41.9l.62,5.21c5.23,44,14.2,65.86,26.62,96.15,2.5,6.09,5.12,12.49,7.86,19.42l.41,1.05v1.12C443.59,455,433.19,456.18,430,456.18ZM378.65,327.92c2.68,37.25,12.89,71.9,29,98.17,6.21,10.13,17.31,18.29,22.37,18.29,1.26,0,1.67-2.12,1.76-4.24-2.56-6.47-5-12.47-7.36-18.18-11.82-28.82-21.24-51.82-26.77-94Z"/><path class="cls-2" d="M532.78,757.15c16.62-27.69,32-65,39.59-108.39,5.27,43.34,16.89,80.16,34.17,108.39Z"/><path class="cls-2" d="M562.54,581.88c-16.65-2.84-29.38-19-45.48-39.55C503,524.4,487,504.1,463.84,486.61c-8-6-16.53-10.89-24.8-15.61l-5.64-3.23c11.43-1.48,22-10.52,22-28.69V435.7l-1.23-3.13c-2.76-7-5.39-13.42-7.91-19.55-12.07-29.44-20.79-50.7-25.83-93.09L418.88,307l-1.08-13.19c-.47-5.87-.88-11.74-1.21-17.56A44.56,44.56,0,0,0,439,252.94H709.39a44.53,44.53,0,0,0,22.39,23.35q-.51,8.77-1.22,17.55l-1.09,13.27L728,319.93c-5.09,42.7-13.9,64.15-26.11,93.83-2.5,6.08-5.12,12.46-7.86,19.36l-1.24,3.15v3.38c0,17.92,9.43,27.34,20.11,29.64l-3.26,1.84c-8.36,4.7-17,9.57-25.07,15.57-23.5,17.53-39.67,37.92-53.93,55.9-16.42,20.7-29.38,37-46.36,39.54l-10.8,1.59Z"/><path class="cls-1" d="M691.15,823.77H443.61V812a43.79,43.79,0,0,1,43.6-43.91H659.35A43.64,43.64,0,0,1,703,811.65v11.79ZM455.41,812H691.15v-.32a31.83,31.83,0,0,0-31.8-31.79H487.21A32,32,0,0,0,455.41,812Z"/><path class="cls-3" d="M632.67,358.61H516.44a5.9,5.9,0,1,1,0-11.8H632.67a5.9,5.9,0,1,1,0,11.8Z"/><path class="cls-3" d="M632.67,386.83H516.44a5.9,5.9,0,0,1,0-11.8H632.67a5.9,5.9,0,1,1,0,11.8Z"/><path class="cls-3" d="M632.67,415.06H516.44a5.9,5.9,0,0,1,0-11.8H632.67a5.9,5.9,0,1,1,0,11.8Z"/><path class="cls-4" d="M718.46,696a5.86,5.86,0,0,1-5.85-5.56c-2-39.62-30.63-68.7-68.06-69.14a5.86,5.86,0,0,1,.06-11.71c37.56,0,68.3-33.15,68.54-73.89a5.86,5.86,0,0,1,5.86-5.82c3.23,0,6.33,2.61,6.33,5.85,0,37.83,31.71,72.3,66.51,72.3a5.86,5.86,0,1,1,0,11.72c-35,0-66.58,33-67.54,70.54a5.85,5.85,0,0,1-5.78,5.71Zm-44.52-80.68c20.46,8.23,36.42,24.76,44.56,46.24,8.54-21.46,25.54-39.16,45.91-47.81C744.57,605,728,587.3,719.53,566.08,711.45,588.55,694.8,606.52,673.94,615.36Z"/><path class="cls-4" d="M809.76,716.92a5.86,5.86,0,0,1-5.85-5.57c-.75-15-11.47-25.91-25.49-26.06a5.87,5.87,0,0,1,.07-11.73c14,0,25.55-12.52,25.64-27.92a5.86,5.86,0,0,1,5.86-5.83,6,6,0,0,1,6.06,5.85c0,14.26,11.81,27.24,24.78,27.24a5.86,5.86,0,0,1,0,11.72c-12.84,0-24.86,12.67-25.21,26.59a5.88,5.88,0,0,1-5.79,5.71Zm-11.6-37.64a37,37,0,0,1,11.71,12.08,41,41,0,0,1,12.24-12.63,40.41,40.41,0,0,1-11.84-12.39A38.93,38.93,0,0,1,798.16,679.28Z"/><path class="cls-4" d="M497.68,272.94a6.88,6.88,0,0,1-6.86-6.53C489,231.19,463.63,205.35,430.41,205a6.87,6.87,0,0,1,.08-13.74c33.32,0,60.6-29.47,60.83-65.71a6.87,6.87,0,0,1,6.87-6.83c3.79,0,7.3,3.07,7.3,6.87,0,33.62,28.11,64.25,59,64.25a6.88,6.88,0,0,1,0,13.75c-31.07,0-59.06,29.29-59.92,62.69a6.88,6.88,0,0,1-6.78,6.7Zm-36.68-75a73.61,73.61,0,0,1,36.77,38.12c7.79-17.2,21.48-31.46,37.83-39.4-16.05-7.92-29.38-22.05-37-39.15C491.14,175.41,477.68,189.87,461,197.93Z"/><path class="cls-5" d="M718.62,647.88A84.39,84.39,0,0,0,687,615.23a90.14,90.14,0,0,0,32.75-35.17,95.82,95.82,0,0,0,32,33.63A95,95,0,0,0,718.62,647.88Z"/><path class="cls-5" d="M809.88,681.61c-.75-.83-1.53-1.63-2.33-2.39,1-.94,1.92-2,2.83-3,.76.85,1.55,1.67,2.37,2.45C811.75,679.62,810.8,680.59,809.88,681.61Z"/><path class="cls-5" d="M497.87,221.59a80.64,80.64,0,0,0-23.08-23.77,84.68,84.68,0,0,0,24-25.59,88.19,88.19,0,0,0,23.31,24.36A89.54,89.54,0,0,0,497.87,221.59Z"/></svg>