<svg id="Layer_1" data-name="Layer 1" xmlns="http://www.w3.org/2000/svg" viewBox="0 0 525.94 513.26"><defs><style>.cls-1{fill:#0057b8;}</style></defs><title>Owl-icons-secondary-RGB-quotes</title><path class="cls-1" d="M64.59,448.49q27.16-35.14,51.17-99.13t24-126.31q0-19.19-1.6-28.78-20.8,9.6-40,9.6-32,0-52.77-22.39t-20.78-56q0-43.17,25.58-67.95t62.36-24.78q52.76,0,83.14,40.77t30.37,104.73q0,65.58-34.37,158.28t-83.94,143.9Zm281.4,0q27.17-35.14,51.16-99.13t24-126.31c0-12.79-.55-22.38-1.59-28.78q-20.81,9.6-40,9.6-32,0-52.77-22.39t-20.78-56q0-43.17,25.58-67.95T394,32.79q52.77,0,83.14,40.77t30.38,104.73q0,65.58-34.37,158.28t-83.94,143.9Z"/></svg>