<svg id="Layer_1" data-name="Layer 1" xmlns="http://www.w3.org/2000/svg" viewBox="0 0 1075.94 1050"><defs><style>.cls-1{fill:none;stroke:#fff;stroke-miterlimit:10;stroke-width:22px;}</style></defs><title>Owl-icons-primary-RGB-SC_Icon_SegTar_White_RGB</title><path class="cls-1" d="M592.73,562.81C598.44,603,559.15,603,559.15,603l-65.89-65.9-18.78-18.78L378.19,422l-18.56-18.57-77.36-77.36-56,1.45L96.63,192.23l78.86-11.49,12.59-77.15L319.64,236.16l.13,52.72,77.47,77.47L416,384.42l95.8,96.46,18.45,18.89,15.15,15.14,4.75-2.28a73.11,73.11,0,0,1,25.61-4c41.46.87,73.06,37.25,71.42,78.68-1.35,34.24-16.75,56.55-51.5,72.7-44,20.46-98.95-10.28-95.61-61.53L432.71,531c-6.77,17.22-10.49,31-10.49,50.67A151.94,151.94,0,0,0,580.08,733.52c78.75-3,142.91-67.15,145.91-145.9,3.28-86.62-64.72-157.86-150.6-157.86-16.88,0-26.06-1.24-43.36,7.83l-67.49-64.94c34.4-22.28,71-28.28,109.62-28.28,133.38,0,240.8,113.66,234.6,248.42-5.53,120.32-103.19,218-223.51,223.51C450.5,822.5,339.3,715.08,339.3,581.7c0-10.59,3.12-49.64,36.16-105.65l-68.27-70.4-13.91,21.53a292.74,292.74,0,0,0-38.7,88.38c-.06.23-.12.47-.17.71-4.82,19.38-7.35,41.66-7.35,65.43,0,182.2,149,329.61,331.76,327.06C755,906.31,898.77,762.53,901.22,586.35,903.77,403.57,756.36,254.6,574.16,254.6c-36.35,0-71.31,3.27-104,14.21,0,0-50.7,16.83-71.26,40.81"/></svg>