<svg id="Layer_1" data-name="Layer 1" xmlns="http://www.w3.org/2000/svg" viewBox="0 0 1075.94 1050"><defs><style>.cls-1{fill:#ffb81c;}.cls-2{fill:#002554;}</style></defs><title>Owl-icons-secondary-RGB-Artboard 34</title><path class="cls-1" d="M949.92,744.56c-11.59-7.21-26.76-12.91-45.08-17.73-5.45-1.43-11.21-2.76-17.2-4,6.67-3.31,13-6.64,18.85-10,16.45-9.41,29.62-18.85,38.94-28.82s16.13-22,12.61-35.15-15.45-20.2-28.5-24.16-29.17-5.46-48.13-5.46c-6.56,0-13.48.28-20.68.77,9.44-7.8,18-15.51,25.54-23,13.46-13.32,23.74-25.85,30.17-37.88s9.86-25.45,3.06-37.23-20.14-15.49-33.79-16-29.61,2.18-47.89,7.17a431,431,0,0,0-52.45,18.46c20.42-24,37.19-47.15,49.27-67.86,9.55-16.37,16.24-31.13,19.34-44.41s2.94-27.15-6.68-36.77-23.46-9.75-36.75-6.65-28,9.78-44.41,19.33q-5.77,3.38-11.8,7.23c2.42-7.13,4.54-14,6.35-20.62,5-18.29,7.63-34.26,7.17-47.9s-4.16-27-15.94-33.78-25.2-3.35-37.24,3.07-24.55,16.71-37.9,30.18q-2.49,2.52-5,5.18c.07-2.17.07-4.33.07-6.44.13-19-1.5-35.07-5.46-48.14s-11-25-24.17-28.49S617,258.78,607,268.09s-19.39,22.51-28.79,39c-3.22,5.63-6.42,11.67-9.58,18-1.66-8.7-3.5-16.95-5.51-24.61-4.83-18.33-10.53-33.49-17.74-45.07s-17.09-21.28-30.69-21.28l0-.06c-13.6,0-23.51,9.68-30.72,21.27s-12.91,26.74-17.73,45.08c-.52,2-1,4.05-1.54,6.12-9.31-16.24-18.67-29.27-28.54-38.51s-22-16.1-35.18-12.58-20.18,15.41-24.15,28.47-5.54,29.19-5.45,48.12c0,2.11.09,4.27.09,6.46-1.69-1.79-3.37-3.52-5-5.22-13.34-13.45-25.84-23.71-37.88-30.14s-25.46-9.87-37.24-3.07-15.51,20.14-16,33.78,2.18,29.61,7.17,47.89c1.79,6.59,3.92,13.47,6.33,20.6-4-2.55-7.92-5-11.76-7.21-16.37-9.55-31.11-16.24-44.41-19.34s-27.14-3-36.76,6.67-9.77,23.48-6.67,36.78,9.78,28,19.33,44.4c12.08,20.71,28.86,43.89,49.29,67.87a431.57,431.57,0,0,0-52.45-18.46c-18.29-5-34.29-7.61-47.92-7.16s-27,4.16-33.78,15.94-3.36,25.2,3.07,37.24S143.56,583.63,157,597c7.53,7.47,16.09,15.15,25.51,22.95-7.19-.47-14.11-.67-20.66-.76-19,0-35.06,1.48-48.12,5.45s-25,11-28.5,24.16,3.27,25.22,12.6,35.18,22.48,19.38,38.93,28.79c5.87,3.36,12.19,6.7,18.87,10-6,1.26-11.75,2.59-17.2,4-18.33,4.83-33.49,10.53-45.08,17.73S72.1,761.6,72.1,775.21s9.68,23.5,21.27,30.72,26.75,12.9,45.08,17.73C175.1,833.3,224.39,839,278.87,839s103.77-5.73,140.43-15.37c18.32-4.83,33.49-10.51,45.07-17.73s21.28-17.12,21.28-30.72a27.62,27.62,0,0,0-3.42-13.3,27.69,27.69,0,0,0,2.47-6.12c2.35-8.79,0-17.08-4.5-24.6.61-.87,1.2-1.7,1.73-2.62,6.8-11.78,3.36-25.2-3.07-37.23a101.06,101.06,0,0,0-5.3-8.75,27.91,27.91,0,0,0,22.73-23.48,17.26,17.26,0,0,0,1.85-1,23.68,23.68,0,0,0,3.47-2.39,24.37,24.37,0,0,0,6.47-.87,28,28,0,0,0,13.31-8.11h.41a28.1,28.1,0,0,0,13.4,8.2,23.76,23.76,0,0,0,6.44.87,27.4,27.4,0,0,0,3.5,2.41,13.7,13.7,0,0,0,1.85,1,27.93,27.93,0,0,0,22.71,23.45q-3,4.41-5.3,8.74c-6.42,12-9.84,25.45-3,37.23a23,23,0,0,0,1.74,2.63c-4.55,7.52-6.87,15.82-4.52,24.62a27.07,27.07,0,0,0,2.48,6.11,27.57,27.57,0,0,0-3.42,13.28c0,13.61,9.68,23.5,21.27,30.72s26.74,12.91,45.06,17.73c36.65,9.65,86,15.38,140.45,15.38s103.77-5.73,140.42-15.38c18.32-4.82,33.49-10.51,45.08-17.73s21.25-17.11,21.25-30.72S961.51,751.78,949.92,744.56Z"/><path class="cls-2" d="M514.75,233.12c-13.6,0-23.51,9.69-30.72,21.28s-12.91,26.74-17.73,45.08c-.52,2-1,4-1.54,6.12-9.31-16.24-18.67-29.27-28.54-38.52S414.18,251,401,254.5,380.86,269.92,376.89,283s-5.54,29.19-5.45,48.13c0,2.11.09,4.27.09,6.45q-2.53-2.67-5-5.21c-13.34-13.45-25.84-23.71-37.88-30.14s-25.46-9.87-37.24-3.07-15.51,20.14-16,33.78,2.18,29.61,7.17,47.89c1.79,6.59,3.92,13.47,6.33,20.6-4-2.55-7.92-5-11.76-7.21-16.37-9.55-31.11-16.25-44.41-19.34s-27.14-3-36.76,6.67-9.77,23.47-6.67,36.77,9.78,28,19.33,44.41c12.08,20.71,28.86,43.89,49.29,67.87a429.87,429.87,0,0,0-52.45-18.46c-18.29-5-34.29-7.61-47.92-7.16s-27,4.16-33.78,15.94-3.36,25.2,3.07,37.24S143.56,582.69,157,596c7.53,7.47,16.09,15.15,25.51,23-7.19-.47-14.11-.68-20.66-.77-19,0-35.06,1.49-48.12,5.46s-25,11-28.5,24.16S88.52,673,97.85,683s22.48,19.38,38.93,28.79c5.88,3.36,12.19,6.7,18.87,10-6,1.25-11.75,2.59-17.2,4-18.33,4.82-33.49,10.53-45.08,17.73S72.1,760.66,72.1,774.27s9.68,23.5,21.27,30.72,26.75,12.9,45.08,17.73c36.65,9.63,85.94,15.37,140.42,15.37s103.77-5.74,140.43-15.37c18.32-4.83,33.49-10.52,45.07-17.73s21.28-17.12,21.28-30.72a27.62,27.62,0,0,0-3.42-13.3,27.69,27.69,0,0,0,2.47-6.12c2.35-8.79,0-17.09-4.5-24.6.61-.87,1.2-1.7,1.73-2.63,6.8-11.77,3.36-25.19-3.07-37.22a101.06,101.06,0,0,0-5.3-8.75,27.91,27.91,0,0,0,22.73-23.48,17.26,17.26,0,0,0,1.85-1,23.68,23.68,0,0,0,3.47-2.39,24.37,24.37,0,0,0,6.47-.87,28,28,0,0,0,13.31-8.12h.41A28.12,28.12,0,0,0,535.2,654a23.76,23.76,0,0,0,6.44.87,28.47,28.47,0,0,0,3.5,2.41,13.7,13.7,0,0,0,1.85,1,27.93,27.93,0,0,0,22.71,23.45q-3,4.41-5.3,8.74c-6.42,12-9.84,25.44-3,37.23a25,25,0,0,0,1.74,2.63c-4.55,7.52-6.87,15.82-4.52,24.62a26.8,26.8,0,0,0,2.48,6.1,27.64,27.64,0,0,0-3.42,13.29c0,13.61,9.68,23.5,21.27,30.72S605.65,818,624,822.79c36.65,9.65,86,15.37,140.45,15.37s103.77-5.72,140.42-15.37c18.32-4.82,33.49-10.51,45.08-17.73s21.25-17.11,21.25-30.72-9.66-23.5-21.25-30.72-26.76-12.91-45.08-17.73c-5.45-1.43-11.21-2.76-17.2-4,6.67-3.3,13-6.64,18.85-10,16.45-9.41,29.62-18.86,38.94-28.82S961.56,661,958,647.9s-15.45-20.19-28.5-24.16-29.17-5.45-48.13-5.45c-6.56,0-13.48.27-20.68.77,9.44-7.8,18-15.51,25.54-23,13.46-13.32,23.74-25.85,30.17-37.88s9.86-25.45,3.06-37.23-20.14-15.49-33.79-16-29.61,2.18-47.89,7.17a429.28,429.28,0,0,0-52.45,18.46c20.42-24,37.19-47.15,49.27-67.86,9.55-16.37,16.24-31.13,19.34-44.41s2.94-27.15-6.68-36.77-23.46-9.76-36.75-6.66-28,9.78-44.41,19.34c-3.85,2.25-7.79,4.67-11.8,7.22,2.42-7.13,4.54-14,6.35-20.62,5-18.28,7.63-34.26,7.17-47.9s-4.16-27-15.94-33.77-25.2-3.35-37.24,3.07-24.55,16.7-37.9,30.17c-1.65,1.69-3.33,3.42-5,5.19.07-2.18.07-4.33.07-6.44.13-19-1.5-35.07-5.46-48.14s-11-25-24.17-28.49S617,257.83,607,267.15s-19.39,22.5-28.79,39c-3.22,5.63-6.42,11.67-9.58,18-1.66-8.7-3.5-16.95-5.51-24.61-4.83-18.33-10.53-33.49-17.74-45.08s-17.09-21.27-30.69-21.27Zm0,25.53c.49,0,4,1.2,9,9.24s10.3,21.3,14.71,38.09c4.6,17.44,8.33,38.73,10.87,62.54a705.22,705.22,0,0,0-22.29,69.19q-2.93,10.89-5.43,21.54-2.53-10.65-5.43-21.53c-9.42-35.13-20.71-67.36-32.76-94.71A373.82,373.82,0,0,1,491,306c4.42-16.79,9.72-30.05,14.72-38.09s8.55-9.24,9.05-9.24Zm-107.1,20.51c.48-.07,4.21,0,11.13,6.57s15.46,17.92,24.07,33c4.72,8.28,9.49,17.67,14.21,27.94a674.22,674.22,0,0,0-6.14,93.27v8c-.3-.54-.62-1.09-.92-1.64a682.34,682.34,0,0,0-50.6-76A375.88,375.88,0,0,1,396.92,331c-.1-17.35,1.61-31.52,4.35-40.6s5.86-11.11,6.34-11.24Zm228,0c.48.14,3.59,2.2,6.35,11.26s4.46,23.24,4.37,40.6c-.14,11.75-.9,25-2.49,39.33a676.9,676.9,0,0,0-50.59,75.94q-8.24,14.26-15.51,28.25c.52-11.25.81-22.81.81-34.63,0-23.82-1.1-46.67-3.14-67.89a420.1,420.1,0,0,1,25-53.3c8.62-15.07,17.17-26.5,24.09-33s10.62-6.68,11.11-6.59ZM305.09,321c1.59-.07,5.22.27,11.49,3.67,8.36,4.46,19.57,13.29,31.79,25.62a377,377,0,0,1,26.53,30.17,679.52,679.52,0,0,0,18,90.26q3.42,12.75,7.16,24.95-6.24-6.54-12.76-13.08a690.07,690.07,0,0,0-60.49-54,418.76,418.76,0,0,1-19.62-54.5c-4.57-16.75-6.6-30.87-6.29-40.34s2.78-12.24,3.21-12.49a3.19,3.19,0,0,1,.95-.2Zm432.14,0a4.47,4.47,0,0,1,1.92.2c.41.27,2.9,3,3.21,12.49s-1.73,23.6-6.29,40.34a419.3,419.3,0,0,1-19.64,54.52,691.51,691.51,0,0,0-60.46,54q-6.54,6.53-12.77,13.08,3.74-12.22,7.17-25a679.08,679.08,0,0,0,18-90.25,379,379,0,0,1,26.52-30.17c12.22-12.32,23.44-21.16,31.8-25.62,5.22-2.79,8.6-3.56,10.51-3.66ZM477.66,398.65c4.94,14.44,9.63,29.74,13.89,45.66a654.82,654.82,0,0,1,17.2,85.88c-1.76,14.61-2.78,28.34-3.08,41-6-20.71-14.9-44.08-26.44-68.88-1.78-19.51-2.77-40.51-2.77-62.38C476.46,425.72,476.88,411.92,477.66,398.65Zm-258.78,0a36.71,36.71,0,0,1,8,1.06c9.22,2.14,22.35,7.78,37.34,16.51a404,404,0,0,1,41.8,28.58,702.94,702.94,0,0,0,33.44,65.3c27.23,47.18,56.84,87,83.52,113.93,13.34,13.47,25.86,23.74,37.89,30.17,1.8,1,3.62,1.81,5.47,2.61a36.08,36.08,0,0,1-8.92-1c-2.36-.61-5-1.32-7.83-2.33a7.17,7.17,0,0,1-.93-1C421.78,625.82,382,596.24,334.77,569q-6.19-3.57-12.33-7-3.66-3.56-7.32-7.2c-37.24-37.24-66.94-75-84.42-105-8.75-15-14.37-28.12-16.52-37.35s-.48-12.57-.19-12.91,1.63-1,4.89-1Zm605.51,0c3.26,0,4.65.68,4.86,1,.4.41,2,3.71-.07,12.93s-7.78,22.35-16.53,37.34c-17.47,30-47.19,67.73-84.43,105q-3.66,3.67-7.34,7.25-6.14,3.38-12.29,6.93c-47.19,27.23-87,56.85-114,83.53a7.84,7.84,0,0,0-.92,1,75.15,75.15,0,0,1-7.81,2.33,32.23,32.23,0,0,1-9,1c1.85-.77,3.69-1.67,5.49-2.63,12-6.43,24.56-16.7,37.9-30.17,26.68-26.92,56.28-66.74,83.53-113.93a708.7,708.7,0,0,0,33.4-65.22,401.87,401.87,0,0,1,41.8-28.58c15-8.74,28.11-14.36,37.34-16.51a34.28,34.28,0,0,1,8.05-1.13ZM408.88,427.92c6.43,9.91,12.81,20.3,19.05,31.11,9.83,17,18.62,33.86,26.26,50a475.92,475.92,0,0,0,11,66.79Q457,563.45,447,550.3a649.34,649.34,0,0,1-29.4-86.17C414.27,451.83,411.39,439.71,408.88,427.92Zm225.51,0c-2.5,11.77-5.4,23.86-8.69,36.15a651.83,651.83,0,0,1-29.4,86.23,420.67,420.67,0,0,0-28.76,42.45,225.06,225.06,0,0,0-12.8,25,123.31,123.31,0,0,1,1.9-16.34q3.54-9.75,6.54-21.18c1.61-6.12,3.1-12.63,4.49-19.42C578,531,594.32,495.45,615.37,459c6.23-10.78,12.6-21.15,19-31.06ZM553,439.51v.27c0,43-3.82,82.73-10,114.13q-3,8.87-5.4,17.16c-.3-12.63-1.32-26.37-3.08-41a654.62,654.62,0,0,1,17.2-85.89c.42-1.59.87-3.15,1.31-4.74ZM356.4,488.1q6.41,6.09,12.82,12.5h0a660.65,660.65,0,0,1,55.54,62.75,407.39,407.39,0,0,0,19.33,39c3.12,5.47,6.24,10.54,9.39,15.26-4-3.41-8.1-7.29-12.38-11.59-24.43-24.67-53.21-63.11-79.54-108.72-1.77-3.07-3.5-6.14-5.2-9.18Zm330.49,0q-2.55,4.57-5.2,9.18c-26.33,45.6-55.12,84.06-79.56,108.7-4.26,4.3-8.39,8.15-12.32,11.57,3.13-4.71,6.24-9.76,9.35-15.21a407.39,407.39,0,0,0,19.33-39A661.75,661.75,0,0,1,674,500.59h0q6.43-6.45,12.87-12.55Zm194.22,42.27h3.77c9.47.27,12.26,2.82,12.51,3.21s1,4.1-3.47,12.45-13.29,19.57-25.62,31.79c-14.69,14.56-34.32,30.67-57.41,46.88a702.76,702.76,0,0,0-69.1,15c-52.62,14.09-98.75,32.39-131.66,51.19a220.06,220.06,0,0,0-25.61,16.84,43.62,43.62,0,0,1,2.42-5.31c3.89-7.27,11.08-16.72,21-27.09A214.53,214.53,0,0,0,636,661.23c29.86-17.42,64.88-44.62,100-78.49,40.28-22,78.62-37.93,108.46-46.08,14.65-4,27.31-6,36.58-6.29Zm-722.7,0c9.47-.27,23.61,1.71,40.35,6.29,29.86,8.14,68.22,24.08,108.51,46.1,35.15,33.85,70.11,61,100,78.44a214.84,214.84,0,0,0,28.12,14.08c9.93,10.38,17.12,19.82,21,27.11a42.39,42.39,0,0,1,2.41,5.28,219.46,219.46,0,0,0-25.6-16.82c-32.91-18.81-79-37.11-131.66-51.2-24-6.44-47.31-11.43-69.13-15-23.08-16.19-42.69-32.3-57.38-46.86-12.33-12.2-21.16-23.41-25.63-31.77s-3.72-12-3.47-12.45,3-2.9,12.51-3.21Zm3.34,113.3c17.44.07,38.13,1.88,60.85,5.34,15,10.29,31.16,20.54,48.35,30.46a709.88,709.88,0,0,0,64.55,33.1c-18-1.41-36.95-2.17-56.63-2.17a703.56,703.56,0,0,0-76.5,4,418.57,418.57,0,0,1-52.92-24.85c-15.06-8.61-26.5-17.17-33-24.09s-6.7-10.62-6.56-11.11,2.17-3.58,11.24-6.33,23.25-4.45,40.59-4.38Zm719.77,0c17.35,0,31.53,1.61,40.59,4.37s11.14,5.85,11.26,6.33-.07,4.2-6.58,11.12-17.9,15.48-33,24.09a416.56,416.56,0,0,1-52.88,24.83,701.29,701.29,0,0,0-76.52-4c-19.68,0-38.66.77-56.62,2.17a707.4,707.4,0,0,0,64.54-33.11c17.18-9.91,33.36-20.14,48.31-30.43,22.73-3.46,43.43-5.23,60.87-5.34ZM297.25,664.94c49.89,13.53,93.58,31.1,123.25,48,1.74,1,3.42,2,5.06,3-5.7-1-11.92-2.43-18.58-4.25C376.82,703.5,338,687.3,297.25,664.94Zm448.77,0c-40.73,22.36-79.55,38.53-109.7,46.76-6.64,1.82-12.85,3.2-18.54,4.23,1.62-1,3.28-2,5-2.94,29.66-17,73.37-34.5,123.24-48ZM278.87,735.89c52.67,0,100.39,5.69,134,14.53a211.18,211.18,0,0,1,21.77,6.94,195,195,0,0,1-26.39,1.51c-34.71-.06-82.25-7-133.12-20.62-2.75-.78-5.46-1.48-8.17-2.25,4,0,7.94-.06,12-.06Zm485.55,0c4,0,8,0,12,.07-2.71.77-5.44,1.51-8.19,2.25-50.87,13.63-98.44,20.53-133.13,20.62a199,199,0,0,1-26.43-1.5,208.68,208.68,0,0,1,21.81-7c33.56-8.83,81.28-14.53,133.95-14.53ZM199,740.53a700.61,700.61,0,0,0,69.44,22.37c52.62,14.11,101.72,21.33,139.62,21.5,19,0,35.07-1.49,48.13-5.46.23,0,.45-.2.67-.2a37.53,37.53,0,0,1-6,4.53c-8,5-21.3,10.3-38.09,14.72-33.56,8.82-81.28,14.52-133.94,14.52S178.51,806.81,144.94,798c-16.78-4.42-30-9.72-38.08-14.72s-9.24-8.56-9.24-9.06,1.19-4,9.24-9,21.3-10.32,38.08-14.74A413.63,413.63,0,0,1,199,740.56Zm645.23,0a411.48,411.48,0,0,1,54.08,9.89c16.78,4.42,30,9.72,38.08,14.73s9.23,8.55,9.23,9-1.18,4-9.23,9-21.3,10.31-38.08,14.73c-33.57,8.83-81.26,14.52-133.92,14.52S664,806.79,630.47,798c-16.78-4.42-30-9.72-38.08-14.73a36.48,36.48,0,0,1-6-4.54c.24,0,.46.21.7.27,13.07,4,29.19,5.49,48.14,5.49,37.91-.2,87-7.42,139.61-21.51a710.41,710.41,0,0,0,69.44-22.37Z"/></svg>