<svg id="Layer_1" data-name="Layer 1" xmlns="http://www.w3.org/2000/svg" viewBox="0 0 1075.94 1050"><defs><style>.cls-1{fill:#ffb81c;}.cls-1,.cls-2{stroke:#002554;stroke-miterlimit:10;stroke-width:16.67px;}.cls-2{fill:#002554;}</style></defs><title>Owl-icons-secondary-RGB-Artboard 38</title><path class="cls-1" d="M534.81,415.49l-82.44-82.44c-7.53-7.55-13.64-13.82-13.64-14s-33.33-62.84-82.12-94.85-35-57.93-35-83.84c0-21.83-27.06-27.44-45.61-3.13-6.47,8.46-12.82,24.91-14.1,35.49-3.86,32.17,17.2,53.6,24.92,65.2,5.24,7.86,8.28,22.42,2.81,40.51H147.05a29.6,29.6,0,1,0,0,59.2,29.6,29.6,0,1,0,0,59.19,29.61,29.61,0,0,0,0,59.21,29.6,29.6,0,1,0,0,59.19H231v.15H374.52c10.62,0,25.45,6.14,33,13.64l6.91,6.93a19.33,19.33,0,0,0,27.31,0l93.12-93.15A19.3,19.3,0,0,0,534.81,415.49Z"/><path class="cls-1" d="M586.76,479.05l-.25-.26a17.69,17.69,0,0,0-25,0l-85.37,85.38a17.7,17.7,0,0,0,0,25l.25.24a17.67,17.67,0,0,0,25,0l85.37-85.38A17.67,17.67,0,0,0,586.76,479.05Z"/><g id="_Group_" data-name="&lt;Group&gt;"><path class="cls-2" d="M428,548.78A26.44,26.44,0,0,1,409.29,541l-6.93-6.93c-6.12-6.12-19.14-11.51-27.84-11.51H231V508.16H374.52c12.5,0,29.22,6.92,38.06,15.74l6.92,6.94a12.13,12.13,0,0,0,17.1,0l93.11-93.14a12.08,12.08,0,0,0,0-17.09l-82.44-82.43c-11-11.07-14.36-14.39-15.34-16.51-3.4-6.22-35-62.38-79.28-91.42-43.7-28.67-41.28-54.15-39.15-76.62.44-4.61.84-9,.84-13.25,0-5.66-2.49-9.62-7-11.14-6.42-2.19-16.81.82-25.63,12.38-5.49,7.16-11.52,22.39-12.68,32-2.91,24.35,10.37,42.17,19.16,54,1.77,2.36,3.36,4.49,4.61,6.37,7.65,11.5,9,28.92,3.7,46.6L295,285.65H231V271.21h53c2.9-13.5.41-23.82-3.23-29.29-1.12-1.69-2.57-3.61-4.15-5.74-9.56-12.81-25.54-34.25-21.93-64.32,1.47-12.26,8.44-29.77,15.54-39,11.56-15.16,27.95-22,41.74-17.3,10.35,3.51,16.79,13,16.79,24.83,0,5-.45,9.87-.91,14.61-2,21.08-3.71,39.29,32.72,63.19,42.5,27.9,76.05,80.35,83.71,96.43l.06,0c.63.73,5.14,5.39,13.13,13.41l82.44,82.43a26.51,26.51,0,0,1,0,37.51L446.8,541A26.5,26.5,0,0,1,428,548.78Z"/></g><g id="_Group_2" data-name="&lt;Group&gt;"><path class="cls-2" d="M488.89,601.86h0a24.73,24.73,0,0,1-17.63-7.32,25,25,0,0,1-.25-35.47l85.37-85.38c9.4-9.4,25.82-9.41,35.24,0a24.94,24.94,0,0,1,7.55,17.87,24.68,24.68,0,0,1-7.3,17.62L506.5,594.56A24.74,24.74,0,0,1,488.89,601.86Zm85.12-121a10.41,10.41,0,0,0-7.41,3.06l-85.39,85.38a10.66,10.66,0,0,0,15.07,15.07L581.67,499a10.48,10.48,0,0,0,0-14.82A10.7,10.7,0,0,0,574,480.84Z"/></g><path class="cls-2" d="M284.9,344.84H147.05a36.82,36.82,0,1,1,0-73.63H284.9a36.82,36.82,0,1,1,0,73.63ZM147.05,285.65a22.38,22.38,0,1,0,0,44.75H284.9a22.38,22.38,0,1,0,0-44.75Z"/><path class="cls-2" d="M284.9,404H147.05a36.82,36.82,0,1,1,0-73.64H284.9a36.82,36.82,0,1,1,0,73.64Zm-137.85-59.2a22.38,22.38,0,1,0,0,44.76H284.9a22.38,22.38,0,0,0,0-44.76Z"/><path class="cls-2" d="M284.9,463.25H147.05a36.83,36.83,0,0,1,0-73.65H284.9a36.83,36.83,0,0,1,0,73.65ZM147.05,404a22.39,22.39,0,0,0,0,44.77H284.9a22.39,22.39,0,0,0,0-44.77Z"/><path class="cls-2" d="M289.07,522.44H151.21a36.82,36.82,0,0,1,0-73.63H289.07a36.82,36.82,0,1,1,0,73.63ZM151.21,463.25a22.38,22.38,0,0,0,0,44.75H289.07a22.38,22.38,0,1,0,0-44.75Z"/><path class="cls-1" d="M528.92,647.78l82.44,82.43c7.54,7.56,13.65,13.82,13.65,14s33.32,62.84,82.11,94.85,35,57.93,35,83.84c0,21.84,27.06,27.46,45.61,3.14,6.47-8.47,12.81-24.93,14.08-35.5,3.85-32.17-17.19-53.6-24.93-65.2-5.23-7.86-8.25-22.41-2.8-40.5H916.67a29.61,29.61,0,1,0,0-59.21,29.6,29.6,0,1,0,0-59.19,29.6,29.6,0,1,0,0-59.2,29.61,29.61,0,1,0,0-59.21h-83.9v-.14H689.21c-10.62,0-25.44-6.15-33-13.64l-6.92-6.91a19.27,19.27,0,0,0-27.29,0l-93.13,93.13A19.3,19.3,0,0,0,528.92,647.78Z"/><g id="_Group_3" data-name="&lt;Group&gt;"><path class="cls-2" d="M760.62,949.17c-14.88,0-25.67-11-25.67-26.26,0-5,.47-9.87.9-14.61,2-21.09,3.73-39.29-32.69-63.19-42.51-27.9-76-80.36-83.73-96.44l0,.05c-.62-.73-5.12-5.37-13.13-13.41l-82.44-82.43a26.56,26.56,0,0,1,0-37.51l93.13-93.13c10-10,27.5-10,37.51,0l6.92,6.91c6.14,6.14,19.15,11.54,27.84,11.54H832.77a7.46,7.46,0,0,1,1.43.14h82.47a36.81,36.81,0,0,1,21.89,66.42,36.78,36.78,0,0,1,0,59.2,36.77,36.77,0,0,1,0,59.19,36.81,36.81,0,0,1-21.89,66.43H779.72c-2.9,13.5-.4,23.82,3.23,29.28,1.13,1.69,2.55,3.59,4.14,5.72,9.55,12.81,25.55,34.25,21.95,64.34-1.48,12.23-8.43,29.74-15.53,39C784.42,942.34,772.44,949.17,760.62,949.17ZM631.79,741.59c3.32,6.09,35,62.37,79.28,91.44,43.71,28.68,41.3,54.16,39.17,76.63-.44,4.61-.85,9-.85,13.25,0,7.4,4.2,11.81,11.23,11.81s15.17-4.87,21.41-13c5.48-7.18,11.53-22.42,12.66-32,2.93-24.36-10.36-42.19-19.17-54-1.77-2.37-3.33-4.49-4.59-6.36-7.64-11.48-9-28.9-3.71-46.58a7.22,7.22,0,0,1,6.91-5.14H916.67a22.39,22.39,0,1,0,0-44.77,7.22,7.22,0,0,1,0-14.44,22.38,22.38,0,1,0,0-44.75,7.22,7.22,0,0,1,0-14.44,22.38,22.38,0,1,0,0-44.76,7.22,7.22,0,0,1,0-14.43,22.39,22.39,0,1,0,0-44.77h-83.9a8.23,8.23,0,0,1-1.42-.14H689.21c-12.5,0-29.22-6.93-38.05-15.77l-6.93-6.91a12.35,12.35,0,0,0-17.08,0L534,625.58a12.1,12.1,0,0,0,0,17.1l82.44,82.43c10.1,10.14,13.74,13.78,15,15.95h0A5,5,0,0,1,631.79,741.59Z"/></g></svg>