<svg id="Layer_1" data-name="Layer 1" xmlns="http://www.w3.org/2000/svg" viewBox="0 0 335.77 327.68"><defs><style>.cls-1{fill:#fff;}</style></defs><title>Owl-icons-secondary-RGB-twitter</title><path class="cls-1" d="M328.75,65.89a149.86,149.86,0,0,1-32,33.63V107q0,32-12,64.84a185.51,185.51,0,0,1-35.22,59.25q-23.22,26.41-57.11,43T114.2,290.59a173.79,173.79,0,0,1-52-7.74,195.3,195.3,0,0,1-46.7-21.62,52.17,52.17,0,0,0,7.48.54h8q45.9,0,79.53-27.22a63.66,63.66,0,0,1-59.78-44.84,48.62,48.62,0,0,0,11.74,1.61,66.24,66.24,0,0,0,8.81-.54,71.9,71.9,0,0,0,8.27-1.6A65.12,65.12,0,0,1,42.42,167Q27.74,149.69,27.74,126.2v-.53A83.53,83.53,0,0,0,41.35,131a57.34,57.34,0,0,0,16.28,2.13,58.49,58.49,0,0,1-21.35-22.42,64.07,64.07,0,0,1-7.47-30.95,66.42,66.42,0,0,1,8.54-32.56A182.17,182.17,0,0,0,95.52,95a172.69,172.69,0,0,0,74.19,19.48,57,57,0,0,1-1.6-13.88,65.54,65.54,0,0,1,18.94-46.16,66.53,66.53,0,0,1,20.28-13.88,60.71,60.71,0,0,1,24.82-5.07,59.88,59.88,0,0,1,26.15,5.61,74.9,74.9,0,0,1,20.82,14.67,95.66,95.66,0,0,0,21.35-5.87,205.7,205.7,0,0,0,19.75-9.07A71.08,71.08,0,0,1,291.93,76a108,108,0,0,0,19.21-3.73A146.53,146.53,0,0,0,328.75,65.89Z"/></svg>