<svg id="Layer_1" data-name="Layer 1" xmlns="http://www.w3.org/2000/svg" viewBox="0 0 1075.94 1050"><defs><style>.cls-1{fill:none;stroke:#fff;stroke-miterlimit:10;stroke-width:25.54px;}</style></defs><title>Owl-icons-primary-RGB-SC_Icon_WinLoss_White_RGB</title><path class="cls-1" d="M176,790.93H419.9L272.72,470.48l-33.81-73.73-178.84,46V372.2l370.42-94.32a222.21,222.21,0,0,0,80.32-38.49c14.45-11,27.32-23.78,30.74-35.85.07-.24.13-.49.2-.74a50.91,50.91,0,0,0-12.37-49c-14.47-14.78-31.48-14.47-45-7.34-23.32,12.29-33.55,36.31-21.51,59.77.42.83.87,1.66,1.35,2.47,28.51,49.06,112.45,27.92,112.45,27.92L990.34,127.22l.82,73.35-146,36.34,213.08,475H639.88l146-335.2L750.42,307,591.55,646.47h363l-171.33-392-476,124,210.55,477H97.08L244.2,521.23l-38.67-69L17.69,848.32"/></svg>